<svg width="362" height="152" viewBox="0 0 362 152" fill="none" xmlns="http://www.w3.org/2000/svg">
<path d="M46.4109 94.7994H68.2021V96.4049C68.2021 100.313 65.034 103.481 61.1261 103.481H53.487C49.579 103.481 46.4109 100.313 46.4109 96.4049V94.7994Z" fill="#FDCD00" stroke="#231F20" stroke-width="2.04" stroke-miterlimit="10" stroke-linecap="round" stroke-linejoin="round"/>
<path d="M76.0732 48.0654H1V94.7996H76.0732V48.0654Z" fill="#FDCD00" stroke="#231F20" stroke-width="2.04" stroke-miterlimit="10" stroke-linecap="round" stroke-linejoin="round"/>
<path d="M8.86987 94.7994H30.6611V96.4049C30.6611 100.313 27.493 103.481 23.585 103.481H15.9459C12.038 103.481 8.86987 100.313 8.86987 96.4049V94.7994Z" fill="#FDCD00" stroke="#231F20" stroke-width="2.04" stroke-miterlimit="10" stroke-linecap="round" stroke-linejoin="round"/>
<path d="M38.5368 94.8794H1.00024V141.614H38.5368V94.8794Z" fill="#E51F1C" stroke="#231F20" stroke-width="2.04" stroke-miterlimit="10" stroke-linecap="round" stroke-linejoin="round"/>
<path d="M8.86987 141.616H30.6611V143.221C30.6611 147.129 27.493 150.297 23.585 150.297H15.9459C12.038 150.297 8.86987 147.129 8.86987 143.221V141.616Z" fill="#E51F1C" stroke="#231F20" stroke-width="2.04" stroke-miterlimit="10" stroke-linecap="round" stroke-linejoin="round"/>
<path d="M196.555 94.7994H218.346V96.4049C218.346 100.313 215.178 103.481 211.27 103.481H203.631C199.723 103.481 196.555 100.313 196.555 96.4049V94.7994Z" fill="#E51F1C" stroke="#231F20" stroke-width="2.04" stroke-miterlimit="10" stroke-linecap="round" stroke-linejoin="round"/>
<path d="M159.019 94.7994H180.81V96.4049C180.81 100.313 177.642 103.481 173.734 103.481H166.095C162.187 103.481 159.019 100.313 159.019 96.4049V94.7994Z" fill="#E51F1C" stroke="#231F20" stroke-width="2.04" stroke-miterlimit="10" stroke-linecap="round" stroke-linejoin="round"/>
<path d="M121.483 94.7994H143.274V96.4049C143.274 100.313 140.106 103.481 136.198 103.481H128.559C124.651 103.481 121.483 100.313 121.483 96.4049V94.7994Z" fill="#E51F1C" stroke="#231F20" stroke-width="2.04" stroke-miterlimit="10" stroke-linecap="round" stroke-linejoin="round"/>
<path d="M226.218 48.0654H76.072V94.7996H226.218V48.0654Z" fill="#E51F1C" stroke="#231F20" stroke-width="2.04" stroke-miterlimit="10" stroke-linecap="round" stroke-linejoin="round"/>
<path d="M83.947 94.7994H105.738V96.4049C105.738 100.313 102.57 103.481 98.6622 103.481H91.0231C87.1151 103.481 83.947 100.313 83.947 96.4049V94.7994Z" fill="#E51F1C" stroke="#231F20" stroke-width="2.04" stroke-miterlimit="10" stroke-linecap="round" stroke-linejoin="round"/>
<path d="M115.251 1H40.1782V47.7342H115.251V1Z" fill="#0060A9" stroke="#231F20" stroke-width="2.04" stroke-miterlimit="10" stroke-linecap="round" stroke-linejoin="round"/>
<path d="M315.849 84.8821L336.079 92.9823L335.482 94.4728C334.029 98.1013 329.91 99.8645 326.282 98.412L319.191 95.5724C315.563 94.1192 313.8 90.0005 315.252 86.3727L315.849 84.8821Z" fill="#FDCD00" stroke="#231F20" stroke-width="2.04" stroke-miterlimit="10" stroke-linecap="round" stroke-linejoin="round"/>
<path d="M273.694 68.0019L343.387 95.909L360.76 52.5237L291.067 24.6166L273.694 68.0019Z" fill="#FDCD00" stroke="#231F20" stroke-width="2.04" stroke-miterlimit="10" stroke-linecap="round" stroke-linejoin="round"/>
<path d="M281.001 70.929L301.231 79.0292L300.634 80.5197C299.181 84.1482 295.062 85.9114 291.434 84.4589L284.342 81.6193C280.715 80.1661 278.951 76.0474 280.404 72.4196L281.001 70.929Z" fill="#FDCD00" stroke="#231F20" stroke-width="2.04" stroke-miterlimit="10" stroke-linecap="round" stroke-linejoin="round"/>
</svg>
