<svg width="237" height="158" viewBox="0 0 237 158" fill="none" xmlns="http://www.w3.org/2000/svg">
<path d="M236.003 97.9353L197.003 97.9353L197.003 49.3792L236.003 49.3792L236.003 97.9353Z" fill="#E51F1C" stroke="#231F20" stroke-width="2.11952" stroke-miterlimit="10" stroke-linecap="round" stroke-linejoin="round"/>
<path d="M205.178 97.9352L227.819 97.9352L227.819 99.6032C227.819 103.664 224.527 106.955 220.467 106.955L212.53 106.955C208.47 106.955 205.178 103.664 205.178 99.6032L205.178 97.9352Z" fill="#E51F1C" stroke="#231F20" stroke-width="2.11952" stroke-miterlimit="10" stroke-linecap="round" stroke-linejoin="round"/>
<path d="M127.18 49.557L149.821 49.557L149.821 51.2251C149.821 55.2854 146.529 58.577 142.469 58.577L134.532 58.577C130.471 58.577 127.18 55.2854 127.18 51.2251L127.18 49.557Z" fill="#0060A9" stroke="#231F20" stroke-width="2.11952" stroke-miterlimit="10" stroke-linecap="round" stroke-linejoin="round"/>
<path d="M88.1803 49.557L110.821 49.557L110.821 51.225C110.821 55.2853 107.529 58.577 103.469 58.577L95.5322 58.577C91.4719 58.577 88.1803 55.2853 88.1803 51.225L88.1803 49.557Z" fill="#0060A9" stroke="#231F20" stroke-width="2.11952" stroke-miterlimit="10" stroke-linecap="round" stroke-linejoin="round"/>
<path d="M49.1813 49.557L71.822 49.557L71.822 51.225C71.822 55.2853 68.5304 58.577 64.4701 58.577L56.5332 58.577C52.4729 58.577 49.1813 55.2853 49.1813 51.225L49.1813 49.557Z" fill="#0060A9" stroke="#231F20" stroke-width="2.11952" stroke-miterlimit="10" stroke-linecap="round" stroke-linejoin="round"/>
<path d="M2.00008 49.5561L157.999 49.5561L157.999 1L2.00008 0.999986L2.00008 49.5561Z" fill="#0060A9" stroke="#231F20" stroke-width="2.11952" stroke-miterlimit="10" stroke-linecap="round" stroke-linejoin="round"/>
<path d="M10.182 49.557L32.8228 49.557L32.8228 51.225C32.8228 55.2853 29.5311 58.577 25.4708 58.577L17.5339 58.577C13.4736 58.577 10.182 55.2853 10.182 51.225L10.182 49.557Z" fill="#0060A9" stroke="#231F20" stroke-width="2.11952" stroke-miterlimit="10" stroke-linecap="round" stroke-linejoin="round"/>
<path d="M88.1803 97.9352L110.821 97.9352L110.821 99.6032C110.821 103.664 107.529 106.955 103.469 106.955L95.5322 106.955C91.4719 106.955 88.1803 103.664 88.1803 99.6032L88.1803 97.9352Z" fill="#FDCD00" stroke="#231F20" stroke-width="2.11952" stroke-miterlimit="10" stroke-linecap="round" stroke-linejoin="round"/>
<path d="M40.9992 97.9343L118.999 97.9343L118.999 49.3782L40.9992 49.3782L40.9992 97.9343Z" fill="#FDCD00" stroke="#231F20" stroke-width="2.11952" stroke-miterlimit="10" stroke-linecap="round" stroke-linejoin="round"/>
<path d="M49.181 97.9351L71.8218 97.9351L71.8218 99.6032C71.8218 103.664 68.5302 106.955 64.4699 106.955L56.533 106.955C52.4727 106.955 49.181 103.664 49.181 99.6032L49.181 97.9351Z" fill="#FDCD00" stroke="#231F20" stroke-width="2.11952" stroke-miterlimit="10" stroke-linecap="round" stroke-linejoin="round"/>
<path d="M166.179 97.9352L188.82 97.9352L188.82 99.6032C188.82 103.664 185.528 106.955 181.468 106.955L173.531 106.955C169.47 106.955 166.179 103.664 166.179 99.6032L166.179 97.9352Z" fill="#009945" stroke="#231F20" stroke-width="2.11952" stroke-miterlimit="10" stroke-linecap="round" stroke-linejoin="round"/>
<path d="M119.003 97.9343L197.003 97.9343L197.003 49.3782L119.003 49.3782L119.003 97.9343Z" fill="#009945" stroke="#231F20" stroke-width="2.11952" stroke-miterlimit="10" stroke-linecap="round" stroke-linejoin="round"/>
<path d="M127.18 97.9352L149.821 97.9352L149.821 99.6032C149.821 103.664 146.529 106.955 142.469 106.955L134.532 106.955C130.471 106.955 127.18 103.664 127.18 99.6032L127.18 97.9352Z" fill="#009945" stroke="#231F20" stroke-width="2.11952" stroke-miterlimit="10" stroke-linecap="round" stroke-linejoin="round"/>
<path d="M205.178 147.114L227.819 147.114L227.819 148.782C227.819 152.842 224.527 156.133 220.467 156.133L212.53 156.133C208.47 156.133 205.178 152.842 205.178 148.782L205.178 147.114Z" fill="#E51F1C" stroke="#231F20" stroke-width="2.11952" stroke-miterlimit="10" stroke-linecap="round" stroke-linejoin="round"/>
<path d="M158.002 147.113L236.002 147.113L236.002 98.5565L158.002 98.5565L158.002 147.113Z" fill="#E51F1C" stroke="#231F20" stroke-width="2.11952" stroke-miterlimit="10" stroke-linecap="round" stroke-linejoin="round"/>
<path d="M166.179 147.114L188.82 147.114L188.82 148.782C188.82 152.842 185.528 156.134 181.468 156.134L173.531 156.134C169.47 156.134 166.179 152.842 166.179 148.782L166.179 147.114Z" fill="#E51F1C" stroke="#231F20" stroke-width="2.11952" stroke-miterlimit="10" stroke-linecap="round" stroke-linejoin="round"/>
</svg>
