<svg width="441" height="137" viewBox="0 0 441 137" fill="none" xmlns="http://www.w3.org/2000/svg">
<path d="M438.206 111.111H147.406V201.625H438.206V111.111Z" fill="#0060A9" stroke="#231F20" stroke-width="3.95102" stroke-miterlimit="10" stroke-linecap="round" stroke-linejoin="round"/>
<path d="M59.4587 110.142H17.2539V107.033C17.2539 99.4639 23.3898 93.328 30.9587 93.328H45.7539C53.3228 93.328 59.4587 99.4639 59.4587 107.033V110.142Z" fill="#FDCD00" stroke="#231F20" stroke-width="3.95102" stroke-miterlimit="10" stroke-linecap="round" stroke-linejoin="round"/>
<path d="M147.4 110.143H2V200.657H147.4V110.143Z" fill="#FDCD00" stroke="#231F20" stroke-width="3.95102" stroke-miterlimit="10" stroke-linecap="round" stroke-linejoin="round"/>
<path d="M219.587 18.8097H292.287V109.324H219.587V18.8097Z" fill="#FDCD00" stroke="#231F20" stroke-width="3.95102" stroke-miterlimit="10" stroke-linecap="round" stroke-linejoin="round"/>
<path d="M277.042 18.8142H234.837V15.7048C234.837 8.13593 240.973 2 248.542 2H263.337C270.906 2 277.042 8.13593 277.042 15.7048V18.8142Z" fill="#FDCD00" stroke="#231F20" stroke-width="3.95102" stroke-miterlimit="10" stroke-linecap="round" stroke-linejoin="round"/>
<path d="M132.158 18.8142H89.9531V15.7048C89.9531 8.13593 96.0891 2 103.658 2H118.453C126.022 2 132.158 8.13593 132.158 15.7048V18.8142Z" fill="#E51F1C" stroke="#231F20" stroke-width="3.95102" stroke-miterlimit="10" stroke-linecap="round" stroke-linejoin="round"/>
<path d="M220.099 18.8154H74.6992V109.329H220.099V18.8154Z" fill="#E51F1C" stroke="#231F20" stroke-width="3.95102" stroke-miterlimit="10" stroke-linecap="round" stroke-linejoin="round"/>
<path d="M204.857 18.8142H162.652V15.7048C162.652 8.13593 168.788 2 176.357 2H191.152C198.721 2 204.857 8.13593 204.857 15.7048V18.8142Z" fill="#E51F1C" stroke="#231F20" stroke-width="3.95102" stroke-miterlimit="10" stroke-linecap="round" stroke-linejoin="round"/>
<path d="M350.254 18.8142H308.05V15.7048C308.05 8.13593 314.185 2 321.754 2H336.55C344.118 2 350.254 8.13593 350.254 15.7048V18.8142Z" fill="#009945" stroke="#231F20" stroke-width="3.95102" stroke-miterlimit="10" stroke-linecap="round" stroke-linejoin="round"/>
<path d="M438.206 18.8154H292.805V109.329H438.206V18.8154Z" fill="#009945" stroke="#231F20" stroke-width="3.95102" stroke-miterlimit="10" stroke-linecap="round" stroke-linejoin="round"/>
<path d="M422.954 18.8142H380.749V15.7048C380.749 8.13593 386.885 2 394.454 2H409.249C416.818 2 422.954 8.13593 422.954 15.7048V18.8142Z" fill="#009945" stroke="#231F20" stroke-width="3.95102" stroke-miterlimit="10" stroke-linecap="round" stroke-linejoin="round"/>
</svg>
