<svg width="499" height="227" viewBox="0 0 499 227" fill="none" xmlns="http://www.w3.org/2000/svg">
<path d="M277.323 200.336H-13.4764V290.85H277.323V200.336Z" fill="#FDCD00" stroke="#231F20" stroke-width="3.95102" stroke-miterlimit="10" stroke-linecap="round" stroke-linejoin="round"/>
<path d="M497.03 200.336H351.629V290.85H497.03V200.336Z" fill="#009945" stroke="#231F20" stroke-width="3.95102" stroke-miterlimit="10" stroke-linecap="round" stroke-linejoin="round"/>
<path d="M481.782 200.334H439.578V197.225C439.578 189.656 445.714 183.52 453.282 183.52H468.078C475.647 183.52 481.782 189.656 481.782 197.225V200.334Z" fill="#009945" stroke="#231F20" stroke-width="3.95102" stroke-miterlimit="10" stroke-linecap="round" stroke-linejoin="round"/>
<path d="M277.279 200.33H349.979V290.844H277.279V200.33Z" fill="#0060A9" stroke="#231F20" stroke-width="3.95102" stroke-miterlimit="10" stroke-linecap="round" stroke-linejoin="round"/>
<path d="M261.552 109.322H219.347V106.213C219.347 98.6441 225.483 92.5081 233.052 92.5081H247.847C255.416 92.5081 261.552 98.6441 261.552 106.213V109.322Z" fill="#E51F1C" stroke="#231F20" stroke-width="3.95102" stroke-miterlimit="10" stroke-linecap="round" stroke-linejoin="round"/>
<path d="M334.252 109.322H292.047V106.213C292.047 98.6441 298.183 92.5081 305.752 92.5081H320.547C328.116 92.5081 334.252 98.6441 334.252 106.213V109.322Z" fill="#E51F1C" stroke="#231F20" stroke-width="3.95102" stroke-miterlimit="10" stroke-linecap="round" stroke-linejoin="round"/>
<path d="M422.2 109.324H131.401V199.838H422.2V109.324Z" fill="#E51F1C" stroke="#231F20" stroke-width="3.95102" stroke-miterlimit="10" stroke-linecap="round" stroke-linejoin="round"/>
<path d="M406.952 109.322H364.747V106.213C364.747 98.6441 370.883 92.5081 378.452 92.5081H393.247C400.816 92.5081 406.952 98.6441 406.952 106.213V109.322Z" fill="#E51F1C" stroke="#231F20" stroke-width="3.95102" stroke-miterlimit="10" stroke-linecap="round" stroke-linejoin="round"/>
<path d="M131.923 109.324H-13.4773V199.838H131.923V109.324Z" fill="#009945" stroke="#231F20" stroke-width="3.95102" stroke-miterlimit="10" stroke-linecap="round" stroke-linejoin="round"/>
<path d="M43.4522 18.8142H1.24744V15.7048C1.24744 8.13593 7.38337 2 14.9522 2H29.7475C37.3163 2 43.4522 8.13593 43.4522 15.7048V18.8142Z" fill="#0060A9" stroke="#231F20" stroke-width="3.95102" stroke-miterlimit="10" stroke-linecap="round" stroke-linejoin="round"/>
<path d="M131.4 18.8156H-14V109.33H131.4V18.8156Z" fill="#0060A9" stroke="#231F20" stroke-width="3.95102" stroke-miterlimit="10" stroke-linecap="round" stroke-linejoin="round"/>
<path d="M116.152 18.8142H73.9475V15.7048C73.9475 8.13593 80.0834 2 87.6523 2H102.448C110.016 2 116.152 8.13593 116.152 15.7048V18.8142Z" fill="#0060A9" stroke="#231F20" stroke-width="3.95102" stroke-miterlimit="10" stroke-linecap="round" stroke-linejoin="round"/>
<path d="M131.922 18.8141H204.622V109.328H131.922V18.8141Z" fill="#FDCD00" stroke="#231F20" stroke-width="3.95102" stroke-miterlimit="10" stroke-linecap="round" stroke-linejoin="round"/>
<path d="M189.374 18.8142H147.17V15.7048C147.17 8.13593 153.306 2 160.874 2H175.67C183.239 2 189.374 8.13593 189.374 15.7048V18.8142Z" fill="#FDCD00" stroke="#231F20" stroke-width="3.95102" stroke-miterlimit="10" stroke-linecap="round" stroke-linejoin="round"/>
</svg>
