<svg width="116" height="151" viewBox="0 0 116 151" fill="none" xmlns="http://www.w3.org/2000/svg">
<path d="M69.3496 57.498L47.5584 57.498L47.5584 55.8925C47.5584 51.9846 50.7265 48.8164 54.6344 48.8164L62.2735 48.8164C66.1815 48.8164 69.3496 51.9846 69.3496 55.8925L69.3496 57.498Z" fill="#FDCD00" stroke="#231F20" stroke-width="2.04" stroke-miterlimit="10" stroke-linecap="round" stroke-linejoin="round"/>
<path d="M39.6871 104.232L114.76 104.232L114.76 57.4978L39.6871 57.4977L39.6871 104.232Z" fill="#FDCD00" stroke="#231F20" stroke-width="2.04" stroke-miterlimit="10" stroke-linecap="round" stroke-linejoin="round"/>
<path d="M106.89 57.498L85.0989 57.498L85.0989 55.8925C85.0989 51.9846 88.267 48.8164 92.175 48.8164L99.8141 48.8164C103.722 48.8164 106.89 51.9846 106.89 55.8925L106.89 57.498Z" fill="#FDCD00" stroke="#231F20" stroke-width="2.04" stroke-miterlimit="10" stroke-linecap="round" stroke-linejoin="round"/>
<path d="M77.2237 57.418L114.76 57.418L114.76 10.6837L77.2237 10.6837L77.2237 57.418Z" fill="#E51F1C" stroke="#231F20" stroke-width="2.04" stroke-miterlimit="10" stroke-linecap="round" stroke-linejoin="round"/>
<path d="M106.89 10.6815L85.0989 10.6815L85.0989 9.07607C85.0989 5.16812 88.267 2.00001 92.175 2.00001L99.8141 2.00001C103.722 2.00001 106.89 5.16812 106.89 9.07607L106.89 10.6815Z" fill="#E51F1C" stroke="#231F20" stroke-width="2.04" stroke-miterlimit="10" stroke-linecap="round" stroke-linejoin="round"/>
<path d="M0.54277 104.232L39.6885 104.232L39.6885 57.4978L0.542774 57.4977L0.54277 104.232Z" fill="#E51F1C" stroke="#231F20" stroke-width="2.04" stroke-miterlimit="10" stroke-linecap="round" stroke-linejoin="round"/>
<path d="M31.8135 57.498L10.0222 57.498L10.0222 55.8925C10.0222 51.9846 13.1904 48.8164 17.0983 48.8164L24.7374 48.8164C28.6454 48.8164 31.8135 51.9846 31.8135 55.8925L31.8135 57.498Z" fill="#E51F1C" stroke="#231F20" stroke-width="2.04" stroke-miterlimit="10" stroke-linecap="round" stroke-linejoin="round"/>
<path d="M0.50885 151.297L75.582 151.297L75.582 104.563L0.508854 104.563L0.50885 151.297Z" fill="#0060A9" stroke="#231F20" stroke-width="2.04" stroke-miterlimit="10" stroke-linecap="round" stroke-linejoin="round"/>
</svg>
