<svg width="147" height="102" viewBox="0 0 147 102" fill="none" xmlns="http://www.w3.org/2000/svg">
<path d="M146.103 55.5557H73.7031V100.813H146.103V55.5557Z" fill="#0060A9" stroke="#231F20" stroke-width="1.97551" stroke-miterlimit="10" stroke-linecap="round" stroke-linejoin="round"/>
<path d="M29.7294 55.0711H8.62695V53.5164C8.62695 49.732 11.6949 46.664 15.4793 46.664H22.877C26.6614 46.664 29.7294 49.732 29.7294 53.5164V55.0711Z" fill="#FDCD00" stroke="#231F20" stroke-width="1.97551" stroke-miterlimit="10" stroke-linecap="round" stroke-linejoin="round"/>
<path d="M73.7001 55.0717H1V100.329H73.7001V55.0717Z" fill="#FDCD00" stroke="#231F20" stroke-width="1.97551" stroke-miterlimit="10" stroke-linecap="round" stroke-linejoin="round"/>
<path d="M109.793 9.40485H146.144V54.6618H109.793V9.40485Z" fill="#FDCD00" stroke="#231F20" stroke-width="1.97551" stroke-miterlimit="10" stroke-linecap="round" stroke-linejoin="round"/>
<path d="M138.521 9.40711H117.418V7.85239C117.418 4.06797 120.486 1 124.271 1H131.668C135.453 1 138.521 4.06797 138.521 7.85239V9.40711Z" fill="#FDCD00" stroke="#231F20" stroke-width="1.97551" stroke-miterlimit="10" stroke-linecap="round" stroke-linejoin="round"/>
<path d="M66.079 9.40711H44.9766V7.85239C44.9766 4.06797 48.0445 1 51.829 1H59.2266C63.011 1 66.079 4.06797 66.079 7.85239V9.40711Z" fill="#E51F1C" stroke="#231F20" stroke-width="1.97551" stroke-miterlimit="10" stroke-linecap="round" stroke-linejoin="round"/>
<path d="M110.05 9.40771H37.3496V54.6647H110.05V9.40771Z" fill="#E51F1C" stroke="#231F20" stroke-width="1.97551" stroke-miterlimit="10" stroke-linecap="round" stroke-linejoin="round"/>
<path d="M102.429 9.40711H81.3262V7.85239C81.3262 4.06797 84.3941 1 88.1786 1H95.5762C99.3606 1 102.429 4.06797 102.429 7.85239V9.40711Z" fill="#E51F1C" stroke="#231F20" stroke-width="1.97551" stroke-miterlimit="10" stroke-linecap="round" stroke-linejoin="round"/>
</svg>
