<svg width="141" height="132" viewBox="0 0 141 132" fill="none" xmlns="http://www.w3.org/2000/svg">
<path d="M109.132 37.5866C95.4394 29.5082 51.8813 30.0644 38.1066 36.809C30.1155 54.1035 31.4642 77.4545 38.107 96.6378C57.9788 103.332 88.235 101.685 108.334 96.6367C114.889 77.8465 116.198 57.378 109.132 37.5866Z" fill="#329781"/>
<path d="M53.5309 58.6177V66.6604H59.634V69.0313H53.5309V71.2H61.4422V73.5709H51.0769V56.2574H61.4422V58.6177H53.5309Z" fill="white"/>
<path d="M74.427 58.6287H70.0441V73.5713H67.5678V58.6287H63.1848V56.2579H74.427V58.6287Z" fill="white"/>
<path d="M76.1675 56.257H78.6108V73.5704H76.1675V56.257Z" fill="white"/>
<path d="M93.8431 60.1949C93.2842 59.6873 92.6489 59.2851 91.9257 58.9882C91.1038 58.6498 90.2384 58.4912 89.3392 58.4912C88.441 58.4912 87.5862 58.6498 86.7537 58.9882C85.9647 59.317 85.2521 59.782 84.6391 60.3748C84.0251 60.9675 83.5542 61.6453 83.2148 62.4062C82.8745 63.2107 82.6995 64.0364 82.6995 64.9038C82.6995 65.772 82.8745 66.6084 83.2148 67.4119C83.5542 68.1738 84.0251 68.8516 84.6391 69.4444C85.2521 70.0371 85.9647 70.5021 86.7537 70.8309C87.5862 71.1587 88.441 71.3279 89.3392 71.3279C90.2384 71.3279 91.1038 71.1587 91.9257 70.8309C92.6373 70.5341 93.2736 70.1318 93.8431 69.6348L95.4868 71.2215C94.6978 71.9206 93.8102 72.4814 92.8239 72.8943C91.7178 73.3381 90.5556 73.5711 89.3392 73.5711C88.1344 73.5711 86.9616 73.3381 85.8438 72.8943C84.7812 72.4495 83.8278 71.8355 82.9953 71.0417C82.1735 70.2382 81.5382 69.3167 81.078 68.2802C80.6177 67.2002 80.376 66.0785 80.376 64.9038C80.376 63.7299 80.6177 62.6073 81.078 61.5389C81.5382 60.5014 82.1735 59.5809 82.9953 58.7871C83.8278 57.9836 84.7812 57.3696 85.8438 56.9355C86.9616 56.4801 88.1344 56.2586 89.3392 56.2586C90.5556 56.2586 91.7178 56.4801 92.8239 56.9355C93.8208 57.3377 94.7084 57.8879 95.4868 58.6073L93.8431 60.1949Z" fill="white"/>
<path fill-rule="evenodd" clip-rule="evenodd" d="M33.4162 11.7662C28.8596 9.08301 14.3678 9.26758 9.78496 11.508C7.126 17.252 7.57462 25.0082 9.78484 31.3791C16.3967 33.603 26.4631 33.0552 33.1503 31.3791C35.3323 25.1376 35.7669 18.3396 33.4162 11.7662Z" fill="#EA9023"/>
<path fill-rule="evenodd" clip-rule="evenodd" d="M135.23 27.1534C132.501 25.5321 123.819 25.6433 121.073 26.9981C119.48 30.4695 119.749 35.1566 121.073 39.0077C125.034 40.3517 131.065 40.0215 135.071 39.0083C136.377 35.2363 136.639 31.1267 135.23 27.1534Z" fill="#EEC419"/>
<path fill-rule="evenodd" clip-rule="evenodd" d="M34.6569 100.304C32.8678 99.2222 27.1777 99.2964 25.3787 100.199C24.3339 102.513 24.5096 105.636 25.3781 108.202C27.9743 109.098 31.9271 108.877 34.5522 108.202C35.4093 105.688 35.5806 102.951 34.6569 100.304Z" fill="#2E9546"/>
<path fill-rule="evenodd" clip-rule="evenodd" d="M115.159 91.5603C112.744 90.088 105.062 90.1888 102.633 91.4191C101.223 94.5698 101.461 98.8246 102.633 102.32C106.138 103.54 111.473 103.24 115.018 102.319C116.174 98.8958 116.405 95.1662 115.159 91.5603Z" fill="#C52127"/>
</svg>
