<svg width="143" height="173" viewBox="0 0 143 173" fill="none" xmlns="http://www.w3.org/2000/svg">
<path d="M43.0897 78.9687L39.8989 59.132L73.3801 53.7465L76.5708 73.5833L43.0897 78.9687Z" fill="#F3C951" stroke="black" stroke-width="1.04693" stroke-miterlimit="10"/>
<path d="M69.1972 17.1244L32.3863 23.0451C27.3208 23.86 23.8428 28.6712 24.6574 33.7367L29.1846 61.8824C29.9993 66.9482 34.8105 70.4259 39.8763 69.6112L76.6869 63.6906C81.7527 62.8759 85.2307 58.0644 84.4158 52.9989L79.8889 24.8532C79.0739 19.7877 74.2627 16.3097 69.1972 17.1244Z" fill="#F3C951" stroke="black" stroke-width="0.837546" stroke-miterlimit="10"/>
<path d="M122.917 92.6895C121.066 90.2292 119.501 88.1701 118.337 86.6432C114.975 82.2356 113.706 80.6371 112.173 78.8309C110.255 76.5712 109.296 75.4413 108.145 74.4272C105.986 72.5242 103.534 70.4185 99.9246 69.9766C99.3667 69.9083 97.7043 69.7479 95.6363 70.2334C93.7207 70.683 92.3054 71.4881 91.4561 72.0603C98.5906 90.3965 105.725 108.732 112.86 127.069C113.171 125.903 113.882 123.893 115.601 122.05C117.378 120.145 119.298 119.421 121.341 118.65C123.373 117.884 126.098 116.856 129.5 117.465C131.122 117.755 132.379 118.325 133.171 118.75C129.753 110.063 126.335 101.377 122.917 92.6895Z" fill="#F3C951" stroke="black" stroke-width="0.82377" stroke-miterlimit="10"/>
<path d="M113.371 127.976C113.481 126.703 113.879 124.287 115.602 122.05C118.094 118.815 121.672 118.147 124.869 117.55C127.223 117.111 130.174 116.603 132.325 118.336C132.898 118.798 133.274 119.305 133.51 119.683C132.699 120.989 131.214 122.987 128.738 124.563C126.708 125.856 124.915 126.291 122.33 126.893C120.191 127.392 117.14 127.922 113.371 127.976Z" fill="#F3C951" stroke="black" stroke-width="0.82377" stroke-miterlimit="10"/>
<path d="M142.337 137.458C140.983 129.981 133.049 126.389 131.861 125.872C131.316 123.831 130.77 121.79 130.225 119.749C128.839 119.479 125.366 118.998 121.505 120.631C118.706 121.814 116.928 123.59 116.024 124.64C116.723 126.651 117.421 128.662 118.119 130.674C115.485 133.758 114.201 137.896 114.934 141.865C115.89 147.047 120.168 151.318 125.8 152.701C125.557 151.024 125.2 149.718 124.935 148.873C124.019 145.949 123.003 144.673 122.793 142.107C122.707 141.06 122.788 140.202 122.859 139.686C122.931 139.252 123.448 136.416 126.006 134.944C128.866 133.298 131.898 134.725 132.395 134.959C134.905 136.141 136.003 138.421 137.487 141.503C138.752 144.131 139.372 146.466 139.697 148.042C140.503 146.964 141.926 144.756 142.376 141.631C142.632 139.969 142.537 138.563 142.337 137.458Z" fill="#F3C951"/>
<path d="M142.337 137.458C140.983 129.981 133.049 126.389 131.861 125.872C131.316 123.831 130.77 121.79 130.225 119.749C128.839 119.479 125.366 118.998 121.505 120.631C118.706 121.814 116.928 123.59 116.024 124.64C116.723 126.651 117.421 128.662 118.119 130.674C115.485 133.758 114.201 137.896 114.934 141.865C115.89 147.047 120.168 151.318 125.8 152.701C125.557 151.024 125.2 149.718 124.935 148.873C124.019 145.949 123.003 144.673 122.793 142.107C122.707 141.06 122.788 140.202 122.859 139.686C122.931 139.252 123.448 136.416 126.006 134.944C128.866 133.298 131.898 134.725 132.395 134.959C134.905 136.141 136.003 138.421 137.487 141.503C138.752 144.131 139.372 146.466 139.697 148.042C140.503 146.964 141.926 144.756 142.376 141.631C142.632 139.969 142.537 138.563 142.337 137.458Z" stroke="black" stroke-width="0.840301" stroke-miterlimit="10"/>
<path d="M127.248 130.783C122.079 131.725 119.767 137.273 120.275 140.43C120.361 140.964 120.584 141.859 121.031 142.81C121.939 144.743 123.289 145.924 124.084 146.517C123.884 146.016 123.685 145.516 123.486 145.016C123.266 144.464 123.079 143.906 122.907 143.253C122.907 143.253 122.614 142.132 122.541 141.1C122.412 139.249 124.281 134.379 128.136 133.749C132.206 133.084 135.266 137.674 136.177 139.04C136.667 139.775 137.006 140.451 137.236 140.975C137.292 140.704 137.359 140.305 137.388 139.82C137.388 139.82 137.497 137.996 136.806 136.199C136.002 134.111 132.313 129.861 127.248 130.783Z" fill="#F3C951"/>
<path d="M127.248 130.783C122.079 131.725 119.767 137.273 120.275 140.43C120.361 140.964 120.584 141.859 121.031 142.81C121.939 144.743 123.289 145.924 124.084 146.517C123.884 146.016 123.685 145.516 123.486 145.016C123.266 144.464 123.079 143.906 122.907 143.253C122.907 143.253 122.614 142.132 122.541 141.1C122.412 139.249 124.281 134.379 128.136 133.749C132.206 133.084 135.266 137.674 136.177 139.04C136.667 139.775 137.006 140.451 137.236 140.975C137.292 140.704 137.359 140.305 137.388 139.82C137.388 139.82 137.497 137.996 136.806 136.199C136.002 134.111 132.313 129.861 127.248 130.783Z" stroke="black" stroke-width="0.840301" stroke-miterlimit="10"/>
<path d="M23.9337 81.7675C21.8178 81.9549 20.2895 82.6285 19.7809 82.8685C16.493 84.4196 14.8243 87.1882 13.3707 89.6724C12.5962 90.996 12.0397 92.3697 10.9269 95.1168C10.0373 97.3128 9.33393 99.2284 7.52384 104.468C6.89706 106.283 6.05703 108.729 5.07044 111.646C4.5489 120.966 4.02764 130.287 3.5061 139.607C4.12462 138.955 5.13904 138.02 6.58849 137.235C9.62735 135.591 12.5378 135.712 14.708 135.803C16.8898 135.894 18.939 135.979 21.2241 137.231C23.4347 138.442 24.7401 140.128 25.4008 141.137C26.4257 121.488 27.4508 101.84 28.476 82.1916C27.4899 81.9144 25.8936 81.594 23.9337 81.7675Z" fill="#F3C951"/>
<path d="M23.9337 81.7675C21.8178 81.9549 20.2895 82.6285 19.7809 82.8685C16.493 84.4196 14.8243 87.1882 13.3707 89.6724C12.5962 90.996 12.0397 92.3697 10.9269 95.1168C10.0373 97.3128 9.33393 99.2284 7.52384 104.468C6.89706 106.283 6.05703 108.729 5.07044 111.646C4.5489 120.966 4.02764 130.287 3.5061 139.607C4.12462 138.955 5.13904 138.02 6.58849 137.235C9.62735 135.591 12.5378 135.712 14.708 135.803C16.8898 135.894 18.939 135.979 21.2241 137.231C23.4347 138.442 24.7401 140.128 25.4008 141.137C26.4257 121.488 27.4508 101.84 28.476 82.1916C27.4899 81.9144 25.8936 81.594 23.9337 81.7675Z" stroke="black" stroke-width="0.826525" stroke-miterlimit="10"/>
<path d="M25.2003 142.158C24.6964 140.984 23.5611 138.814 21.2242 137.231C17.8426 134.94 14.2359 135.428 11.0133 135.864C8.6398 136.185 5.67864 136.629 4.1796 138.947C3.77956 139.566 3.5823 140.166 3.47705 140.598C4.65568 141.585 6.69334 143.016 9.53824 143.737C11.8704 144.327 13.7105 144.178 16.354 143.939C18.5408 143.742 21.6047 143.289 25.2003 142.158Z" fill="#F3C951" stroke="black" stroke-width="0.826525" stroke-miterlimit="10"/>
<path d="M21.5381 146.207C21.5703 144.078 21.6028 141.95 21.6351 139.821C20.4479 139.107 18.2025 137.978 15.1741 137.732C10.9955 137.392 7.84808 138.939 6.61711 139.63C6.73916 141.739 6.86121 143.848 6.98326 145.957C6.01733 146.82 -0.390447 152.718 0.669434 160.243C0.825923 161.355 1.17637 162.72 1.94035 164.218C3.34765 167.044 5.39082 168.695 6.49506 169.465C6.30909 167.868 6.16555 165.455 6.54272 162.564C6.98519 159.172 7.31277 156.662 9.32646 154.753C9.72485 154.375 12.1562 152.069 15.3876 152.735C18.2788 153.331 19.6586 155.861 19.863 156.251C20.092 156.719 20.4385 157.508 20.6857 158.529C21.2907 161.032 20.7256 162.562 20.773 165.626C20.7865 166.511 20.8565 167.863 21.1521 169.532C26.0664 166.453 28.7892 161.056 28.0723 155.835C27.5232 151.837 25.007 148.31 21.5381 146.207Z" fill="#F3C951" stroke="black" stroke-width="0.826525" stroke-miterlimit="10"/>
<path d="M12.903 149.174C7.80413 149.886 5.6345 155.079 5.52595 157.314C5.43255 159.236 6.10837 160.935 6.10837 160.935C6.28801 161.386 6.477 161.744 6.61476 161.984C6.66903 161.414 6.77841 160.666 7.01342 159.814C7.4501 158.231 8.91691 152.914 12.99 152.269C16.8477 151.658 20.1499 155.697 20.6076 157.495C20.8624 158.497 20.9351 159.654 20.9351 159.654C20.9773 160.328 20.974 160.916 20.9384 161.509C20.9062 162.046 20.874 162.584 20.8415 163.122C21.4096 162.309 22.3215 160.765 22.5777 158.645C22.7036 157.601 22.6353 156.682 22.5493 156.147C22.0416 152.991 18.1065 148.448 12.903 149.174Z" fill="#F3C951"/>
<path d="M12.903 149.174C7.80413 149.886 5.6345 155.079 5.52595 157.314C5.43255 159.236 6.10837 160.935 6.10837 160.935C6.28801 161.386 6.477 161.744 6.61476 161.984C6.66903 161.414 6.77841 160.666 7.01342 159.814C7.4501 158.231 8.91691 152.914 12.99 152.269C16.8477 151.658 20.1499 155.697 20.6076 157.495C20.8624 158.497 20.9351 159.654 20.9351 159.654C20.9773 160.328 20.974 160.916 20.9384 161.509C20.9062 162.046 20.874 162.584 20.8415 163.122C21.4096 162.309 22.3215 160.765 22.5777 158.645C22.7036 157.601 22.6353 156.682 22.5493 156.147C22.0416 152.991 18.1065 148.448 12.903 149.174Z" stroke="black" stroke-width="0.826525" stroke-miterlimit="10"/>
<path d="M91.7551 70.6668C91.5003 70.1601 90.7707 68.8872 89.1664 67.9888C87.5732 67.0964 86.0312 67.0851 85.4286 67.1099L31.8601 75.7262C31.3562 75.8951 30.2892 76.326 29.3858 77.3349C28.1746 78.6876 28.0631 80.1798 28.0479 80.6446L24.8931 146L114.361 131.609L91.7551 70.6668Z" fill="#231F20" stroke="black" stroke-width="1.04693" stroke-miterlimit="10"/>
<path d="M29.2819 145.277C29.7591 148.245 30.2367 151.213 30.7137 154.18C57.7776 149.827 84.8415 145.474 111.905 141.121C111.428 138.154 110.951 135.186 110.474 132.218C83.4096 136.571 56.3457 140.924 29.2819 145.277Z" fill="#939598" stroke="black" stroke-width="1.04694" stroke-miterlimit="10"/>
<path d="M30.7448 154.372L67.7749 148.417L72.9912 180.848L35.9611 186.804L30.7448 154.372Z" fill="#036CB6" stroke="black" stroke-width="0.826525" stroke-miterlimit="10"/>
<path d="M74.6886 147.304L111.719 141.348L116.935 173.779L79.9049 179.735L74.6886 147.304Z" fill="#036CB6" stroke="black" stroke-width="0.826525" stroke-miterlimit="10"/>
<path d="M76.33 146.98C72.9129 147.516 69.4957 148.052 66.0786 148.588C67.8989 159.506 69.7192 170.425 71.5395 181.343C71.8411 184.225 74.4163 186.298 77.124 186.04C79.9956 185.766 82.1884 182.95 81.6581 179.918C79.8821 168.938 78.1059 157.959 76.33 146.98Z" fill="#036CB6" stroke="black" stroke-width="0.826525" stroke-miterlimit="10"/>
<path d="M86.6515 28.6983C84.8521 20.2944 83.9708 16.0797 81.9201 13.0855C77.2663 6.29005 70.6979 3.76198 68.6437 3.00985C63.225 1.02619 58.7794 1.2904 53.0653 1.6301C44.3835 2.14613 38.2642 4.45296 36.2576 5.25854C31.3338 7.23587 26.9369 9.06662 23.7176 13.5662C22.0772 15.859 21.2069 18.1956 20.5741 19.8944C20.1374 21.0669 18.7995 24.8618 18.4427 30.2334C18.2658 32.8987 17.9606 38.2824 20.1032 44.5824C21.8891 49.8333 25.431 55.8846 27.2504 55.3986C28.1891 55.1476 28.4641 53.2113 28.9002 50.143C29.2261 47.8483 29.2595 45.0238 29.2898 42.4574C29.2939 42.0949 29.2922 42.1304 29.2944 42.056C29.3316 40.719 29.6493 37.2845 32.2421 35.5069C33.9048 34.3671 35.7491 34.6823 37.8765 34.8782C37.8765 34.8782 43.0707 35.3565 53.6329 33.9164C56.4014 33.5389 60.4545 32.6967 65.304 30.5593C66.9523 29.56 69.7509 28.1527 73.4849 27.661C75.579 27.3852 76.626 27.2474 77.4889 27.7995C79.942 29.3702 78.0512 33.6266 80.6153 39.5566C81.084 40.6402 82.5378 44.003 84.092 43.8744C85.7045 43.7407 86.5812 39.9183 86.8418 38.7821C87.8193 34.52 87.1314 30.9403 86.6515 28.6983Z" fill="#3C2415"/>
<path d="M86.6515 28.6983C84.8521 20.2944 83.9708 16.0797 81.9201 13.0855C77.2663 6.29005 70.6979 3.76198 68.6437 3.00985C63.225 1.02619 58.7794 1.2904 53.0653 1.6301C44.3835 2.14613 38.2642 4.45296 36.2576 5.25854C31.3338 7.23587 26.9369 9.06662 23.7176 13.5662C22.0772 15.859 21.2069 18.1956 20.5741 19.8944C20.1374 21.0669 18.7995 24.8618 18.4427 30.2334C18.2658 32.8987 17.9606 38.2824 20.1032 44.5824C21.8891 49.8333 25.431 55.8846 27.2504 55.3986C28.1891 55.1476 28.4641 53.2113 28.9002 50.143C29.2261 47.8483 29.2595 45.0238 29.2898 42.4574C29.2939 42.0949 29.2922 42.1304 29.2944 42.056C29.3316 40.719 29.6493 37.2845 32.2421 35.5069C33.9048 34.3671 35.7491 34.6823 37.8765 34.8782C37.8765 34.8782 43.0707 35.3565 53.6329 33.9164C56.4014 33.5389 60.4545 32.6967 65.304 30.5593C66.9523 29.56 69.7509 28.1527 73.4849 27.661C75.579 27.3852 76.626 27.2474 77.4889 27.7995C79.942 29.3702 78.0512 33.6266 80.6153 39.5566C81.084 40.6402 82.5378 44.003 84.092 43.8744C85.7045 43.7407 86.5812 39.9183 86.8418 38.7821C87.8193 34.52 87.1314 30.9403 86.6515 28.6983Z" stroke="black" stroke-width="0.876117" stroke-miterlimit="10"/>
<path d="M25.3796 28.9937C32.1989 29.6753 39.1137 29.2915 45.8215 27.89C49.1504 27.1947 52.4262 26.2455 55.6095 25.0482C58.7117 23.8814 61.6974 22.4397 64.755 21.1657C68.1404 19.7548 71.6675 18.5374 75.3538 18.2979C76.0544 18.2525 76.0596 17.156 75.3538 17.2017C68.6672 17.6359 62.7677 21.0158 56.6762 23.4629C50.3715 25.9956 43.6728 27.5481 36.8969 28.0485C33.0621 28.3317 29.2055 28.2799 25.3796 27.8972C25.0845 27.8677 24.8313 28.1705 24.8313 28.4455C24.8313 28.7664 25.0837 28.9642 25.3796 28.9937Z" fill="black"/>
<path d="M24.4777 20.3449C30.4932 21.2001 36.5538 20.8254 42.3651 19.0296C45.8993 17.9375 49.2966 16.4443 52.6515 14.8987C54.2395 14.1669 55.816 13.4109 57.4026 12.6775C58.7711 12.0449 60.1649 11.4821 61.6317 11.1203C65.0408 10.28 68.6321 10.3698 72.0429 11.1457C72.73 11.3019 73.0232 10.2453 72.3344 10.0885C69.274 9.39234 66.1173 9.23199 63.0131 9.72681C61.4686 9.97311 59.9715 10.4013 58.5253 10.9952C57.0054 11.6195 55.5322 12.3541 54.0436 13.0486C48.1122 15.8158 42.0395 18.612 35.4771 19.4217C31.9242 19.86 28.3117 19.7911 24.7692 19.2878C24.4764 19.2462 24.1802 19.3594 24.0948 19.6705C24.0242 19.9275 24.1827 20.303 24.4777 20.3449Z" fill="black"/>
<path d="M27.5486 82.2336C26.5964 82.0451 25.1346 81.8702 23.3851 82.1187C22.8534 82.1942 21.5353 82.4168 20.1371 83.0447C16.7363 84.5724 14.965 87.5547 13.6539 89.8288C13.3125 90.4206 12.7937 91.376 11.3969 94.9216C10.0811 98.2613 9.11349 101.037 8.4812 102.93C14.4978 102.943 20.5146 102.955 26.5314 102.968C26.8703 96.0561 27.2094 89.145 27.5486 82.2336Z" fill="#231F20"/>
<path d="M92.4639 71.8133C93.3089 71.3358 94.6423 70.7112 96.3813 70.3985C96.91 70.3035 98.2314 70.1015 99.7557 70.2594C103.464 70.6437 106.081 72.9203 108.039 74.6684C108.549 75.1235 109.341 75.8679 111.779 78.7966C114.076 81.5552 115.865 83.8877 117.06 85.4873C111.35 87.3856 105.641 89.2841 99.9315 91.1823L92.4639 71.8133Z" fill="#231F20"/>
<path d="M40.5263 41.2203C41.9215 40.3282 43.3682 39.5658 44.9413 39.0369C46.5112 38.5087 48.1414 38.1894 49.7947 38.0954C50.6661 38.0459 50.6719 36.6835 49.7947 36.7333C46.2067 36.9372 42.8557 38.1153 39.8389 40.0441C39.1025 40.515 39.7849 41.6944 40.5263 41.2203Z" fill="#231F20"/>
<path d="M67.0687 36.0362C63.5998 35.151 60.0433 35.0633 56.5702 35.9946C55.7247 36.2213 56.0834 37.5358 56.9325 37.3079C58.5224 36.8817 60.1507 36.6652 61.7971 36.6707C63.4703 36.6762 65.0889 36.9368 66.7067 37.3495C67.5564 37.5663 67.9189 36.253 67.0687 36.0362Z" fill="#231F20"/>
<path d="M50.5488 45.0981C50.8136 46.7447 49.6932 48.2941 48.0468 48.5592C46.4003 48.824 44.8505 47.7037 44.5857 46.0572C44.3206 44.4105 45.441 42.861 47.0875 42.5962C48.7342 42.331 50.2839 43.4514 50.5488 45.0981Z" fill="black"/>
<path d="M48.9994 44.2889C49.1082 44.9649 48.6485 45.6006 47.9725 45.7093C47.2966 45.8181 46.6608 45.3581 46.5522 44.6827C46.4434 44.0067 46.9031 43.371 47.5791 43.262C48.2548 43.1536 48.8904 43.613 48.9994 44.2889Z" fill="#F1F2F2"/>
<path d="M64.4865 42.8562C64.7513 44.5027 63.631 46.0522 61.9845 46.3172C60.338 46.582 58.7883 45.4617 58.5234 43.8152C58.2583 42.1685 59.3787 40.619 61.0252 40.3542C62.6719 40.0891 64.2217 41.2094 64.4865 42.8562Z" fill="black"/>
<path d="M62.8328 42.1547C62.9499 42.8831 62.4547 43.5686 61.7262 43.6858C60.9977 43.8027 60.3122 43.3074 60.1951 42.579C60.0779 41.8505 60.5734 41.165 61.3019 41.0481C62.0303 40.9306 62.7159 41.4262 62.8328 42.1547Z" fill="#F1F2F2"/>
<path d="M63.6303 51.7102C59.0271 54.9796 53.9644 55.313 48.7476 55.2879C49.3529 57.2851 50.6721 58.1843 52.4405 58.4315C55.4306 58.8494 58.2904 58.2973 60.9915 56.9839C61.6753 56.6514 62.2674 56.1307 62.9016 55.6962C62.8526 55.583 62.8032 55.4695 62.7542 55.3562C62.117 55.3033 61.4797 55.2507 60.7711 55.192C61.7412 54.0911 63.6584 54.0054 63.6303 51.7102ZM62.8313 48.7123C64.9456 48.4054 65.6181 48.8179 66.4758 51.071C66.0041 50.9891 65.6189 50.9222 65.1911 50.8481C65.134 50.9674 65.0285 51.0925 65.0186 51.2247C64.9685 51.8782 64.9018 52.5345 64.9178 53.188C64.9781 55.6893 63.8066 57.4534 61.6257 58.5243C58.5535 60.033 55.3169 60.5697 51.9094 59.9592C49.3455 59.4996 48.0674 57.6713 47.2067 55.4976C46.6744 54.1534 47.353 53.5946 48.8126 53.7172C53.6602 54.1244 58.2901 53.485 62.3156 50.475C62.7065 50.1827 62.8509 49.5612 63.1099 49.0925C63.017 48.9658 62.9242 48.8391 62.8313 48.7123Z" fill="black"/>
<path d="M63.6305 51.7085C63.6586 54.0038 61.7413 54.0895 60.7713 55.1904C61.4799 55.2491 62.1171 55.3017 62.7544 55.3546C62.8034 55.4678 62.8527 55.5813 62.9018 55.6946C62.2676 56.1291 61.6755 56.6498 60.9917 56.9823C58.2906 58.2957 55.4308 58.8478 52.4407 58.4298C50.6722 58.1827 49.3531 57.2834 48.7478 55.2863C53.9646 55.3113 59.0273 54.978 63.6305 51.7085Z" fill="white"/>
<path d="M50.4239 126.052C50.0756 123.887 49.7273 121.723 49.3791 119.557C50.013 119.849 50.6864 120.104 51.3551 120.302C51.6492 122.129 51.9427 123.957 52.2368 125.784C51.5121 125.892 51.1494 125.946 50.4239 126.052Z" stroke="#F9A31A" stroke-width="0.0991836" stroke-miterlimit="10"/>
<path d="M53.4268 125.605C53.1601 123.947 52.8934 122.289 52.6267 120.631C53.2772 120.774 53.9596 120.872 54.6241 120.918C55.2176 121.523 55.8402 122.099 56.491 122.641C56.9412 122.057 57.3812 121.459 57.7919 120.846C58.5581 120.757 58.9378 120.692 59.6927 120.532C59.9065 121.862 60.1205 123.192 60.3346 124.523C59.6183 124.637 59.2599 124.695 58.5435 124.809C58.4273 124.087 58.3113 123.365 58.1953 122.643C57.7308 123.229 57.2497 123.803 56.7701 124.376C56.7552 124.378 56.7478 124.379 56.7326 124.381C56.059 123.899 55.4297 123.407 54.7961 122.873C54.928 123.694 55.06 124.514 55.192 125.334C54.4858 125.443 54.1329 125.498 53.4268 125.605Z" stroke="#F9A31A" stroke-width="0.099183" stroke-miterlimit="10"/>
<path d="M62.9444 121.926C63.2739 121.797 63.4383 121.732 63.7673 121.599C64.0712 121.476 64.3032 121.32 64.4619 121.124C64.6208 120.928 64.6828 120.721 64.6487 120.509C64.6478 120.503 64.6473 120.5 64.6462 120.494C64.6095 120.266 64.4946 120.134 64.3026 120.103C64.1106 120.073 63.8596 120.141 63.5486 120.298C63.2281 120.46 63.0678 120.54 62.7465 120.696C62.8284 121.205 62.8678 121.451 62.9444 121.926ZM61.4855 124.336C61.2668 122.978 61.0483 121.619 60.8298 120.26C61.7982 120.092 62.6496 119.496 63.4849 119.015C64.0668 118.719 64.733 118.324 65.4159 118.444C65.9251 118.533 66.2422 118.936 66.3477 119.591C66.3488 119.598 66.3494 119.602 66.3505 119.608C66.4604 120.292 66.2904 120.931 65.8587 121.462C65.3721 122.061 64.6663 122.339 63.9679 122.608C63.6196 122.716 63.4455 122.769 63.097 122.875C63.1747 123.359 63.2122 123.592 63.2838 124.037C62.565 124.16 62.2054 124.22 61.4855 124.336Z" stroke="#F9A31A" stroke-width="0.099183" stroke-miterlimit="10"/>
<path d="M68.9862 120.196C69.5496 119.983 69.8315 119.877 70.3957 119.668C70.0637 119.06 69.7188 118.457 69.3628 117.862C69.2419 118.641 69.1165 119.419 68.9862 120.196ZM66.5535 123.477C67.2877 121.038 67.7494 118.527 68.1911 116.023C68.8369 115.611 69.1598 115.405 69.8078 115.006C71.3104 117.322 72.6001 119.752 73.8065 122.232C73.0356 122.364 72.6505 122.43 71.8796 122.562C71.5942 121.994 71.4531 121.721 71.1746 121.197C70.3525 121.414 69.5314 121.634 68.7104 121.854C68.606 122.39 68.5528 122.65 68.4432 123.152C67.6875 123.282 67.3095 123.347 66.5535 123.477Z" stroke="#F9A31A" stroke-width="0.099183" stroke-miterlimit="10"/>
<path d="M77.177 121.882C76.1061 122.055 75.2947 121.524 74.5759 120.862C73.7436 120.096 73.2695 118.894 73.0772 117.756C73.0755 117.746 73.0747 117.741 73.073 117.731C72.9008 116.589 72.9909 115.295 73.5202 114.268C73.9662 113.401 74.7594 112.666 75.7413 112.482C76.9643 112.254 78.1347 113.055 78.8152 114.018C78.351 114.587 78.1217 114.89 77.6666 115.516C77.1431 114.866 76.6117 114.58 76.073 114.663C75.627 114.731 75.2942 115.02 75.0735 115.521C74.8528 116.023 74.7952 116.602 74.9021 117.268C74.9038 117.278 74.9046 117.283 74.9063 117.293C75.0162 117.976 75.2545 118.53 75.6207 118.952C75.9865 119.374 76.3962 119.553 76.8486 119.485C77.1646 119.438 77.4192 119.304 77.612 119.084C77.8049 118.864 77.9809 118.556 78.1405 118.166C78.773 118.643 79.0899 118.885 79.7222 119.36C79.4833 120.045 79.1687 120.615 78.7761 121.054C78.3837 121.493 77.8506 121.773 77.177 121.882Z" stroke="#F9A31A" stroke-width="0.099183" stroke-miterlimit="10"/>
<path d="M82.3823 120.872C82.0439 118.769 81.7059 116.667 81.3676 114.564C80.5556 114.486 80.1534 114.471 79.355 114.478C79.2442 113.79 79.1335 113.101 79.0227 112.413C81.17 112.52 83.109 112.987 85.0924 113.814C85.1941 114.445 85.2448 114.761 85.3462 115.392C84.669 115.166 83.9598 114.98 83.2592 114.843C83.5678 116.762 83.8763 118.68 84.1849 120.599C83.4636 120.707 83.1033 120.762 82.3823 120.872Z" fill="#F9A31A" stroke="#F9A31A" stroke-width="0.099183" stroke-miterlimit="10"/>
<path d="M49.2811 118.946C48.9326 116.781 48.5845 114.616 48.2364 112.451C48.897 113.042 49.6005 113.586 50.3511 114.058C50.6574 115.964 50.9641 117.87 51.2703 119.775C50.5951 119.551 49.9159 119.267 49.2811 118.946Z" stroke="#F9A31A" stroke-width="0.0991829" stroke-miterlimit="10"/>
<path d="M52.5487 120.143C52.261 118.355 51.9734 116.567 51.686 114.779C52.3197 115.078 53.0523 115.319 53.7438 115.441C54.3687 116.176 55.0037 116.897 55.6784 117.586C56.1267 116.867 56.5275 116.155 56.9166 115.401C57.6715 115.243 58.042 115.12 58.7735 114.814C59.0564 116.574 59.3394 118.334 59.6226 120.094C58.9132 120.253 58.5564 120.318 57.8359 120.408C57.6874 119.484 57.5389 118.56 57.3902 117.636C56.9527 118.343 56.5047 119.011 56.0154 119.682C56.0002 119.682 55.9925 119.682 55.9774 119.682C55.2696 119.034 54.6073 118.348 53.9554 117.644C54.1064 118.582 54.2571 119.521 54.4081 120.459C53.6727 120.384 53.3011 120.323 52.5487 120.143Z" stroke="#F9A31A" stroke-width="0.099183" stroke-miterlimit="10"/>
<path d="M62.0374 116.293C62.3534 116.08 62.511 115.97 62.825 115.746C63.1154 115.538 63.3342 115.3 63.4813 115.032C63.6287 114.765 63.6824 114.507 63.643 114.262C63.6419 114.256 63.6414 114.252 63.6403 114.245C63.5981 113.983 63.4824 113.846 63.294 113.837C63.1052 113.828 62.8611 113.939 62.5608 114.161C62.2512 114.391 62.096 114.502 61.7842 114.718C61.888 115.365 61.9387 115.68 62.0374 116.293ZM60.7562 119.808C60.4606 117.97 60.165 116.132 59.8694 114.294C60.7758 113.786 61.6153 113.221 62.4534 112.607C63.0027 112.238 63.6433 111.736 64.3412 111.767C64.8363 111.789 65.1517 112.161 65.263 112.854C65.2644 112.861 65.2649 112.865 65.266 112.872C65.387 113.635 65.2035 114.413 64.8313 115.081C64.4062 115.844 63.786 116.49 63.0614 116.978C62.7319 117.202 62.5666 117.311 62.2355 117.524C62.3374 118.157 62.3867 118.464 62.4823 119.059C61.8068 119.452 61.4632 119.612 60.7562 119.808Z" stroke="#F9A31A" stroke-width="0.099183" stroke-miterlimit="10"/>
<path d="M67.7774 112.69C68.3089 112.277 68.5748 112.071 69.1081 111.672C68.7155 111.078 68.5216 110.795 68.1364 110.246C68.0174 111.061 67.8978 111.875 67.7774 112.69ZM65.5337 117.144C66.0938 114.349 66.5547 111.536 67.0157 108.723C67.5317 108.275 68.0532 107.832 68.583 107.4C69.9184 109.139 71.1458 110.932 72.2886 112.803C71.6775 113.145 71.0742 113.506 70.4818 113.879C70.2195 113.456 70.0895 113.252 69.8319 112.857C69.0544 113.391 68.2879 113.941 67.5253 114.495C67.4311 115.094 67.3837 115.39 67.287 115.973C66.7038 116.365 66.12 116.757 65.5337 117.144Z" stroke="#F9A31A" stroke-width="0.099183" stroke-miterlimit="10"/>
<path d="M75.5924 112.037C74.6935 112.197 73.7744 111.958 73.0531 111.4C72.2985 110.816 71.8089 109.994 71.6747 109.044C71.6736 109.036 71.6728 109.032 71.6714 109.024C71.5174 107.97 71.6557 106.814 72.1737 105.901C72.6836 105.003 73.3085 104.167 74.3505 103.842C75.4977 103.483 76.6923 104.048 77.3695 105.036C76.8923 105.525 76.6581 105.796 76.1939 106.367C75.6836 105.799 75.1643 105.588 74.6353 105.73C74.1973 105.849 73.8689 106.164 73.6449 106.645C73.4206 107.126 73.3534 107.645 73.4443 108.209C73.4457 108.218 73.4462 108.222 73.4476 108.231C73.541 108.81 73.7617 109.254 74.1119 109.578C74.462 109.902 74.8618 110.02 75.3112 109.933C75.625 109.872 75.8809 109.746 76.0773 109.547C76.2735 109.348 76.4548 109.075 76.6215 108.729C77.2471 109.162 77.5632 109.399 78.1996 109.9C77.9442 110.483 77.6144 110.957 77.2102 111.324C76.8061 111.69 76.2617 111.917 75.5924 112.037Z" fill="#F9A31A"/>
<path d="M75.5924 112.037C74.6935 112.197 73.7744 111.958 73.0531 111.4C72.2985 110.816 71.8089 109.994 71.6747 109.044C71.6736 109.036 71.6728 109.032 71.6714 109.024C71.5174 107.97 71.6557 106.814 72.1737 105.901C72.6836 105.003 73.3085 104.167 74.3505 103.842C75.4977 103.483 76.6923 104.048 77.3695 105.036C76.8923 105.525 76.6581 105.796 76.1939 106.367C75.6836 105.799 75.1643 105.588 74.6353 105.73C74.1973 105.849 73.8689 106.164 73.6449 106.645C73.4206 107.126 73.3534 107.645 73.4443 108.209C73.4457 108.218 73.4462 108.222 73.4476 108.231C73.541 108.81 73.7617 109.254 74.1119 109.578C74.462 109.902 74.8618 110.02 75.3112 109.933C75.625 109.872 75.8809 109.746 76.0773 109.547C76.2735 109.348 76.4548 109.075 76.6215 108.729C77.2471 109.162 77.5632 109.399 78.1996 109.9C77.9442 110.483 77.6144 110.957 77.2102 111.324C76.8061 111.69 76.2617 111.917 75.5924 112.037Z" stroke="#F9A31A" stroke-width="0.099183" stroke-miterlimit="10"/>
<path d="M80.9297 111.836C80.6112 109.856 80.2927 107.876 79.9742 105.896C79.3248 105.681 78.5931 105.534 77.9095 105.487C77.7869 104.725 77.7263 104.348 77.6062 103.602C80.0808 103.828 82.094 105.149 83.9498 106.706C84.0514 107.337 84.1021 107.653 84.2035 108.283C83.5004 107.713 82.7527 107.196 81.9595 106.758C82.2579 108.612 82.556 110.467 82.8544 112.322C82.0749 112.067 81.6903 111.973 80.9297 111.836Z" stroke="#F9A31A" stroke-width="0.099183" stroke-miterlimit="10"/>
<path d="M48.1378 111.838C47.7896 109.673 47.4414 107.508 47.0933 105.343C47.728 105.664 48.4072 105.949 49.0825 106.172C49.4726 108.596 49.8625 111.021 50.2523 113.445C49.5024 112.973 48.7982 112.428 48.1378 111.838Z" stroke="#F9A31A" stroke-width="0.0991836" stroke-miterlimit="10"/>
<path d="M51.5857 114.167C51.1768 111.625 50.768 109.083 50.3591 106.541C51.0088 106.702 51.6962 106.816 52.3635 106.871C53.0602 107.964 53.7625 109.051 54.4774 110.132C54.8518 109.035 55.2037 107.93 55.5343 106.82C56.3002 106.729 56.6796 106.661 57.4331 106.492C57.8463 109.062 58.2599 111.633 58.6731 114.203C57.9847 114.491 57.6361 114.608 56.9267 114.765C56.6878 113.281 56.449 111.797 56.2104 110.312C55.8409 111.402 55.448 112.483 55.0282 113.554C55.0127 113.555 55.0053 113.555 54.9899 113.555C54.2336 112.492 53.4999 111.416 52.7773 110.331C53.017 111.821 53.2564 113.31 53.4961 114.8C52.8528 114.674 52.178 114.447 51.5857 114.167Z" stroke="#F9A31A" stroke-width="0.099183" stroke-miterlimit="10"/>
<path d="M60.8946 109.181C61.2106 108.968 61.3682 108.859 61.6823 108.635C61.9727 108.427 62.1892 108.175 62.3331 107.885C62.4766 107.596 62.5262 107.31 62.4805 107.027C62.4794 107.019 62.4785 107.015 62.4774 107.007C62.4287 106.704 62.3072 106.532 62.1132 106.489C61.919 106.445 61.6699 106.525 61.3663 106.727C61.0533 106.936 60.8966 107.038 60.5819 107.237C60.7098 108.031 60.7723 108.42 60.8946 109.181ZM59.7719 113.682C59.3711 111.19 58.9702 108.698 58.5693 106.206C59.5408 106.021 60.3855 105.405 61.2159 104.905C61.8038 104.606 62.4639 104.224 63.1566 104.395C63.6742 104.523 63.9919 104.943 64.1109 105.683C64.112 105.69 64.1128 105.694 64.1139 105.702C64.2426 106.508 64.0644 107.331 63.7021 108.053C63.2935 108.866 62.6956 109.586 61.9611 110.129C61.6344 110.371 61.4704 110.488 61.1415 110.715C61.269 111.509 61.3313 111.895 61.4525 112.649C60.788 113.11 60.4527 113.322 59.7719 113.682Z" fill="#F9A31A" stroke="#F9A31A" stroke-width="0.099183" stroke-miterlimit="10"/>
<path d="M66.6288 105.542C67.157 105.11 67.4215 104.895 67.9518 104.477C67.5758 103.985 67.3881 103.742 67.0112 103.245C66.8773 104.01 66.7528 104.776 66.6288 105.542ZM64.4358 110.312C64.9008 107.465 65.3574 104.617 65.9007 101.784C66.5437 101.356 66.8655 101.143 67.5107 100.729C68.7034 102.122 69.9033 103.501 71.0265 104.951C70.4179 105.347 69.8228 105.78 69.2522 106.229C69.0062 105.907 68.8839 105.751 68.6398 105.44C67.8706 106.051 67.1187 106.683 66.3726 107.322C66.2792 107.925 66.2329 108.229 66.1404 108.838C65.5747 109.332 65.008 109.826 64.4358 110.312Z" fill="#F9A31A" stroke="#F9A31A" stroke-width="0.099183" stroke-miterlimit="10"/>
<path d="M74.2226 103.513C73.4564 103.771 72.5772 103.901 71.8022 103.616C71.1611 103.381 70.5817 102.62 70.5321 101.933C70.5313 101.927 70.5307 101.923 70.5296 101.917C70.3946 101.061 70.6007 100.148 71.1402 99.4685C71.7047 98.758 72.5428 98.3048 73.4382 98.1621C74.4518 98.0009 75.5973 98.1662 76.382 98.8886C75.8739 99.1859 75.6219 99.3476 75.1248 99.7132C74.6515 99.374 74.1465 99.2517 73.6112 99.3556C73.1679 99.4415 72.8227 99.6537 72.5758 99.9926C72.329 100.331 72.2389 100.708 72.3034 101.109C72.3042 101.115 72.3047 101.118 72.3058 101.124C72.372 101.535 72.5695 101.835 72.8968 102.017C73.2244 102.199 73.6073 102.213 74.0515 102.094C74.3617 102.01 74.6196 101.897 74.824 101.748C75.0284 101.6 75.2232 101.41 75.4086 101.181C76.0037 101.425 76.3037 101.562 76.9118 101.888C76.6203 102.245 76.2627 102.547 75.8425 102.813C75.4221 103.08 74.8708 103.295 74.2226 103.513Z" stroke="#F9A31A" stroke-width="0.099183" stroke-miterlimit="10"/>
<path d="M79.5782 103.432C79.3649 102.106 79.1517 100.78 78.9385 99.4544C78.2792 99.2954 77.5703 99.1943 76.8925 99.1626C76.8176 98.6967 76.7807 98.4678 76.7085 98.0179C78.8878 98.1542 80.8249 98.6854 82.8069 99.5979C82.9083 100.229 82.9592 100.544 83.0606 101.175C82.3396 100.764 81.644 100.409 80.8847 100.074C81.1161 101.512 81.3472 102.95 81.5784 104.388C80.9276 104.023 80.2885 103.673 79.5782 103.432Z" stroke="#F9A31A" stroke-width="0.099183" stroke-miterlimit="10"/>
<path d="M46.9945 104.73C46.6463 102.565 46.298 100.4 45.9498 98.2348C46.6753 98.1287 47.0377 98.075 47.7629 97.9664C48.1654 100.469 48.5679 102.972 48.9704 105.475C48.3017 105.276 47.628 105.021 46.9945 104.73Z" fill="#F9A31A" stroke="#F9A31A" stroke-width="0.0991832" stroke-miterlimit="10"/>
<path d="M50.2408 105.804C49.811 103.132 49.3812 100.46 48.9514 97.7881C49.7135 97.6724 50.0942 97.614 50.8557 97.496C51.5687 98.5871 52.2724 99.6839 52.9741 100.782C53.3182 99.5287 53.6439 98.2713 53.9569 97.0098C54.7178 96.8888 55.0983 96.8282 55.8592 96.7059C56.3417 99.7056 56.8241 102.705 57.3065 105.705C56.5959 105.856 56.2386 105.918 55.5182 106.007L54.7043 100.948C54.3472 102.159 53.98 103.367 53.5824 104.566C53.5673 104.566 53.5598 104.567 53.5447 104.567C52.8014 103.464 52.0616 102.359 51.3178 101.256C51.5765 102.864 51.8352 104.472 52.0936 106.08C51.3602 106.017 50.9899 105.964 50.2408 105.804Z" fill="#F9A31A" stroke="#F9A31A" stroke-width="0.099183" stroke-miterlimit="10"/>
<path d="M59.5121 100.593C59.8417 100.464 60.0064 100.399 60.3354 100.267C60.6395 100.144 60.8654 99.9513 61.0145 99.6956C61.1635 99.4399 61.214 99.1586 61.163 98.8432C61.1616 98.8344 61.1608 98.8297 61.1594 98.8209C61.1051 98.4828 60.9745 98.2536 60.7671 98.1274C60.5596 98.0009 60.2943 97.9795 59.9728 98.0709C59.6414 98.1654 59.4758 98.2123 59.1441 98.3048C59.2669 99.0674 59.3895 99.83 59.5121 100.593ZM58.444 105.433C57.9663 102.462 57.4883 99.4903 57.0103 96.5193C57.9387 96.3724 58.8644 96.2107 59.7907 96.0523C60.4337 95.9082 61.3313 96.0751 61.8733 96.4234C62.3824 96.7507 62.834 97.4882 62.8907 98.1037C62.8921 98.1117 62.8926 98.1158 62.894 98.1238C63.0241 98.895 62.8645 99.6838 62.462 100.35C62.0333 101.06 61.401 101.64 60.653 102.004C60.3142 102.169 60.1444 102.251 59.8045 102.41C59.9282 103.179 60.0519 103.948 60.1753 104.716C59.4975 105.094 59.1529 105.247 58.444 105.433Z" stroke="#F9A31A" stroke-width="0.099183" stroke-miterlimit="10"/>
<path d="M65.5396 98.7721C66.0947 98.5076 66.3725 98.3759 66.9287 98.1169C66.5521 97.6232 66.3625 97.3678 65.9782 96.8239C65.7958 97.5601 65.7085 97.9524 65.5396 98.7721ZM63.2405 102.882C63.6772 100.289 64.1188 97.6788 64.8324 95.1439C65.5255 95.0274 65.8721 94.9692 66.5653 94.853C67.6547 96.2085 68.825 97.4697 70.0251 98.7269C69.413 99.0558 68.8074 99.4024 68.2115 99.76C67.9718 99.4771 67.8517 99.3347 67.6106 99.0432C66.8199 99.4746 66.0352 99.9171 65.2531 100.363C65.1509 100.911 65.1007 101.192 65.0021 101.762C64.4161 102.137 63.8292 102.512 63.2405 102.882Z" stroke="#F9A31A" stroke-width="0.099183" stroke-miterlimit="10"/>
<path d="M73.3235 97.9277C72.5102 98.0707 71.6366 98.0782 70.8602 97.7627C70.1483 97.4737 69.7474 97.0593 69.6449 96.4218C69.6441 96.4169 69.6438 96.4144 69.643 96.4094C69.5414 95.7768 69.7813 95.1771 70.3742 94.7128C71.0445 94.188 71.8997 93.9232 72.7345 93.7935C73.7125 93.6417 74.7424 93.6367 75.6196 94.1533C75.1149 94.4715 74.8614 94.6247 74.3564 94.9401C73.8969 94.6869 73.3996 94.612 72.8604 94.693C72.4141 94.7599 72.0592 94.9112 71.7967 95.1517C71.5338 95.3925 71.4264 95.6609 71.4743 95.9598C71.4751 95.9645 71.4754 95.9667 71.4762 95.9714C71.5256 96.2783 71.7132 96.5166 72.0372 96.6775C72.3615 96.8384 72.7488 96.88 73.2009 96.8106C73.5167 96.7623 73.78 96.6833 73.9903 96.57C74.2005 96.4571 74.4016 96.3069 74.5939 96.1199C75.1807 96.3127 75.4755 96.4185 76.0712 96.6648C75.7736 96.9858 75.4091 97.2442 74.9799 97.4541C74.5504 97.6641 73.9919 97.8101 73.3235 97.9277Z" stroke="#F9A31A" stroke-width="0.099183" stroke-miterlimit="10"/>
<path d="M78.667 97.7654C78.4736 96.5625 78.2802 95.3596 78.0865 94.1568C77.295 94.2072 76.9007 94.2405 76.1139 94.3196C76.0505 93.9256 76.0194 93.7328 75.9585 93.3548C77.8592 93.0597 79.7611 92.771 81.664 92.4908C81.7654 93.1217 81.8161 93.4371 81.9177 94.068C81.1155 94.0518 80.716 94.0537 79.9198 94.0741C80.141 95.4481 80.3619 96.822 80.5829 98.196C79.8076 97.9687 79.4249 97.8847 78.667 97.7654Z" stroke="#F9A31A" stroke-width="0.099183" stroke-miterlimit="10"/>
<path d="M44.4241 84.5631L45.6499 87.5685L46.0151 84.3072L46.5793 84.2164L47.9488 87.1987L48.1703 83.9605L48.7398 83.8689L48.3486 87.8687L47.8027 87.9565L46.4053 84.9171L46.0262 88.2423L45.4802 88.3301L43.8598 84.6538L44.4241 84.5631ZM49.2727 83.7832L52.0706 83.3332L52.1462 83.8034L49.8551 84.1719L50.0425 85.3371L52.1612 84.9963L52.2326 85.4404L50.114 85.7812L50.3232 87.0821L52.6535 86.7073L52.727 87.1645L49.8899 87.6208L49.2727 83.7832ZM56.3221 84.9729L55.4668 83.3712L55.1204 85.1662L56.3221 84.9729ZM55.1035 82.8454L55.6913 82.7508L57.701 86.3645L57.1315 86.4561L56.5573 85.3692L55.0396 85.6134L54.8091 86.8296L54.2761 86.9153L55.1035 82.8454ZM59.1568 82.0863C59.6427 82.0081 60.0404 82.0755 60.3498 82.2883C60.6591 82.5012 60.8548 82.7681 60.9368 83.089L60.43 83.1705C60.3328 82.9325 60.1863 82.755 59.9906 82.6382C59.7967 82.5211 59.5447 82.4875 59.2347 82.5374C58.8568 82.5981 58.5726 82.7805 58.3821 83.0845C58.193 83.3865 58.1426 83.8118 58.2309 84.3604C58.3031 84.8097 58.4663 85.1578 58.7204 85.4046C58.976 85.6493 59.3118 85.7382 59.7281 85.6713C60.1112 85.6097 60.3793 85.4156 60.5322 85.089C60.6135 84.9169 60.66 84.7004 60.6716 84.4395L61.1784 84.358C61.1981 84.7693 61.1028 85.1321 60.8926 85.4465C60.6407 85.8246 60.2562 86.0553 59.7389 86.1385C59.2931 86.2102 58.8969 86.1355 58.5505 85.9143C58.0942 85.6214 57.8062 85.1023 57.6863 84.3569C57.5952 83.7909 57.6703 83.3026 57.9116 82.8922C58.1723 82.4465 58.5873 82.1778 59.1568 82.0863ZM64.2155 81.3798L64.2891 81.837L62.9959 82.045L63.5396 85.4254L63.0119 85.5103L62.4682 82.1298L61.1751 82.3378L61.1016 81.8807L64.2155 81.3798ZM66.1382 81.0705L68.8003 80.6424L68.8759 81.1126L66.7337 81.4572L66.9211 82.6223L68.8047 82.3193L68.8782 82.7765L66.9947 83.0794L67.2754 84.8245L66.7555 84.9081L66.1382 81.0705ZM70.9988 80.1816C71.6762 80.0726 72.2128 80.2096 72.6085 80.5926C72.9174 80.8914 73.1145 81.3054 73.1996 81.8349C73.2918 82.4079 73.223 82.9076 72.9932 83.334C72.7235 83.8348 72.2726 84.136 71.6404 84.2377C71.05 84.3326 70.5545 84.2122 70.1539 83.8765C69.7921 83.5487 69.565 83.0975 69.4725 82.5228C69.3891 82.0038 69.4465 81.539 69.6449 81.1283C69.8996 80.6013 70.3509 80.2858 70.9988 80.1816ZM71.6283 83.7626C72.0864 83.6889 72.3909 83.472 72.542 83.1118C72.6946 82.7496 72.7366 82.3551 72.6679 81.9284C72.5954 81.4774 72.4186 81.1333 72.1374 80.8962C71.8581 80.6589 71.5137 80.5731 71.1045 80.6389C70.7074 80.7028 70.4054 80.8916 70.1986 81.2054C69.9915 81.5174 69.9307 81.939 70.0162 82.4702C70.0845 82.8951 70.2493 83.2367 70.5106 83.4948C70.7733 83.7509 71.1459 83.8402 71.6283 83.7626ZM75.5905 81.3538C75.8343 81.3146 76.0189 81.2349 76.1443 81.1147C76.2714 80.9942 76.3145 80.8068 76.2736 80.5525C76.2297 80.2791 76.1004 80.1087 75.8859 80.0414C75.7713 80.0062 75.6251 80.0029 75.4475 80.0315L74.1779 80.2357L74.3888 81.5471L75.5905 81.3538ZM73.5861 79.8726L75.3626 79.5869C75.6552 79.5398 75.9032 79.5437 76.1068 79.5985C76.4936 79.7042 76.7225 79.9774 76.7934 80.418C76.8303 80.6479 76.8127 80.8437 76.7404 81.0054C76.6699 81.1668 76.5565 81.3057 76.4001 81.4219C76.5597 81.4588 76.6849 81.5209 76.7757 81.6081C76.8683 81.695 76.9369 81.8493 76.9815 82.0708L77.0825 82.5825C77.1113 82.7279 77.141 82.8348 77.1716 82.9031C77.2226 83.02 77.2909 83.0894 77.3766 83.1114L77.3905 83.1976L76.7531 83.3001C76.7303 83.2698 76.7095 83.2294 76.6907 83.1788C76.6718 83.1283 76.6469 83.0286 76.6158 82.88L76.4815 82.245C76.429 81.9962 76.3088 81.8431 76.1209 81.7858C76.0141 81.7547 75.8544 81.7563 75.642 81.7904L74.4585 81.9808L74.7233 83.6266L74.2034 83.7102L73.5861 79.8726Z" fill="#F1F1F2"/>
<path d="M45.1676 90.2066L46.0782 90.0602L47.1485 96.715L46.238 96.8614L45.1676 90.2066ZM47.5233 89.8277L48.8144 89.6201L51.6311 94.939L52.6242 89.0073L53.9017 88.8018L54.9721 95.4566L54.1159 95.5943L53.4842 91.6667C53.4623 91.5308 53.4291 91.3053 53.3847 90.9902C53.3402 90.6752 53.289 90.3379 53.2312 89.9785L52.2359 95.8967L51.3434 96.0402L48.5289 90.7349L48.5617 90.9387C48.588 91.1018 48.6311 91.3505 48.691 91.6847C48.7535 92.0155 48.7974 92.2594 48.8226 92.4164L49.4544 96.3441L48.5936 96.4825L47.5233 89.8277ZM55.3604 88.5672L58.3549 88.0856C58.9468 87.9903 59.451 88.0812 59.8673 88.3582C60.2831 88.6321 60.5396 89.071 60.6368 89.6751C60.7203 90.1945 60.6316 90.6735 60.3706 91.1121C60.1092 91.5476 59.6432 91.8193 58.9728 91.9271L56.8798 92.2638L57.3323 95.077L56.4308 95.222L55.3604 88.5672ZM59.7269 89.826C59.6483 89.3368 59.4136 89.0337 59.023 88.9169C58.8086 88.8553 58.5278 88.8524 58.1805 88.9083L56.3865 89.1968L56.7574 91.5027L58.5514 91.2142C58.9561 91.1491 59.2699 91.0103 59.4929 90.7978C59.7189 90.5849 59.7969 90.2609 59.7269 89.826ZM64.8214 91.0747L63.3383 88.2971L62.7376 91.4099L64.8214 91.0747ZM62.7084 87.3853L63.7276 87.2214L67.2126 93.4878L66.225 93.6467L65.2294 91.762L62.5974 92.1853L62.1977 94.2944L61.2735 94.4431L62.7084 87.3853ZM69.7372 86.0689C70.5798 85.9334 71.2694 86.0502 71.8059 86.4193C72.3424 86.7885 72.6817 87.2513 72.8239 87.8078L71.945 87.9492C71.7764 87.5363 71.5224 87.2286 71.1831 87.0261C70.8468 86.823 70.4099 86.7647 69.8723 86.8512C69.2169 86.9566 68.7241 87.2729 68.3937 87.8C68.0659 88.3237 67.9785 89.0612 68.1315 90.0125C68.2568 90.7917 68.5398 91.3953 68.9804 91.8232C69.4235 92.2477 70.006 92.4018 70.7278 92.2857C71.3922 92.1789 71.8571 91.8423 72.1223 91.276C72.2633 90.9776 72.3439 90.6022 72.364 90.1497L73.2429 90.0083C73.2771 90.7216 73.1118 91.3508 72.7471 91.8959C72.3104 92.5517 71.6436 92.9517 70.7466 93.096C69.9735 93.2204 69.2865 93.0907 68.6857 92.7071C67.8945 92.1993 67.395 91.299 67.1871 90.0064C67.0292 89.0249 67.1595 88.1782 67.5779 87.4665C68.0298 86.6936 68.7496 86.2278 69.7372 86.0689ZM78.5095 84.8438L78.637 85.6366L76.3946 85.9973L77.3375 91.8593L76.4224 92.0065L75.4795 86.1445L73.2371 86.5052L73.1096 85.7124L78.5095 84.8438Z" fill="#F1F1F2"/>
<path d="M71.15 126.84C70.2484 126.473 67.641 126.928 66.8816 127.477C66.5738 128.622 66.8864 130.05 67.4754 131.17C68.7341 131.392 70.5328 130.998 71.6883 130.492C71.8952 129.269 71.7704 127.993 71.15 126.84Z" fill="white"/>
<path d="M68.0234 128.676L68.1033 129.172L68.4694 129.113L68.4928 129.259L68.1267 129.318L68.1482 129.452L68.6229 129.376L68.6463 129.522L68.0245 129.622L67.8525 128.554L68.4744 128.453L68.4978 128.599L68.0234 128.676Z" fill="#14130F"/>
<path d="M69.2777 128.473L69.0149 128.516L69.1631 129.438L69.0146 129.462L68.8664 128.539L68.6033 128.582L68.5798 128.435L69.2543 128.327L69.2777 128.473Z" fill="#14130F"/>
<path d="M69.3589 128.31L69.5046 128.286L69.6774 129.355L69.5316 129.379L69.3589 128.31Z" fill="#14130F"/>
<path d="M70.4577 128.384C70.4192 128.358 70.377 128.339 70.3307 128.328C70.2781 128.315 70.2247 128.313 70.1707 128.322C70.1167 128.33 70.0671 128.349 70.0205 128.377C69.9764 128.405 69.9384 128.441 69.9073 128.484C69.8764 128.526 69.8549 128.572 69.842 128.623C69.8296 128.676 69.8274 128.728 69.8359 128.782C69.8445 128.835 69.8635 128.885 69.8918 128.932C69.9197 128.975 69.9547 129.013 69.9974 129.043C70.0401 129.074 70.0875 129.096 70.1379 129.108C70.1913 129.121 70.2442 129.123 70.2979 129.114C70.3519 129.106 70.4024 129.087 70.4484 129.059C70.488 129.033 70.5222 129.002 70.5514 128.966L70.6658 129.048C70.6255 129.099 70.5776 129.142 70.5228 129.177C70.4608 129.215 70.3933 129.241 70.3203 129.253C70.2481 129.264 70.1753 129.261 70.104 129.244C70.0357 129.227 69.9726 129.199 69.9147 129.158C69.8574 129.116 69.81 129.065 69.7723 129.006C69.734 128.944 69.7084 128.877 69.6965 128.804C69.6849 128.732 69.6882 128.66 69.7053 128.59C69.7227 128.521 69.7516 128.458 69.7929 128.401C69.8348 128.344 69.8861 128.296 69.9456 128.26C70.0081 128.221 70.0762 128.196 70.1483 128.184C70.2214 128.172 70.2933 128.175 70.3643 128.192C70.428 128.207 70.4869 128.233 70.5407 128.27L70.4577 128.384Z" fill="#14130F"/>
<path fill-rule="evenodd" clip-rule="evenodd" d="M66.3528 125.977C66.0527 125.855 65.1852 126.006 64.9326 126.189C64.8299 126.569 64.9339 127.043 65.1298 127.415C65.5485 127.488 66.1471 127.358 66.5316 127.189C66.6006 126.783 66.5592 126.359 66.3528 125.977Z" fill="white"/>
<path fill-rule="evenodd" clip-rule="evenodd" d="M72.6121 125.944C72.4321 125.87 71.9126 125.961 71.7612 126.071C71.7001 126.301 71.7628 126.588 71.8806 126.813C72.1314 126.857 72.4901 126.779 72.7204 126.678C72.7611 126.432 72.7359 126.176 72.6121 125.944Z" fill="white"/>
<path fill-rule="evenodd" clip-rule="evenodd" d="M67.3059 131.43C67.1878 131.38 66.8472 131.44 66.748 131.513C66.7085 131.666 66.75 131.857 66.8276 132.007C66.9923 132.037 67.2273 131.985 67.378 131.918C67.4046 131.755 67.3875 131.584 67.3059 131.43Z" fill="white"/>
<path fill-rule="evenodd" clip-rule="evenodd" d="M72.0487 130.112C71.889 130.045 71.4295 130.125 71.2957 130.225C71.2427 130.432 71.299 130.693 71.404 130.897C71.6264 130.939 71.9435 130.869 72.1471 130.778C72.1824 130.555 72.1592 130.323 72.0487 130.112Z" fill="white"/>
</svg>
