<svg width="170" height="180" viewBox="0 0 170 180" fill="none" xmlns="http://www.w3.org/2000/svg">
<path d="M66.6123 89.0097L62.0845 70.6131L93.136 62.9706L97.6638 81.3672L66.6123 89.0097Z" fill="#F3C951" stroke="black" stroke-width="0.620266" stroke-miterlimit="10"/>
<path d="M86.3816 28.8745L52.2422 37.2772C47.5443 38.4334 44.6464 43.2232 45.8027 47.9213L52.2275 74.0242C53.3837 78.7222 58.1734 81.6201 62.8716 80.4638L97.011 72.0611C101.709 70.9049 104.607 66.1149 103.45 61.417L97.0258 35.314C95.8695 30.6159 91.0795 27.7183 86.3816 28.8745Z" fill="#F3C951" stroke="black" stroke-width="0.496212" stroke-miterlimit="10"/>
<path d="M142.696 95.7521C140.766 93.5827 139.137 91.768 137.925 90.4227C134.426 86.5396 133.11 85.1351 131.53 83.5557C129.553 81.5797 128.564 80.5919 127.405 79.7275C125.229 78.1056 122.761 76.3157 119.336 76.1786C118.806 76.1574 117.231 76.1348 115.325 76.7506C113.56 77.3209 112.291 78.1865 111.538 78.7899C119.656 95.4725 127.775 112.155 135.894 128.838C136.097 127.719 136.61 125.775 138.084 123.91C139.607 121.982 141.355 121.154 143.216 120.272C145.067 119.395 147.549 118.219 150.793 118.529C152.34 118.677 153.565 119.115 154.341 119.454C150.46 111.554 146.578 103.653 142.696 95.7521Z" fill="#231F20" stroke="black" stroke-width="0.488915" stroke-miterlimit="10"/>
<path d="M136.033 128.943C136.223 127.773 136.702 125.828 138.084 123.91C140.484 120.577 143.933 119.645 146.446 118.966C148.549 118.398 151.274 117.702 153.514 119.129C153.994 119.435 154.339 119.766 154.558 120.003C154.021 121.274 152.889 123.453 150.623 125.259C148.693 126.798 146.838 127.351 144.78 127.942C142.855 128.495 139.852 129.118 136.033 128.943Z" fill="#111010" stroke="black" stroke-width="0.488915" stroke-miterlimit="10"/>
<path d="M164.397 136.328C162.549 129.406 154.815 126.641 153.659 126.247C152.989 124.371 152.319 122.495 151.649 120.619C150.326 120.472 147.025 120.288 143.522 122.12C140.983 123.448 139.448 125.254 138.68 126.311C139.491 128.147 140.303 129.983 141.114 131.82C138.876 134.922 137.989 138.91 138.983 142.583C140.281 147.38 144.631 151.064 150.031 151.93C149.673 150.372 149.237 149.172 148.923 148.398C147.836 145.721 146.783 144.6 146.388 142.205C146.227 141.228 146.237 140.415 146.264 139.924C146.298 139.511 146.565 136.806 148.856 135.225C151.417 133.458 154.376 134.565 154.861 134.747C157.312 135.664 158.519 137.722 160.152 140.504C161.543 142.876 162.306 145.023 162.732 146.479C163.407 145.404 164.574 143.219 164.756 140.247C164.868 138.666 164.671 137.352 164.397 136.328Z" fill="#F3C951"/>
<path d="M164.397 136.328C162.549 129.406 154.815 126.641 153.659 126.247C152.989 124.371 152.319 122.495 151.649 120.619C150.326 120.472 147.025 120.288 143.522 122.12C140.983 123.448 139.448 125.254 138.68 126.311C139.491 128.147 140.303 129.983 141.114 131.82C138.876 134.922 137.989 138.91 138.983 142.583C140.281 147.38 144.631 151.064 150.031 151.93C149.673 150.372 149.237 149.172 148.923 148.398C147.836 145.721 146.783 144.6 146.388 142.205C146.227 141.228 146.237 140.415 146.264 139.924C146.298 139.511 146.565 136.806 148.856 135.225C151.417 133.458 154.376 134.565 154.861 134.747C157.312 135.664 158.519 137.722 160.152 140.504C161.543 142.876 162.306 145.023 162.732 146.479C163.407 145.404 164.574 143.219 164.756 140.247C164.868 138.666 164.671 137.352 164.397 136.328Z" stroke="black" stroke-width="0.498645" stroke-miterlimit="10"/>
<path d="M149.703 131.219C144.918 132.503 143.172 137.895 143.893 140.823C144.015 141.318 144.294 142.142 144.787 143.002C145.79 144.748 147.15 145.754 147.942 146.25C147.716 145.795 147.49 145.34 147.264 144.885C147.015 144.384 146.796 143.874 146.585 143.273C146.585 143.273 146.222 142.242 146.075 141.278C145.81 139.549 147.192 134.828 150.766 133.938C154.539 132.999 157.77 137.077 158.731 138.291C159.249 138.944 159.619 139.553 159.876 140.028C159.907 139.768 159.939 139.389 159.929 138.93C159.929 138.93 159.891 137.207 159.103 135.573C158.186 133.672 154.392 129.962 149.703 131.219Z" fill="#F3C951"/>
<path d="M149.703 131.219C144.918 132.503 143.172 137.895 143.893 140.823C144.015 141.318 144.294 142.142 144.787 143.002C145.79 144.748 147.15 145.754 147.942 146.25C147.716 145.795 147.49 145.34 147.264 144.885C147.015 144.384 146.796 143.874 146.585 143.273C146.585 143.273 146.222 142.242 146.075 141.278C145.81 139.549 147.192 134.828 150.766 133.938C154.539 132.999 157.77 137.077 158.731 138.291C159.249 138.944 159.619 139.553 159.876 140.028C159.907 139.768 159.939 139.389 159.929 138.93C159.929 138.93 159.891 137.207 159.103 135.573C158.186 133.672 154.392 129.962 149.703 131.219Z" stroke="black" stroke-width="0.498645" stroke-miterlimit="10"/>
<path d="M48.8263 93.1174C46.8521 93.4566 45.4678 94.2075 45.0084 94.4722C42.0378 96.1837 40.683 98.9142 39.5083 101.361C38.8825 102.665 38.4653 103.999 37.6313 106.666C36.9647 108.799 36.4511 110.653 35.1542 115.717C34.7048 117.471 34.104 119.835 33.4017 122.652C33.6301 131.452 33.8588 140.252 34.0874 149.052C34.6182 148.391 35.4995 147.434 36.8012 146.585C39.5304 144.805 42.2754 144.695 44.3218 144.612C46.3791 144.53 48.312 144.452 50.5559 145.453C52.7269 146.42 54.0839 147.904 54.7823 148.801C54.2309 130.256 53.6794 111.711 53.1279 93.1656C52.1799 92.981 50.6549 92.8031 48.8263 93.1174Z" fill="#231F20"/>
<path d="M48.8263 93.1174C46.8521 93.4566 45.4678 94.2075 45.0084 94.4722C42.0378 96.1837 40.683 98.9142 39.5083 101.361C38.8825 102.665 38.4653 103.999 37.6313 106.666C36.9647 108.799 36.4511 110.653 35.1542 115.717C34.7048 117.471 34.104 119.835 33.4017 122.652C33.6301 131.452 33.8588 140.252 34.0874 149.052C34.6182 148.391 35.4995 147.434 36.8012 146.585C39.5304 144.805 42.2754 144.695 44.3218 144.612C46.3791 144.53 48.312 144.452 50.5559 145.453C52.7269 146.42 54.0839 147.904 54.7823 148.801C54.2309 130.256 53.6794 111.711 53.1279 93.1656C52.1799 92.981 50.6549 92.8031 48.8263 93.1174Z" stroke="black" stroke-width="0.488915" stroke-miterlimit="10"/>
<path d="M54.3806 148.529C53.6663 147.659 52.4296 146.387 50.5559 145.453C46.8542 143.607 43.3186 144.401 40.8541 144.955C38.7019 145.438 35.9954 146.087 34.6691 148.38C34.3888 148.865 34.2339 149.313 34.1443 149.634C35.1745 150.484 37.1912 151.907 40.0746 152.468C42.6844 152.976 44.7387 152.532 46.4959 152.133C48.2873 151.726 51.2291 150.808 54.3806 148.529Z" fill="#111010" stroke="black" stroke-width="0.488915" stroke-miterlimit="10"/>
<path d="M51.5429 153.865C51.4093 151.862 51.2754 149.859 51.1418 147.856C49.9709 147.277 47.7736 146.389 44.9084 146.391C40.955 146.394 38.1163 148.09 37.0128 148.834C37.2901 150.807 37.5673 152.78 37.8446 154.752C37.0033 155.638 31.436 161.676 33.0119 168.665C33.2451 169.699 33.6797 170.955 34.5131 172.303C36.0537 174.851 38.1011 176.245 39.1981 176.884C38.9004 175.397 38.5794 173.141 38.7111 170.394C38.8654 167.172 38.9796 164.788 40.7248 162.838C41.0703 162.453 43.1776 160.098 46.2659 160.475C49.029 160.812 50.5208 163.084 50.7429 163.434C50.9944 163.856 51.381 164.572 51.6919 165.512C52.4534 167.817 52.0402 169.299 52.3208 172.174C52.4021 173.006 52.572 174.271 52.9783 175.817C57.3596 172.544 59.5026 167.262 58.4263 162.41C57.602 158.695 54.9651 155.574 51.5429 153.865Z" fill="#F3C951" stroke="black" stroke-width="0.498645" stroke-miterlimit="10"/>
<path d="M43.6561 157.32C38.9189 158.382 37.2802 163.43 37.3507 165.539C37.4111 167.353 38.1771 168.897 38.1771 168.897C38.3808 169.307 38.5859 169.629 38.7338 169.844C38.7409 169.304 38.7861 168.593 38.9413 167.774C39.2297 166.252 40.1981 161.142 43.9765 160.222C47.555 159.351 50.9698 162.891 51.5385 164.546C51.8553 165.468 52.0129 166.55 52.0129 166.55C52.1045 167.18 52.1468 167.733 52.1591 168.293C52.1701 168.801 52.1812 169.308 52.1924 169.816C52.6634 169.009 53.4015 167.487 53.4789 165.475C53.5169 164.485 53.3815 163.625 53.2596 163.13C52.5391 160.202 48.4904 156.236 43.6561 157.32Z" fill="#F3C951"/>
<path d="M43.6561 157.32C38.9189 158.382 37.2802 163.43 37.3507 165.539C37.4111 167.353 38.1771 168.897 38.1771 168.897C38.3808 169.307 38.5859 169.629 38.7338 169.844C38.7409 169.304 38.7861 168.593 38.9413 167.774C39.2297 166.252 40.1981 161.142 43.9765 160.222C47.555 159.351 50.9698 162.891 51.5385 164.546C51.8553 165.468 52.0129 166.55 52.0129 166.55C52.1045 167.18 52.1468 167.733 52.1591 168.293C52.1701 168.801 52.1812 169.308 52.1924 169.816C52.6634 169.009 53.4015 167.487 53.4789 165.475C53.5169 164.485 53.3815 163.625 53.2596 163.13C52.5391 160.202 48.4904 156.236 43.6561 157.32Z" stroke="black" stroke-width="0.498645" stroke-miterlimit="10"/>
<path d="M111.71 77.4558C111.432 76.9995 110.648 75.8594 109.071 75.1385C107.505 74.4226 106.055 74.5309 105.49 74.6008L55.8097 86.8286C55.3489 87.0263 54.3793 87.5134 53.608 88.5313C52.5742 89.8959 52.5841 91.3069 52.6057 91.745L54.6796 153.411L137.654 132.988L111.71 77.4558Z" fill="#231F20" stroke="black" stroke-width="0.620266" stroke-miterlimit="10"/>
<path d="M58.7492 152.395C59.4266 155.147 60.1039 157.899 60.7815 160.651C85.881 154.474 110.981 148.296 136.08 142.119C135.403 139.366 134.725 136.614 134.048 133.862C108.948 140.039 83.8487 146.217 58.7492 152.395Z" fill="#939598" stroke="black" stroke-width="0.620266" stroke-miterlimit="10"/>
<path d="M60.8249 160.829L95.1677 152.377L102.571 182.455L68.2278 190.907L60.8249 160.829Z" fill="#036CB6" stroke="black" stroke-width="0.693238" stroke-miterlimit="10"/>
<path d="M101.58 150.799L135.923 142.346L143.326 172.424L108.983 180.876L101.58 150.799Z" fill="#036CB6" stroke="black" stroke-width="0.693238" stroke-miterlimit="10"/>
<path d="M108.983 180.876L143.326 172.424L150.729 202.502L116.386 210.954L108.983 180.876Z" fill="#036CB6" stroke="black" stroke-width="0.693238" stroke-miterlimit="10"/>
<path d="M103.098 150.367C99.9274 151.134 96.7572 151.902 93.587 152.669C96.1396 162.79 98.6921 172.911 101.245 183.032C101.751 185.718 104.33 187.467 106.855 187.016C109.533 186.537 111.377 183.721 110.645 180.912C108.129 170.73 105.613 160.549 103.098 150.367Z" fill="#036CB6" stroke="black" stroke-width="0.693238" stroke-miterlimit="10"/>
<path d="M103.679 38.4078C101.34 30.6482 100.187 26.7553 98.0286 24.0993C93.1308 18.0717 86.7627 16.2021 84.7739 15.6535C79.5287 14.2071 75.3707 14.7982 70.0269 15.5581C61.9072 16.7123 56.3338 19.3521 54.5102 20.264C50.035 22.5016 46.0439 24.5614 43.3652 29.0383C42.0003 31.3198 41.3624 33.5829 40.8987 35.2282C40.5787 36.3641 39.6139 40.0335 39.6928 45.1094C39.7319 47.6278 39.8603 52.7113 42.3598 58.467C44.443 63.2643 48.2384 68.6783 49.9108 68.0814C50.7737 67.7733 50.8829 65.932 51.056 63.0147C51.1856 60.8329 50.999 58.1758 50.8295 55.7616C50.8056 55.4205 50.8068 55.4542 50.803 55.3838C50.7348 54.1246 50.7688 50.8722 53.0684 49.0018C54.5432 47.8024 56.3007 47.9563 58.3152 47.9764C58.3152 47.9764 63.2338 48.0253 73.0496 45.8577C75.6225 45.2896 79.3667 44.1854 83.7594 41.8026C85.2315 40.7365 87.7533 39.1982 91.2246 38.4482C93.1714 38.0275 94.1449 37.8171 94.9984 38.2697C97.4252 39.5565 95.9761 43.7028 98.843 49.0783C99.367 50.0604 100.993 53.1087 102.444 52.868C103.949 52.6181 104.478 48.9582 104.635 47.8702C105.225 43.7892 104.303 40.4781 103.679 38.4078Z" fill="#3C2415"/>
<path d="M103.679 38.4078C101.34 30.6482 100.187 26.7553 98.0286 24.0993C93.1308 18.0717 86.7627 16.2021 84.7739 15.6535C79.5287 14.2071 75.3707 14.7982 70.0269 15.5581C61.9072 16.7123 56.3338 19.3521 54.5102 20.264C50.035 22.5016 46.0439 24.5614 43.3652 29.0383C42.0003 31.3198 41.3624 33.5829 40.8987 35.2282C40.5787 36.3641 39.6139 40.0335 39.6928 45.1094C39.7319 47.6278 39.8603 52.7113 42.3598 58.467C44.443 63.2643 48.2384 68.6783 49.9108 68.0814C50.7737 67.7733 50.8829 65.932 51.056 63.0147C51.1856 60.8329 50.999 58.1758 50.8295 55.7616C50.8056 55.4205 50.8068 55.4542 50.803 55.3838C50.7348 54.1246 50.7688 50.8722 53.0684 49.0018C54.5432 47.8024 56.3007 47.9563 58.3152 47.9764C58.3152 47.9764 63.2338 48.0253 73.0496 45.8577C75.6225 45.2896 79.3667 44.1854 83.7594 41.8026C85.2315 40.7365 87.7533 39.1982 91.2246 38.4482C93.1714 38.0275 94.1449 37.8171 94.9984 38.2697C97.4252 39.5565 95.9761 43.7028 98.843 49.0783C99.367 50.0604 100.993 53.1087 102.444 52.868C103.949 52.6181 104.478 48.9582 104.635 47.8702C105.225 43.7892 104.303 40.4781 103.679 38.4078Z" stroke="black" stroke-width="0.520537" stroke-miterlimit="10"/>
<path d="M46.0614 43.2178C52.4279 43.3314 58.8077 42.4752 64.9197 40.6904C67.9884 39.7944 70.9916 38.6657 73.8896 37.3153C76.7626 35.9767 79.4974 34.3728 82.308 32.9127C85.4611 31.2749 88.75 29.8273 92.2907 29.3043C92.7039 29.2433 92.5535 28.6115 92.1425 28.6722C85.8438 29.6026 80.5077 33.3306 74.9205 36.1C69.2155 38.9279 63.0746 40.8589 56.7842 41.8393C53.2468 42.3907 49.6658 42.6326 46.0866 42.5688C45.6686 42.5614 45.6432 43.2105 46.0614 43.2178Z" fill="black"/>
<path d="M44.6852 35.1663C47.7613 35.3494 50.8583 35.2063 53.8954 34.6737C56.4264 34.2299 58.8864 33.4972 61.2705 32.5414C64.5458 31.2284 67.655 29.5397 70.7226 27.8057C72.1833 26.9798 73.629 26.127 75.0938 25.309C76.3609 24.6012 77.6628 23.9685 79.0507 23.5343C82.1611 22.561 85.4633 22.3938 88.6792 22.8534C89.093 22.9125 89.1138 22.263 88.7041 22.2045C85.9142 21.8056 83.0572 21.8779 80.3081 22.52C78.8415 22.8628 77.4258 23.3758 76.0786 24.0488C74.6805 24.7473 73.3433 25.5662 71.9865 26.3402C66.5545 29.4388 61.0119 32.5531 54.8274 33.8349C51.503 34.5241 48.0966 34.7188 44.7104 34.5173C44.2923 34.4924 44.2684 35.1414 44.6852 35.1663Z" fill="black"/>
<path d="M61.2034 53.4989C63.7423 51.5659 66.6317 50.2758 69.8034 49.8336C70.3173 49.762 70.13 48.9772 69.6192 49.0483C67.9857 49.2761 66.393 49.7259 64.8773 50.3758C63.3495 51.031 61.9673 51.9094 60.6479 52.9139C60.2356 53.2278 60.7934 53.811 61.2034 53.4989Z" fill="#231F20"/>
<path d="M85.736 47.0405C82.4905 46.4899 79.2112 46.678 76.0987 47.7934C75.6157 47.9667 75.7943 48.7538 76.2829 48.5787C77.7814 48.0418 79.351 47.6916 80.9394 47.5728C82.5422 47.4527 84.1238 47.5786 85.7047 47.8469C85.9212 47.8835 86.1138 47.6565 86.1235 47.4593C86.1354 47.2182 85.9496 47.0769 85.736 47.0405Z" fill="#231F20"/>
<path d="M71.0127 56.6035C71.3886 58.1305 70.4552 59.6733 68.928 60.0493C67.4011 60.4251 65.8582 59.4918 65.4823 57.9648C65.1064 56.4376 66.0398 54.8949 67.5667 54.5188C69.094 54.1429 70.6367 55.0766 71.0127 56.6035Z" fill="black"/>
<path d="M69.4941 55.963C69.6483 56.5897 69.2654 57.223 68.6385 57.3773C68.0119 57.5315 67.3788 57.1483 67.2245 56.5217C67.0703 55.8951 67.4532 55.2617 68.0798 55.1075C68.7067 54.9532 69.3399 55.3364 69.4941 55.963Z" fill="#F1F2F2"/>
<path d="M83.9387 53.4222C84.3146 54.9492 83.381 56.4921 81.8541 56.8682C80.327 57.2438 78.7841 56.3105 78.4083 54.7835C78.0324 53.2563 78.9658 51.7137 80.4927 51.3376C82.0199 50.9616 83.5626 51.8953 83.9387 53.4222Z" fill="black"/>
<path d="M82.3296 52.8903C82.4959 53.5658 82.0832 54.2483 81.4076 54.4143C80.7319 54.5807 80.0494 54.168 79.8834 53.4924C79.717 52.8167 80.1297 52.1342 80.8053 51.9682C81.481 51.8018 82.1635 52.2145 82.3296 52.8903Z" fill="#F1F2F2"/>
<path d="M83.8164 61.8083C79.7423 65.236 75.0099 65.9396 70.1051 66.3182C70.828 68.1486 72.1369 68.8919 73.8184 68.9879C76.6605 69.1502 79.3058 68.4107 81.7431 66.9683C82.36 66.603 82.8763 66.0678 83.439 65.6108C83.3841 65.508 83.329 65.4053 83.2739 65.3025C82.671 65.302 82.0682 65.3015 81.3978 65.3011C82.2244 64.1918 84.0199 63.9632 83.8164 61.8083ZM82.8344 59.0523C84.7977 58.601 85.4617 58.9369 86.4416 60.9884C85.9918 60.9478 85.6245 60.9145 85.2169 60.8777C85.1723 60.9943 85.0828 61.12 85.0837 61.245C85.087 61.8631 85.075 62.485 85.1403 63.098C85.3899 65.4442 84.4251 67.1926 82.458 68.3671C79.6867 70.0218 76.6862 70.7756 73.4367 70.4646C70.9918 70.2306 69.6495 68.6107 68.6731 66.6341C68.0691 65.4119 68.6637 64.8344 70.0452 64.8372C74.6324 64.8459 78.9344 63.888 82.4856 60.7489C82.8303 60.4442 82.9183 59.8486 83.1256 59.3883C83.0284 59.2764 82.9314 59.1645 82.8344 59.0523Z" fill="black"/>
<path d="M83.8166 61.8084C84.02 63.9633 82.2245 64.1918 81.3979 65.3012C82.0684 65.3015 82.6711 65.3021 83.2741 65.3025C83.3292 65.4053 83.3843 65.508 83.4391 65.6108C82.8765 66.0679 82.3602 66.603 81.7433 66.9683C79.3059 68.4108 76.6606 69.1502 73.8186 68.9879C72.1371 68.8919 70.8282 68.1486 70.1052 66.3182C75.0101 65.9397 79.7424 65.236 83.8166 61.8084Z" fill="white"/>
<path d="M69.8724 96.8337L67.7709 93.6408L68.1976 93.5358L69.902 96.1844L70.1403 93.0471L70.4628 92.9678L72.1299 95.636L72.4103 92.4989L72.8222 92.3976L72.4427 96.2011L72.1102 96.2829L70.4638 93.699L70.1999 96.7531L69.8724 96.8337ZM74.3887 95.6958L73.5338 92.2224L76.0445 91.6045L76.1325 91.9617L74.0137 92.4832L74.3056 93.6691L76.2011 93.2026L76.289 93.5598L74.3935 94.0264L74.6928 95.242L76.8363 94.7144L76.9242 95.0717L74.3887 95.6958ZM78.9027 94.5847L79.6245 90.697L79.9917 90.6066L82.4356 93.7152L82.0138 93.819L81.381 93.0012L79.4905 93.4665L79.3046 94.4858L78.9027 94.5847ZM79.5576 93.0763L81.1405 92.6867L79.9155 91.1095L79.5576 93.0763ZM84.5195 93.2654C84.02 93.3884 83.5625 93.3185 83.147 93.0559C82.7307 92.79 82.4603 92.404 82.3357 91.8979C82.2128 91.3984 82.2756 90.9338 82.5242 90.5043C82.772 90.0714 83.1473 89.7931 83.6502 89.6693C83.9413 89.5977 84.2012 89.5846 84.4299 89.63C84.6578 89.6722 84.8921 89.7618 85.1328 89.8991L84.9432 90.2404C84.5309 90.0051 84.128 89.9359 83.7343 90.0328C83.3506 90.1272 83.0635 90.3435 82.8731 90.6815C82.686 91.0188 82.6425 91.3909 82.7426 91.7977C82.8419 92.2013 83.0548 92.5103 83.3812 92.7246C83.7068 92.9357 84.0598 92.9944 84.4402 92.9008C84.6652 92.8454 84.8535 92.7552 85.0051 92.6302C85.1568 92.5051 85.3012 92.3363 85.4383 92.1236L85.7635 92.333C85.6164 92.5762 85.4475 92.7739 85.2569 92.926C85.0663 93.0782 84.8205 93.1913 84.5195 93.2654ZM87.4983 92.4691L86.7325 89.358L85.5665 89.645L85.4773 89.2828L88.2064 88.6111L88.2955 88.9733L87.1295 89.2603L87.8952 92.3714L87.4983 92.4691ZM91.2854 91.537L90.4305 88.0636L92.9264 87.4493L93.0155 87.8115L90.9117 88.3294L91.217 89.5698L93.0975 89.107L93.1855 89.4642L91.3049 89.9271L91.6774 91.4405L91.2854 91.537ZM97.242 89.5762C96.9942 90.0091 96.6123 90.289 96.0963 90.416C95.5802 90.543 95.1137 90.4719 94.6966 90.2027C94.2795 89.9335 94.0098 89.5508 93.8877 89.0546C93.7664 88.5617 93.8296 88.0988 94.0774 87.6659C94.3244 87.2298 94.7059 86.9482 95.222 86.8211C95.738 86.6941 96.2046 86.7652 96.6217 87.0345C97.0388 87.3037 97.3084 87.6864 97.4305 88.1826C97.5518 88.6755 97.489 89.14 97.242 89.5762ZM94.932 89.8764C95.2617 90.0899 95.6234 90.1482 96.017 90.0514C96.4107 89.9545 96.7011 89.7374 96.8882 89.4001C97.0778 89.0588 97.123 88.6863 97.0237 88.2827C96.9251 87.8825 96.711 87.5756 96.3813 87.362C96.0549 87.1477 95.6949 87.0889 95.3012 87.1858C94.9076 87.2827 94.6159 87.5018 94.4263 87.8432C94.2392 88.1805 94.1953 88.5509 94.2946 88.9544C94.3931 89.3547 94.6056 89.662 94.932 89.8764ZM98.6847 89.7158L97.8298 86.2424L99.3233 85.8748C99.7501 85.7698 100.108 85.8046 100.396 85.9791C100.619 86.1138 100.765 86.3234 100.835 86.6078C100.904 86.8857 100.873 87.1318 100.743 87.3462C100.614 87.5605 100.413 87.7292 100.142 87.8521L101.558 89.0087L101.076 89.1271L99.7369 88.0254L98.7445 88.2697L99.0767 89.6193L98.6847 89.7158ZM98.6578 87.9174L99.7246 87.6548C99.9892 87.5896 100.188 87.4722 100.322 87.3025C100.456 87.1328 100.495 86.9355 100.439 86.7105C100.387 86.4955 100.266 86.348 100.078 86.268C99.8923 86.1839 99.6606 86.176 99.3827 86.2444L98.3109 86.5082L98.6578 87.9174Z" fill="#F1F1F2"/>
<path d="M70.6769 104.112L69.1944 98.0888L69.8741 97.9215L71.3566 103.945L70.6769 104.112ZM73.1207 103.51L71.6382 97.4873L72.3265 97.3178L75.3297 100.065L76.7148 96.2377L77.4032 96.0683L78.8857 102.091L78.2059 102.259L77.0051 97.38L75.6051 101.147L75.5707 101.155L72.5845 98.4772L73.7832 103.347L73.1207 103.51ZM80.5908 101.672L79.1083 95.6486L81.3627 95.0938C82.051 94.9243 82.6412 94.9616 83.1332 95.2055C83.6252 95.4495 83.9446 95.8697 84.0914 96.4663C84.2453 97.0916 84.138 97.6321 83.7696 98.0878C83.4069 98.5421 82.8871 98.8525 82.2102 99.0191L80.7474 99.3792L81.2705 101.504L80.5908 101.672ZM80.5949 98.7596L82.0835 98.3933C82.5826 98.2704 82.9516 98.0518 83.1906 97.7375C83.4339 97.416 83.5054 97.0516 83.4052 96.6443C83.3021 96.2256 83.0768 95.9404 82.7292 95.7886C82.3859 95.6298 81.9647 95.6118 81.4656 95.7346L79.9426 96.1095L80.5949 98.7596ZM85.217 100.533L86.4688 93.7914L87.1055 93.6347L91.3434 99.0252L90.612 99.2052L89.5147 97.7871L86.2364 98.594L85.914 100.362L85.217 100.533ZM86.3527 97.9174L89.0976 97.2418L86.9734 94.5067L86.3527 97.9174ZM94.9571 98.2453C94.0909 98.4585 93.2976 98.3374 92.5771 97.882C91.8552 97.4209 91.3863 96.7515 91.1703 95.8738C90.9571 95.0076 91.066 94.2021 91.4972 93.4572C91.9269 92.7065 92.5777 92.2239 93.4496 92.0093C93.9544 91.8851 94.4051 91.8623 94.8017 91.9412C95.1969 92.0142 95.6032 92.1697 96.0207 92.4077L95.6919 92.9996C94.977 92.5916 94.2782 92.4715 93.5956 92.6395C92.9302 92.8033 92.4324 93.1783 92.1021 93.7646C91.7776 94.3494 91.7022 94.9946 91.8758 95.7002C92.0481 96.4 92.4172 96.9358 92.9833 97.3075C93.5479 97.6735 94.16 97.7753 94.8197 97.6129C95.2098 97.5169 95.5363 97.3605 95.7993 97.1437C96.0623 96.9269 96.3127 96.634 96.5504 96.2653L97.1143 96.6284C96.8592 97.0501 96.5664 97.3929 96.2359 97.6568C95.9054 97.9206 95.4791 98.1168 94.9571 98.2453ZM100.123 96.8644L98.7947 91.4694L96.7727 91.9671L96.6181 91.3389L101.351 90.1741L101.505 90.8023L99.4831 91.3L100.811 96.695L100.123 96.8644Z" fill="#F1F1F2"/>
<path d="M77.1366 132.696C76.6425 130.688 76.1482 128.68 75.6541 126.672C76.272 126.897 76.9248 127.085 77.5685 127.22C77.9856 128.914 78.4029 130.609 78.8199 132.304C78.1467 132.462 77.8102 132.54 77.1366 132.696Z" stroke="#F9A31A" stroke-width="0.0583779" stroke-miterlimit="10"/>
<path d="M79.9241 132.043C79.5457 130.506 79.1673 128.968 78.7888 127.431C79.411 127.515 80.0601 127.555 80.6881 127.547C81.2924 128.069 81.9221 128.563 82.5756 129.022C82.9536 128.439 83.3209 127.842 83.6598 127.235C84.3729 127.092 84.7249 127.001 85.4217 126.793C85.7253 128.026 86.029 129.26 86.3326 130.494C85.6684 130.657 85.3362 130.738 84.6715 130.901C84.5067 130.231 84.3419 129.562 84.1771 128.893C83.7858 129.479 83.378 130.055 82.9714 130.631C82.9577 130.634 82.9507 130.635 82.9367 130.638C82.2665 130.238 81.637 129.824 81.0004 129.371C81.1876 130.132 81.3748 130.892 81.5622 131.653C80.9072 131.81 80.5795 131.888 79.9241 132.043Z" stroke="#F9A31A" stroke-width="0.0583779" stroke-miterlimit="10"/>
<path d="M88.5852 127.853C88.8848 127.707 89.0345 127.632 89.3333 127.482C89.6095 127.343 89.8155 127.179 89.9496 126.982C90.0837 126.786 90.1261 126.587 90.0777 126.39C90.0763 126.384 90.0754 126.381 90.0741 126.376C90.0222 126.165 89.9038 126.049 89.7212 126.035C89.5383 126.022 89.3077 126.104 89.0274 126.276C88.7389 126.453 88.5943 126.541 88.3043 126.713C88.4204 127.184 88.4767 127.412 88.5852 127.853ZM87.3997 130.231C87.0896 128.971 86.7796 127.711 86.4695 126.451C87.3667 126.218 88.1206 125.592 88.8689 125.076C89.3927 124.752 89.9885 124.33 90.6393 124.39C91.125 124.434 91.454 124.789 91.6036 125.396C91.6053 125.403 91.606 125.406 91.6075 125.412C91.7635 126.046 91.6532 126.66 91.2881 127.193C90.8771 127.792 90.2354 128.109 89.5996 128.415C89.2807 128.543 89.1212 128.607 88.8017 128.733C88.9121 129.182 88.9652 129.398 89.0669 129.811C88.4009 129.982 88.0673 130.066 87.3997 130.231Z" stroke="#F9A31A" stroke-width="0.0583779" stroke-miterlimit="10"/>
<path d="M94.13 125.761C94.6433 125.518 94.8999 125.396 95.4139 125.156C95.055 124.61 94.6845 124.07 94.304 123.539C94.2503 124.28 94.1927 125.021 94.13 125.761ZM92.0966 129.032C92.5988 126.684 92.8391 124.288 93.0611 121.9C93.6362 121.463 93.924 121.246 94.5021 120.821C96.0929 122.881 97.4923 125.065 98.8173 127.304C98.103 127.486 97.746 127.578 97.0317 127.762C96.7195 127.25 96.5661 127.005 96.2639 126.533C95.5081 126.8 94.7531 127.07 93.9987 127.341C93.942 127.852 93.9118 128.101 93.8476 128.581C93.1472 128.762 92.7971 128.852 92.0966 129.032Z" stroke="#F9A31A" stroke-width="0.0583779" stroke-miterlimit="10"/>
<path d="M101.958 126.715C100.965 126.96 100.161 126.523 99.4346 125.956C98.5934 125.3 98.0549 124.207 97.7865 123.153C97.7843 123.144 97.7832 123.139 97.7808 123.13C97.531 122.069 97.5158 120.847 97.9339 119.84C98.2863 118.991 98.975 118.239 99.8838 117.991C101.016 117.682 102.177 118.345 102.891 119.197C102.499 119.768 102.307 120.071 101.927 120.694C101.385 120.123 100.864 119.895 100.364 120.014C99.9497 120.113 99.6593 120.411 99.4905 120.899C99.3217 121.387 99.3123 121.936 99.4641 122.553C99.4665 122.562 99.4677 122.567 99.4699 122.577C99.626 123.21 99.8928 123.713 100.269 124.081C100.646 124.449 101.044 124.586 101.464 124.487C101.758 124.418 101.987 124.272 102.151 124.051C102.315 123.829 102.457 123.527 102.577 123.148C103.208 123.547 103.525 123.75 104.155 124.148C103.984 124.811 103.732 125.37 103.397 125.813C103.062 126.256 102.582 126.56 101.958 126.715Z" stroke="#F9A31A" stroke-width="0.0583779" stroke-miterlimit="10"/>
<path d="M106.773 125.362C106.293 123.412 105.813 121.462 105.333 119.512C104.564 119.502 104.184 119.518 103.434 119.587C103.277 118.948 103.12 118.31 102.963 117.671C104.989 117.606 106.848 117.895 108.776 118.521C108.92 119.106 108.992 119.398 109.136 119.983C108.482 119.824 107.801 119.703 107.132 119.628C107.57 121.408 108.008 123.187 108.446 124.967C107.776 125.124 107.442 125.203 106.773 125.362Z" fill="#F9A31A" stroke="#F9A31A" stroke-width="0.0583779" stroke-miterlimit="10"/>
<path d="M75.5143 126.105C75.02 124.097 74.5262 122.089 74.0319 120.081C74.6982 120.585 75.4015 121.042 76.1431 121.428C76.5781 123.196 77.013 124.963 77.4481 126.731C76.7961 126.573 76.1356 126.357 75.5143 126.105Z" stroke="#F9A31A" stroke-width="0.0583779" stroke-miterlimit="10"/>
<path d="M78.677 126.979C78.2688 125.321 77.8608 123.662 77.4526 122.004C78.0714 122.237 78.7784 122.406 79.4378 122.468C80.0816 123.11 80.734 123.739 81.4215 124.335C81.7871 123.624 82.1091 122.924 82.4163 122.185C83.1139 121.979 83.4527 121.835 84.1165 121.491C84.5182 123.123 84.9197 124.755 85.3215 126.387C84.6671 126.591 84.3366 126.68 83.6667 126.82C83.4557 125.964 83.245 125.107 83.034 124.25C82.6773 124.948 82.3079 125.61 81.8996 126.279C81.8855 126.28 81.8784 126.281 81.8639 126.282C81.1487 125.727 80.4732 125.133 79.8064 124.522C80.0206 125.392 80.2347 126.263 80.4491 127.133C79.752 127.119 79.398 127.09 78.677 126.979Z" stroke="#F9A31A" stroke-width="0.0583779" stroke-miterlimit="10"/>
<path d="M87.2988 122.628C87.5794 122.404 87.7191 122.289 87.9969 122.054C88.2538 121.836 88.4408 121.595 88.5585 121.333C88.6763 121.07 88.7072 120.823 88.6515 120.596C88.6497 120.59 88.6489 120.587 88.6474 120.58C88.5876 120.337 88.4683 120.218 88.2905 120.224C88.1125 120.23 87.8915 120.353 87.6264 120.585C87.353 120.824 87.2158 120.941 86.9392 121.168C87.0869 121.768 87.1589 122.06 87.2988 122.628ZM86.3659 126.032C85.9463 124.327 85.5266 122.622 85.1071 120.918C85.9199 120.369 86.6652 119.774 87.4056 119.132C87.8934 118.743 88.4568 118.222 89.115 118.197C89.5819 118.18 89.907 118.505 90.0653 119.148C90.0668 119.154 90.0678 119.158 90.0695 119.164C90.2418 119.872 90.1293 120.618 89.831 121.274C89.4905 122.024 88.9576 122.679 88.314 123.193C88.0215 123.429 87.8748 123.545 87.5799 123.77C87.7244 124.358 87.7944 124.642 87.93 125.194C87.3256 125.615 87.015 125.792 86.3659 126.032Z" stroke="#F9A31A" stroke-width="0.0583779" stroke-miterlimit="10"/>
<path d="M92.4163 118.799C92.8838 118.37 93.1178 118.156 93.5884 117.739C93.1738 117.212 92.9696 116.961 92.5652 116.475C92.5163 117.249 92.4667 118.024 92.4163 118.799ZM90.651 123.159C90.9619 120.488 91.1783 117.809 91.3944 115.129C91.845 114.669 92.301 114.212 92.7655 113.766C94.1547 115.297 95.4465 116.887 96.6648 118.558C96.1169 118.926 95.5779 119.313 95.0497 119.709C94.7705 119.331 94.6327 119.149 94.3601 118.798C93.6706 119.36 92.9927 119.935 92.3186 120.516C92.2763 121.085 92.2545 121.367 92.2085 121.922C91.6907 122.336 91.1723 122.749 90.651 123.159Z" stroke="#F9A31A" stroke-width="0.0583779" stroke-miterlimit="10"/>
<path d="M99.7108 117.584C98.8782 117.804 97.996 117.65 97.2753 117.181C96.5208 116.69 95.9973 115.956 95.7982 115.073C95.7962 115.066 95.7953 115.062 95.7935 115.054C95.5675 114.076 95.6082 112.979 96.0245 112.081C96.4348 111.197 96.9573 110.364 97.9115 109.977C98.962 109.552 100.129 109.992 100.841 110.867C100.43 111.364 100.231 111.637 99.8388 112.209C99.3156 111.715 98.8112 111.556 98.3251 111.731C97.9223 111.876 97.638 112.197 97.4645 112.667C97.2911 113.136 97.268 113.629 97.3967 114.152C97.3986 114.16 97.3996 114.164 97.4017 114.172C97.534 114.709 97.7756 115.11 98.1297 115.387C98.4838 115.664 98.8686 115.744 99.2842 115.628C99.5745 115.547 99.8051 115.408 99.9744 115.207C100.144 115.005 100.293 114.734 100.423 114.396C101.044 114.755 101.36 114.953 101.996 115.375C101.801 115.942 101.528 116.413 101.176 116.789C100.825 117.164 100.33 117.42 99.7108 117.584Z" fill="#F9A31A"/>
<path d="M99.7108 117.584C98.8782 117.804 97.996 117.65 97.2753 117.181C96.5208 116.69 95.9973 115.956 95.7982 115.073C95.7962 115.066 95.7953 115.062 95.7935 115.054C95.5675 114.076 95.6082 112.979 96.0245 112.081C96.4348 111.197 96.9573 110.364 97.9115 109.977C98.962 109.552 100.129 109.992 100.841 110.867C100.43 111.364 100.231 111.637 99.8388 112.209C99.3156 111.715 98.8112 111.556 98.3251 111.731C97.9223 111.876 97.638 112.197 97.4645 112.667C97.2911 113.136 97.268 113.629 97.3967 114.152C97.3986 114.16 97.3996 114.164 97.4017 114.172C97.534 114.709 97.7756 115.11 98.1297 115.387C98.4838 115.664 98.8686 115.744 99.2842 115.628C99.5745 115.547 99.8051 115.408 99.9744 115.207C100.144 115.005 100.293 114.734 100.423 114.396C101.044 114.755 101.36 114.953 101.996 115.375C101.801 115.942 101.528 116.413 101.176 116.789C100.825 117.164 100.33 117.42 99.7108 117.584Z" stroke="#F9A31A" stroke-width="0.0583779" stroke-miterlimit="10"/>
<path d="M104.71 116.983C104.258 115.147 103.806 113.31 103.354 111.474C102.727 111.322 102.028 111.24 101.382 111.249C101.208 110.542 101.122 110.192 100.952 109.5C103.295 109.522 105.289 110.609 107.153 111.929C107.297 112.514 107.369 112.807 107.513 113.392C106.808 112.91 106.065 112.481 105.286 112.131C105.71 113.851 106.133 115.571 106.556 117.291C105.804 117.112 105.435 117.052 104.71 116.983Z" stroke="#F9A31A" stroke-width="0.0583779" stroke-miterlimit="10"/>
<path d="M73.8921 119.513C73.398 117.505 72.9036 115.497 72.4098 113.489C73.0309 113.742 73.6912 113.957 74.3434 114.115C74.8967 116.364 75.45 118.612 76.0034 120.86C75.2618 120.475 74.5585 120.017 73.8921 119.513Z" stroke="#F9A31A" stroke-width="0.0583779" stroke-miterlimit="10"/>
<path d="M77.3131 121.436C76.7328 119.079 76.1525 116.721 75.5723 114.364C76.1954 114.465 76.8501 114.518 77.4814 114.52C78.2208 115.492 78.9644 116.461 79.7197 117.42C79.9871 116.361 80.2324 115.296 80.4578 114.226C81.1705 114.082 81.5216 113.989 82.2168 113.772C82.8035 116.156 83.3901 118.54 83.9768 120.923C83.3519 121.247 83.0335 121.384 82.3787 121.587C82.0398 120.21 81.7011 118.833 81.3622 117.457C81.0989 118.509 80.8133 119.556 80.5011 120.595C80.4867 120.596 80.4796 120.597 80.4651 120.598C79.6725 119.658 78.9001 118.703 78.1372 117.739C78.4771 119.121 78.8172 120.502 79.1573 121.884C78.5429 121.815 77.8914 121.653 77.3131 121.436Z" stroke="#F9A31A" stroke-width="0.0583779" stroke-miterlimit="10"/>
<path d="M85.6757 116.033C85.9564 115.809 86.096 115.694 86.3739 115.459C86.6309 115.242 86.8149 114.988 86.9276 114.705C87.0402 114.421 87.0646 114.149 87.0001 113.887C86.9983 113.88 86.9975 113.876 86.9954 113.868C86.9262 113.587 86.7991 113.435 86.6134 113.409C86.4275 113.383 86.1997 113.478 85.9298 113.691C85.6518 113.911 85.5123 114.019 85.2321 114.231C85.4134 114.967 85.5019 115.328 85.6757 116.033ZM84.9676 120.35C84.3987 118.038 83.8298 115.727 83.2609 113.416C84.1595 113.168 84.9062 112.524 85.648 111.99C86.1775 111.664 86.7686 111.253 87.4326 111.361C87.9287 111.441 88.2599 111.812 88.4288 112.498L88.4331 112.516C88.6162 113.263 88.512 114.05 88.2271 114.756C87.9061 115.552 87.3994 116.275 86.7509 116.842C86.4625 117.094 86.3178 117.218 86.0261 117.457C86.207 118.192 86.2952 118.551 86.4675 119.25C85.8783 119.734 85.5797 119.959 84.9676 120.35Z" fill="#F9A31A" stroke="#F9A31A" stroke-width="0.0583779" stroke-miterlimit="10"/>
<path d="M90.7851 112.171C91.2481 111.724 91.4799 111.501 91.9464 111.068C91.5549 110.634 91.3598 110.42 90.9673 109.983C90.9004 110.711 90.8425 111.441 90.7851 112.171ZM89.0916 116.823C89.3095 114.111 89.5188 111.399 89.811 108.695C90.3824 108.243 90.6683 108.018 91.2429 107.579C92.4711 108.796 93.7051 109.999 94.8725 111.276C94.3312 111.695 93.8051 112.148 93.3035 112.614C93.0477 112.331 92.9206 112.193 92.6672 111.92C91.9914 112.553 91.3333 113.205 90.6814 113.863C90.6402 114.437 90.6201 114.727 90.5801 115.306C90.0867 115.814 89.5921 116.321 89.0916 116.823Z" fill="#F9A31A" stroke="#F9A31A" stroke-width="0.0583779" stroke-miterlimit="10"/>
<path d="M97.7648 109.678C97.0644 109.979 96.2483 110.169 95.498 109.962C94.8773 109.79 94.2742 109.12 94.1748 108.478C94.1731 108.472 94.1724 108.469 94.171 108.463C93.9781 107.669 94.1013 106.795 94.5559 106.115C95.0318 105.403 95.7848 104.913 96.6149 104.71C97.5551 104.48 98.6444 104.547 99.4378 105.166C98.9831 105.484 98.7587 105.656 98.3199 106.038C97.8487 105.756 97.3647 105.679 96.8695 105.818C96.4598 105.933 96.1518 106.159 95.9458 106.496C95.7397 106.834 95.6843 107.195 95.7756 107.567C95.7769 107.572 95.7776 107.575 95.7792 107.581C95.8728 107.962 96.0817 108.229 96.4036 108.375C96.7254 108.52 97.0865 108.504 97.4945 108.358C97.7795 108.255 98.0132 108.129 98.1939 107.973C98.3745 107.818 98.543 107.624 98.6997 107.396C99.2778 107.579 99.5702 107.684 100.167 107.943C99.9207 108.302 99.6076 108.613 99.2332 108.896C98.8589 109.179 98.3572 109.423 97.7648 109.678Z" stroke="#F9A31A" stroke-width="0.0583779" stroke-miterlimit="10"/>
<path d="M102.792 109.19C102.489 107.96 102.187 106.731 101.884 105.501C101.252 105.402 100.578 105.362 99.9389 105.384C99.8325 104.952 99.7801 104.74 99.6775 104.322C101.736 104.283 103.598 104.633 105.531 105.337C105.675 105.923 105.747 106.215 105.891 106.8C105.182 106.469 104.5 106.189 103.761 105.933C104.089 107.267 104.417 108.6 104.746 109.934C104.106 109.641 103.478 109.361 102.792 109.19Z" stroke="#F9A31A" stroke-width="0.0583779" stroke-miterlimit="10"/>
<path d="M72.2697 112.921C71.7757 110.914 71.2817 108.905 70.7874 106.898C71.4608 106.742 71.7974 106.663 72.4704 106.505C73.0417 108.827 73.6131 111.148 74.1841 113.469C73.5406 113.334 72.8879 113.146 72.2697 112.921Z" fill="#F9A31A" stroke="#F9A31A" stroke-width="0.0583779" stroke-miterlimit="10"/>
<path d="M75.4042 113.68C74.7942 111.202 74.1843 108.723 73.5745 106.245C74.2816 106.078 74.635 105.993 75.3416 105.824C76.0959 106.794 76.8416 107.771 77.5857 108.749C77.8126 107.544 78.0217 106.338 78.2186 105.128C78.9245 104.956 79.2774 104.869 79.983 104.695C80.6676 107.478 81.3525 110.26 82.0371 113.042C81.3811 113.238 81.05 113.324 80.3794 113.463C79.9946 111.899 79.6097 110.335 79.2246 108.771C78.9825 109.937 78.7305 111.1 78.4494 112.258C78.435 112.26 78.428 112.261 78.4139 112.262C77.6303 111.283 76.8498 110.301 76.0658 109.323C76.4329 110.814 76.7998 112.305 77.1669 113.796C76.4726 113.793 76.1204 113.772 75.4042 113.68Z" fill="#F9A31A" stroke="#F9A31A" stroke-width="0.0583779" stroke-miterlimit="10"/>
<path d="M83.7154 108.068C84.0152 107.922 84.1649 107.848 84.4638 107.698C84.7402 107.56 84.9376 107.361 85.0582 107.109C85.1786 106.857 85.2041 106.589 85.1322 106.297C85.13 106.288 85.129 106.284 85.1271 106.276C85.0498 105.962 84.9094 105.757 84.7047 105.654C84.4999 105.552 84.2489 105.552 83.9539 105.663C83.6499 105.777 83.4978 105.834 83.1932 105.946C83.3673 106.653 83.5413 107.361 83.7154 108.068ZM83.0847 112.7C82.4065 109.944 81.7284 107.188 81.0502 104.432C81.9112 104.223 82.7688 104 83.6273 103.779C84.2202 103.594 85.0768 103.682 85.613 103.968C86.1167 104.236 86.5979 104.894 86.6988 105.468C86.7005 105.476 86.7014 105.48 86.7035 105.487C86.8851 106.202 86.7961 106.955 86.4691 107.613C86.1208 108.313 85.5714 108.907 84.8963 109.306C84.5906 109.488 84.4373 109.578 84.1303 109.754C84.3058 110.467 84.4813 111.18 84.6567 111.892C84.0487 112.3 83.7365 112.47 83.0847 112.7Z" stroke="#F9A31A" stroke-width="0.0583779" stroke-miterlimit="10"/>
<path d="M89.2397 105.891C89.7413 105.6 89.992 105.455 90.4947 105.168C90.1029 104.733 89.9049 104.508 89.5016 104.027C89.3872 104.733 89.3353 105.108 89.2397 105.891ZM87.3957 109.931C87.6063 107.46 87.8201 104.973 88.2952 102.536C88.9378 102.373 89.259 102.291 89.9016 102.129C91.03 103.319 92.2271 104.414 93.4519 105.503C92.9019 105.859 92.3594 106.232 91.8269 106.614C91.5797 106.366 91.456 106.241 91.2071 105.986C90.4972 106.453 89.794 106.929 89.093 107.409C89.0393 107.932 89.0138 108.199 88.9651 108.743C88.4432 109.141 87.9207 109.538 87.3957 109.931Z" stroke="#F9A31A" stroke-width="0.0583779" stroke-miterlimit="10"/>
<path d="M96.4899 104.499C95.7367 104.696 94.9161 104.77 94.1621 104.533C93.4709 104.317 93.0622 103.958 92.9166 103.367L92.9138 103.355C92.7695 102.769 92.9487 102.187 93.4704 101.704C94.0596 101.159 94.8428 100.845 95.6176 100.658C96.5251 100.441 97.4925 100.356 98.3569 100.774C97.907 101.112 97.6807 101.276 97.2302 101.611C96.779 101.409 96.3057 101.376 95.8052 101.494C95.391 101.592 95.069 101.761 94.8407 102.007C94.6125 102.254 94.5322 102.514 94.6005 102.792L94.603 102.802C94.673 103.087 94.8678 103.297 95.1847 103.423C95.5017 103.549 95.8691 103.558 96.2886 103.458C96.5815 103.388 96.8231 103.294 97.012 103.171C97.2007 103.049 97.3781 102.892 97.5445 102.702C98.1108 102.837 98.3961 102.914 98.9748 103.1C98.7202 103.424 98.3972 103.695 98.0101 103.926C97.6226 104.156 97.109 104.337 96.4899 104.499Z" stroke="#F9A31A" stroke-width="0.0583779" stroke-miterlimit="10"/>
<path d="M101.499 103.934C101.224 102.819 100.949 101.703 100.675 100.587C99.935 100.696 99.5667 100.758 98.8333 100.893C98.7434 100.527 98.6994 100.348 98.6131 99.9977C100.377 99.5737 102.142 99.156 103.908 98.7457C104.052 99.3308 104.125 99.6235 104.269 100.209C103.514 100.255 103.138 100.288 102.392 100.368C102.705 101.643 103.019 102.917 103.332 104.191C102.586 104.037 102.22 103.988 101.499 103.934Z" stroke="#F9A31A" stroke-width="0.0583779" stroke-miterlimit="10"/>
<path d="M96.6767 131.838C95.801 131.563 93.3855 132.191 92.7141 132.766C92.5133 133.866 92.9173 135.184 93.5572 136.191C94.7572 136.302 96.4172 135.793 97.4643 135.229C97.5645 134.064 97.3488 132.874 96.6767 131.838Z" fill="white"/>
<path d="M93.8797 133.803L93.9929 134.264L94.3326 134.18L94.3659 134.316L94.0265 134.4L94.0569 134.524L94.4972 134.415L94.5305 134.551L93.9537 134.693L93.7099 133.702L94.2866 133.56L94.3198 133.695L93.8797 133.803Z" fill="#14130F"/>
<path d="M95.0422 133.518L94.7984 133.578L95.0089 134.433L94.8712 134.467L94.6605 133.612L94.4168 133.672L94.3834 133.536L95.0089 133.382L95.0422 133.518Z" fill="#14130F"/>
<path d="M95.1059 133.358L95.2422 133.325L95.4856 134.316L95.3493 134.349L95.1059 133.358Z" fill="#14130F"/>
<path d="M96.1444 133.342C96.1062 133.32 96.0651 133.306 96.0207 133.299C95.9704 133.291 95.9198 133.293 95.87 133.306C95.8199 133.318 95.7746 133.339 95.733 133.37C95.6938 133.399 95.6608 133.436 95.6348 133.478C95.6092 133.52 95.5924 133.566 95.5842 133.614C95.5766 133.664 95.5785 133.714 95.5909 133.764C95.603 133.813 95.6244 133.859 95.6549 133.9C95.6845 133.939 95.7201 133.972 95.7625 133.997C95.8052 134.023 95.8514 134.039 95.8998 134.048C95.9507 134.055 96.0007 134.053 96.0508 134.041C96.1006 134.028 96.1466 134.007 96.1875 133.977C96.223 133.95 96.2528 133.918 96.2775 133.882L96.3912 133.95C96.3572 134.001 96.3158 134.045 96.2668 134.082C96.2114 134.123 96.15 134.152 96.0825 134.169C96.0154 134.186 95.9468 134.188 95.8784 134.178C95.8129 134.167 95.7513 134.145 95.6939 134.111C95.6367 134.076 95.5884 134.032 95.5482 133.979C95.5073 133.924 95.4782 133.863 95.4614 133.796C95.4449 133.728 95.4426 133.661 95.4532 133.593C95.4641 133.528 95.4866 133.466 95.5211 133.41C95.5561 133.352 95.6005 133.304 95.6534 133.265C95.7092 133.223 95.7714 133.195 95.8385 133.178C95.906 133.161 95.9737 133.158 96.0418 133.169C96.1029 133.178 96.1602 133.198 96.2135 133.228L96.1444 133.342Z" fill="#14130F"/>
<path fill-rule="evenodd" clip-rule="evenodd" d="M92.1004 131.397C91.8094 131.306 91.0056 131.515 90.782 131.706C90.7149 132.071 90.8493 132.509 91.062 132.843C91.4611 132.88 92.0136 132.711 92.3619 132.523C92.3956 132.136 92.3238 131.741 92.1004 131.397Z" fill="white"/>
<path fill-rule="evenodd" clip-rule="evenodd" d="M97.9817 130.883C97.8071 130.828 97.3255 130.953 97.1918 131.068C97.1523 131.289 97.2333 131.553 97.3611 131.756C97.6003 131.779 97.9313 131.677 98.1399 131.564C98.1595 131.33 98.116 131.091 97.9817 130.883Z" fill="white"/>
<path fill-rule="evenodd" clip-rule="evenodd" d="M93.4165 136.448C93.302 136.411 92.9864 136.493 92.8988 136.569C92.8734 136.716 92.9271 136.893 93.0116 137.027C93.1686 137.043 93.3856 136.976 93.5219 136.902C93.5344 136.746 93.505 136.587 93.4165 136.448Z" fill="white"/>
<path fill-rule="evenodd" clip-rule="evenodd" d="M97.7726 134.845C97.6173 134.794 97.1914 134.905 97.0735 135.009C97.0397 135.208 97.1129 135.449 97.2273 135.633C97.4395 135.655 97.7321 135.564 97.9162 135.463C97.9325 135.251 97.8927 135.035 97.7726 134.845Z" fill="white"/>
</svg>
