<svg width="118" height="153" viewBox="0 0 118 153" fill="none" xmlns="http://www.w3.org/2000/svg">
<path d="M70.8406 57.498L49.0494 57.498L49.0494 55.8925C49.0494 51.9846 52.2175 48.8164 56.1255 48.8164L63.7646 48.8164C67.6725 48.8164 70.8406 51.9846 70.8406 55.8925L70.8406 57.498Z" fill="#FDCD00" stroke="#231F20" stroke-width="2.04" stroke-miterlimit="10" stroke-linecap="round" stroke-linejoin="round"/>
<path d="M41.1783 104.232L116.251 104.232L116.251 57.4978L41.1783 57.4977L41.1783 104.232Z" fill="#FDCD00" stroke="#231F20" stroke-width="2.04" stroke-miterlimit="10" stroke-linecap="round" stroke-linejoin="round"/>
<path d="M108.382 57.498L86.5903 57.498L86.5903 55.8925C86.5903 51.9846 89.7584 48.8164 93.6664 48.8164L101.305 48.8164C105.213 48.8164 108.382 51.9846 108.382 55.8925L108.382 57.498Z" fill="#FDCD00" stroke="#231F20" stroke-width="2.04" stroke-miterlimit="10" stroke-linecap="round" stroke-linejoin="round"/>
<path d="M78.7146 57.418L116.251 57.418L116.251 10.6837L78.7146 10.6837L78.7146 57.418Z" fill="#E51F1C" stroke="#231F20" stroke-width="2.04" stroke-miterlimit="10" stroke-linecap="round" stroke-linejoin="round"/>
<path d="M108.382 10.6815L86.5903 10.6815L86.5903 9.07607C86.5903 5.16812 89.7584 2.00001 93.6664 2.00001L101.305 2.00001C105.213 2.00001 108.382 5.16812 108.382 9.07607L108.382 10.6815Z" fill="#E51F1C" stroke="#231F20" stroke-width="2.04" stroke-miterlimit="10" stroke-linecap="round" stroke-linejoin="round"/>
<path d="M2.0338 104.232L41.1795 104.232L41.1795 57.4978L2.0338 57.4977L2.0338 104.232Z" fill="#E51F1C" stroke="#231F20" stroke-width="2.04" stroke-miterlimit="10" stroke-linecap="round" stroke-linejoin="round"/>
<path d="M33.3044 57.498L11.5132 57.498L11.5132 55.8925C11.5132 51.9846 14.6813 48.8164 18.5893 48.8164L26.2284 48.8164C30.1363 48.8164 33.3044 51.9846 33.3044 55.8925L33.3044 57.498Z" fill="#E51F1C" stroke="#231F20" stroke-width="2.04" stroke-miterlimit="10" stroke-linecap="round" stroke-linejoin="round"/>
<path d="M2.00006 151.297L77.0732 151.297L77.0732 104.563L2.00007 104.563L2.00006 151.297Z" fill="#0060A9" stroke="#231F20" stroke-width="2.04" stroke-miterlimit="10" stroke-linecap="round" stroke-linejoin="round"/>
</svg>
