<svg width="148" height="102" viewBox="0 0 148 102" fill="none" xmlns="http://www.w3.org/2000/svg">
<path d="M146.594 55.5557H74.1943V100.813H146.594V55.5557Z" fill="#0060A9" stroke="#231F20" stroke-width="1.97551" stroke-miterlimit="10" stroke-linecap="round" stroke-linejoin="round"/>
<path d="M30.2206 55.0711H9.11816V53.5164C9.11816 49.732 12.1861 46.664 15.9706 46.664H23.3682C27.1526 46.664 30.2206 49.732 30.2206 53.5164V55.0711Z" fill="#FDCD00" stroke="#231F20" stroke-width="1.97551" stroke-miterlimit="10" stroke-linecap="round" stroke-linejoin="round"/>
<path d="M74.1913 55.0717H1.49121V100.329H74.1913V55.0717Z" fill="#FDCD00" stroke="#231F20" stroke-width="1.97551" stroke-miterlimit="10" stroke-linecap="round" stroke-linejoin="round"/>
<path d="M110.285 9.40485H146.635V54.6618H110.285V9.40485Z" fill="#FDCD00" stroke="#231F20" stroke-width="1.97551" stroke-miterlimit="10" stroke-linecap="round" stroke-linejoin="round"/>
<path d="M139.012 9.40711H117.91V7.85239C117.91 4.06797 120.978 1 124.762 1H132.16C135.944 1 139.012 4.06797 139.012 7.85239V9.40711Z" fill="#FDCD00" stroke="#231F20" stroke-width="1.97551" stroke-miterlimit="10" stroke-linecap="round" stroke-linejoin="round"/>
<path d="M66.5702 9.40711H45.4678V7.85239C45.4678 4.06797 48.5357 1 52.3202 1H59.7178C63.5022 1 66.5702 4.06797 66.5702 7.85239V9.40711Z" fill="#E51F1C" stroke="#231F20" stroke-width="1.97551" stroke-miterlimit="10" stroke-linecap="round" stroke-linejoin="round"/>
<path d="M110.541 9.40771H37.8408V54.6647H110.541V9.40771Z" fill="#E51F1C" stroke="#231F20" stroke-width="1.97551" stroke-miterlimit="10" stroke-linecap="round" stroke-linejoin="round"/>
<path d="M102.92 9.40711H81.8174V7.85239C81.8174 4.06797 84.8854 1 88.6698 1H96.0674C99.8518 1 102.92 4.06797 102.92 7.85239V9.40711Z" fill="#E51F1C" stroke="#231F20" stroke-width="1.97551" stroke-miterlimit="10" stroke-linecap="round" stroke-linejoin="round"/>
</svg>
