<svg width="58" height="58" viewBox="0 0 58 58" fill="none" xmlns="http://www.w3.org/2000/svg">
<path d="M28.8794 12.1545V5.44034C28.8794 4.35742 27.5798 3.82799 26.8338 4.59807L17.6891 13.7187C17.2078 14.2 17.2078 14.946 17.6891 15.4273L26.8098 24.5479C27.5799 25.294 28.8794 24.7645 28.8794 23.6816V16.9675C37.8556 16.9675 44.9548 25.1977 42.9815 34.5108C41.8504 39.9736 37.4224 44.3775 31.9837 45.5085C23.3925 47.3134 15.7399 41.4175 14.5847 33.452C14.4989 32.8864 14.2144 32.3698 13.7822 31.9949C13.3501 31.6201 12.7984 31.4114 12.2264 31.4065C10.7825 31.4065 9.62734 32.6819 9.81986 34.1258C11.3119 44.6903 21.3711 52.5115 32.7538 50.2975C40.2621 48.8295 46.3024 42.7892 47.7704 35.2809C50.1528 22.9356 40.7675 12.1545 28.8794 12.1545Z" fill="#E51F1C"/>
</svg>
