<svg width="40" height="41" viewBox="0 0 40 41" fill="none" xmlns="http://www.w3.org/2000/svg">
<path d="M19.7809 8.96167V4.36283C19.7809 3.62108 18.8908 3.25845 18.3798 3.78591L12.1161 10.0331C11.7865 10.3627 11.7865 10.8737 12.1161 11.2034L18.3633 17.4506C18.8908 17.9616 19.7809 17.5989 19.7809 16.8572V12.2583C25.9292 12.2583 30.7917 17.8956 29.4401 24.2747C28.6654 28.0164 25.6325 31.0328 21.9072 31.8075C16.0227 33.0438 10.781 29.0054 9.98977 23.5494C9.93101 23.162 9.73614 22.8081 9.44011 22.5514C9.14408 22.2946 8.76626 22.1517 8.37441 22.1483C7.38541 22.1483 6.59421 23.0219 6.72607 24.0109C7.74804 31.2471 14.6381 36.6042 22.4347 35.0877C27.5775 34.0822 31.7148 29.9449 32.7203 24.8021C34.3521 16.3462 27.9236 8.96167 19.7809 8.96167Z" fill="#0060A9"/>
</svg>
