<svg width="54" height="59" viewBox="0 0 54 59" fill="none" xmlns="http://www.w3.org/2000/svg">
<path d="M52.7843 18.7467L49.7874 32.3166L9.64425 50.9983L12.6412 37.4284L52.7843 18.7467Z" fill="#BA9400" stroke="#231F20" stroke-width="1.28" stroke-miterlimit="10" stroke-linecap="round" stroke-linejoin="round"/>
<path d="M12.641 37.4279L9.64416 50.9975L1.48968 42.1228L4.48654 28.5532L12.641 37.4279Z" fill="#7B6400" stroke="#231F20" stroke-width="1.28" stroke-miterlimit="10" stroke-linecap="round" stroke-linejoin="round"/>
<path d="M44.6285 9.87095L52.7834 18.7456L12.64 37.4275L4.48514 28.5529L44.6285 9.87095Z" fill="#FDCD00" stroke="#231F20" stroke-width="1.28" stroke-miterlimit="10" stroke-linecap="round" stroke-linejoin="round"/>
<mask id="mask0_21_17121" style="mask-type:luminance" maskUnits="userSpaceOnUse" x="29" y="19" width="9" height="6">
<path d="M29.663 21.2605C29.5436 22.2244 29.9459 23.2407 30.8543 23.9835C32.3826 25.2328 34.7655 25.2349 36.1752 23.9886C36.7465 23.4839 37.0704 22.8503 37.1523 22.1937L37.3712 20.4277C37.2897 21.0848 36.9658 21.7175 36.3941 22.2231C34.9848 23.469 32.6019 23.4668 31.0736 22.2175C30.1648 21.4747 29.7624 20.4584 29.8823 19.4946L29.663 21.2605Z" fill="white"/>
</mask>
<g mask="url(#mask0_21_17121)">
<path d="M37.3712 20.4277L37.1523 22.1937C37.0708 22.8507 36.7465 23.4839 36.1752 23.9891C34.7655 25.2354 32.3826 25.2328 30.8543 23.9835C29.9459 23.2407 29.5436 22.2244 29.663 21.2605L29.8823 19.4946C29.7629 20.4588 30.1648 21.4747 31.0736 22.2175C32.6019 23.4668 34.9844 23.4694 36.3941 22.2231C36.9658 21.7179 37.2897 21.0852 37.3712 20.4277Z" fill="black" stroke="#231F20" stroke-width="0.0853331" stroke-miterlimit="10"/>
</g>
<mask id="mask1_21_17121" style="mask-type:luminance" maskUnits="userSpaceOnUse" x="39" y="14" width="8" height="7">
<path d="M39.2572 16.5418C39.1378 17.5056 39.5401 18.5219 40.4485 19.2648C41.9768 20.514 44.3597 20.5162 45.7694 19.2699C46.3407 18.7651 46.6646 18.1315 46.7465 17.4749L46.9654 15.7089C46.8839 16.366 46.56 16.9987 45.9883 17.5043C44.579 18.7502 42.1961 18.7481 40.6678 17.4988C39.759 16.756 39.3566 15.7397 39.4765 14.7758L39.2572 16.5418Z" fill="white"/>
</mask>
<g mask="url(#mask1_21_17121)">
<path d="M46.9654 15.7089L46.7465 17.4749C46.665 18.132 46.3407 18.7651 45.7694 19.2703C44.3597 20.5166 41.9768 20.514 40.4485 19.2648C39.5401 18.5219 39.1378 17.5056 39.2572 16.5418L39.4765 14.7758C39.3571 15.7401 39.759 16.756 40.6678 17.4988C42.1961 18.7481 44.5786 18.7506 45.9883 17.5043C46.56 16.9992 46.8839 16.3664 46.9654 15.7089Z" fill="black" stroke="#231F20" stroke-width="0.0853331" stroke-miterlimit="10"/>
</g>
<path d="M37.3712 20.4277L37.1523 22.1937C37.0708 22.8507 36.7465 23.4839 36.1752 23.9891C34.7655 25.2354 32.3826 25.2328 30.8543 23.9835C29.9459 23.2407 29.5436 22.2244 29.663 21.2605L29.8823 19.4946C29.7629 20.4588 30.1648 21.4747 31.0736 22.2175C32.6019 23.4668 34.9844 23.4694 36.3941 22.2231C36.9658 21.7179 37.2897 21.0852 37.3712 20.4277Z" stroke="#231F20" stroke-width="0.0853331" stroke-miterlimit="10"/>
<path d="M36.1796 17.7036C37.7078 18.9529 37.8037 20.977 36.394 22.2233C34.9843 23.4696 32.602 23.4669 31.0738 22.2176C29.545 20.9683 29.45 18.9451 30.8597 17.6988C32.2693 16.4526 34.6514 16.4543 36.1796 17.7036Z" fill="#FDCD00"/>
<path d="M36.1796 17.7036C37.7078 18.9529 37.8037 20.977 36.394 22.2233C34.9843 23.4696 32.602 23.4669 31.0738 22.2176C29.545 20.9683 29.45 18.9451 30.8597 17.6988C32.2693 16.4526 34.6514 16.4543 36.1796 17.7036Z" stroke="#231F20" stroke-width="0.0853334" stroke-miterlimit="10"/>
<path d="M34.0144 18.3452L34.2653 18.6246L34.3681 18.739L34.7222 19.1332L34.479 19.2958L34.2286 19.0163L32.2122 20.3663L32.0061 20.1371L34.0225 18.7872L33.7716 18.5077L34.0144 18.3452Z" fill="#FDCD00" stroke="#231F20" stroke-width="0.213333" stroke-miterlimit="10"/>
<path d="M33.3008 17.5509L33.8482 18.1598L33.605 18.3223L33.2628 17.9417L32.4974 18.4542L32.7713 18.7592L32.5285 18.9218L32.2546 18.6167L31.49 19.1287L31.8322 19.5093L31.5894 19.6719L31.2472 19.2913L31.042 19.063L32.0498 18.3884L32.2922 18.2255L33.058 17.7135L33.3008 17.5509Z" fill="#FDCD00" stroke="#231F20" stroke-width="0.213333" stroke-miterlimit="10"/>
<path d="M35.9888 20.7018C35.9748 20.8247 35.8997 20.9322 35.7644 21.0227L35.7392 21.0406L35.3557 21.2975L35.1496 21.0688L35.5332 20.8119L35.5592 20.7949C35.6151 20.7569 35.6492 20.7108 35.6603 20.6575C35.671 20.6046 35.6522 20.5517 35.6053 20.4992C35.5925 20.4847 35.5788 20.4719 35.5647 20.4612C35.5276 20.4326 35.4858 20.4168 35.4414 20.4143C35.3783 20.4096 35.319 20.4271 35.2622 20.4642L35.2362 20.4813L33.8483 21.4122L33.8231 21.4284C33.7655 21.466 33.7331 21.5121 33.7211 21.5663C33.7105 21.6196 33.7284 21.6716 33.7762 21.725C33.789 21.7395 33.8026 21.7519 33.8167 21.763C33.8538 21.7907 33.8948 21.8065 33.94 21.8099C34.004 21.8137 34.0625 21.7967 34.1201 21.7591L34.1439 21.742L34.5983 21.4378L34.8044 21.6665L34.35 21.9712L34.3249 21.9874C34.1887 22.0787 34.0497 22.1145 33.9076 22.0958C33.8077 22.0821 33.7169 22.0437 33.6341 21.981C33.5991 21.9541 33.5654 21.923 33.5334 21.8875C33.4246 21.7664 33.3785 21.6452 33.3917 21.5215C33.4067 21.3973 33.4809 21.2911 33.6162 21.2002L33.6422 21.1831L35.0314 20.253L35.0574 20.2359C35.1927 20.145 35.3309 20.1088 35.473 20.1275C35.5724 20.1408 35.6642 20.1792 35.7469 20.2423C35.7823 20.2692 35.816 20.3008 35.8485 20.3366C35.9564 20.4561 36.0029 20.579 35.9888 20.7018Z" fill="#FDCD00"/>
<path d="M35.9888 20.7018C35.9748 20.8247 35.8997 20.9322 35.7644 21.0227L35.7392 21.0406L35.3557 21.2975L35.1496 21.0688L35.5332 20.8119L35.5592 20.7949C35.6151 20.7569 35.6492 20.7108 35.6603 20.6575C35.671 20.6046 35.6522 20.5517 35.6053 20.4992C35.5925 20.4847 35.5788 20.4719 35.5647 20.4612C35.5276 20.4326 35.4858 20.4168 35.4414 20.4143C35.3783 20.4096 35.319 20.4271 35.2622 20.4642L35.2362 20.4813L33.8483 21.4122L33.8231 21.4284C33.7655 21.466 33.7331 21.5121 33.7211 21.5663C33.7105 21.6196 33.7284 21.6716 33.7762 21.725C33.789 21.7395 33.8026 21.7519 33.8167 21.763C33.8538 21.7907 33.8948 21.8065 33.94 21.8099C34.004 21.8137 34.0625 21.7967 34.1201 21.7591L34.1439 21.742L34.5983 21.4378L34.8044 21.6665L34.35 21.9712L34.3249 21.9874C34.1887 22.0787 34.0497 22.1145 33.9076 22.0958C33.8077 22.0821 33.7169 22.0437 33.6341 21.981C33.5991 21.9541 33.5654 21.923 33.5334 21.8875C33.4246 21.7664 33.3785 21.6452 33.3917 21.5215C33.4067 21.3973 33.4809 21.2911 33.6162 21.2002L33.6422 21.1831L35.0314 20.253L35.0574 20.2359C35.1927 20.145 35.3309 20.1088 35.473 20.1275C35.5724 20.1408 35.6642 20.1792 35.7469 20.2423C35.7823 20.2692 35.816 20.3008 35.8485 20.3366C35.9564 20.4561 36.0029 20.579 35.9888 20.7018Z" stroke="#231F20" stroke-width="0.213333" stroke-miterlimit="10"/>
<path d="M34.9454 19.3815L35.1514 19.6105L32.8918 21.1236L32.6858 20.8945L34.9454 19.3815Z" fill="#FDCD00" stroke="#231F20" stroke-width="0.213333" stroke-miterlimit="10"/>
<path d="M46.9471 15.6948L46.7282 17.4607C46.6467 18.1178 46.3225 18.751 45.7511 19.2562C44.3414 20.5024 41.9585 20.4999 40.4302 19.2506C39.5218 18.5078 39.1195 17.4915 39.239 16.5276L39.4583 14.7617C39.3388 15.7259 39.7407 16.7418 40.6495 17.4846C42.1778 18.7339 44.5603 18.7365 45.97 17.4902C46.5418 16.985 46.8656 16.3523 46.9471 15.6948Z" stroke="#231F20" stroke-width="0.0853331" stroke-miterlimit="10"/>
<path d="M45.7554 12.9707C47.2836 14.22 47.3794 16.2441 45.9698 17.4904C44.5601 18.7367 42.1778 18.734 40.6496 17.4847C39.1208 16.2354 39.0258 14.2122 40.4354 12.9659C41.8451 11.7196 44.2272 11.7214 45.7554 12.9707Z" fill="#FDCD00"/>
<path d="M45.7554 12.9707C47.2836 14.22 47.3794 16.2441 45.9698 17.4904C44.5601 18.7367 42.1778 18.734 40.6496 17.4847C39.1208 16.2354 39.0258 14.2122 40.4354 12.9659C41.8451 11.7196 44.2272 11.7214 45.7554 12.9707Z" stroke="#231F20" stroke-width="0.0853334" stroke-miterlimit="10"/>
<path d="M43.5902 13.6122L43.841 13.8916L43.9439 14.006L44.298 14.4002L44.0548 14.5628L43.8043 14.2833L41.7879 15.6333L41.5818 15.4042L43.5983 14.0542L43.3474 13.7747L43.5902 13.6122Z" fill="#FDCD00" stroke="#231F20" stroke-width="0.213333" stroke-miterlimit="10"/>
<path d="M42.8766 12.8179L43.424 13.4268L43.1808 13.5893L42.8386 13.2088L42.0732 13.7212L42.3471 14.0262L42.1043 14.1888L41.8304 13.8837L41.0658 14.3957L41.408 14.7763L41.1652 14.9389L40.823 14.5583L40.6178 14.33L41.6256 13.6555L41.8679 13.4925L42.6338 12.9805L42.8766 12.8179Z" fill="#FDCD00" stroke="#231F20" stroke-width="0.213333" stroke-miterlimit="10"/>
<path d="M45.5646 15.9689C45.5505 16.0917 45.4754 16.1993 45.3402 16.2897L45.315 16.3076L44.9314 16.5645L44.7253 16.3358L45.1089 16.0789L45.1349 16.0619C45.1908 16.0239 45.225 15.9778 45.2361 15.9245C45.2467 15.8716 45.228 15.8187 45.181 15.7662C45.1682 15.7517 45.1546 15.7389 45.1405 15.7282C45.1034 15.6996 45.0616 15.6839 45.0172 15.6813C44.954 15.6766 44.8947 15.6941 44.838 15.7312L44.812 15.7483L43.424 16.6793L43.3988 16.6955C43.3412 16.733 43.3088 16.7791 43.2969 16.8333C43.2862 16.8866 43.3041 16.9387 43.3519 16.992C43.3647 17.0065 43.3784 17.0189 43.3924 17.03C43.4296 17.0577 43.4705 17.0735 43.5157 17.0769C43.5797 17.0808 43.6382 17.0637 43.6958 17.0261L43.7197 17.0091L44.1741 16.7049L44.3802 16.9336L43.9258 17.2382L43.9006 17.2544C43.7645 17.3457 43.6254 17.3816 43.4833 17.3628C43.3835 17.3491 43.2926 17.3107 43.2098 17.248C43.1748 17.2211 43.1411 17.19 43.1091 17.1546C43.0003 17.0334 42.9543 16.9122 42.9675 16.7885C42.9824 16.6643 43.0567 16.5581 43.1919 16.4672L43.2179 16.4501L44.6072 15.52L44.6332 15.5029C44.7684 15.4121 44.9067 15.3758 45.0488 15.3946C45.1482 15.4078 45.2399 15.4462 45.3227 15.5093C45.3581 15.5362 45.3918 15.5678 45.4242 15.6036C45.5322 15.7231 45.5787 15.846 45.5646 15.9689Z" fill="#FDCD00"/>
<path d="M45.5646 15.9689C45.5505 16.0917 45.4754 16.1993 45.3402 16.2897L45.315 16.3076L44.9314 16.5645L44.7253 16.3358L45.1089 16.0789L45.1349 16.0619C45.1908 16.0239 45.225 15.9778 45.2361 15.9245C45.2467 15.8716 45.228 15.8187 45.181 15.7662C45.1682 15.7517 45.1546 15.7389 45.1405 15.7282C45.1034 15.6996 45.0616 15.6839 45.0172 15.6813C44.954 15.6766 44.8947 15.6941 44.838 15.7312L44.812 15.7483L43.424 16.6793L43.3988 16.6955C43.3412 16.733 43.3088 16.7791 43.2969 16.8333C43.2862 16.8866 43.3041 16.9387 43.3519 16.992C43.3647 17.0065 43.3784 17.0189 43.3924 17.03C43.4296 17.0577 43.4705 17.0735 43.5157 17.0769C43.5797 17.0808 43.6382 17.0637 43.6958 17.0261L43.7197 17.0091L44.1741 16.7049L44.3802 16.9336L43.9258 17.2382L43.9006 17.2544C43.7645 17.3457 43.6254 17.3816 43.4833 17.3628C43.3835 17.3491 43.2926 17.3107 43.2098 17.248C43.1748 17.2211 43.1411 17.19 43.1091 17.1546C43.0003 17.0334 42.9543 16.9122 42.9675 16.7885C42.9824 16.6643 43.0567 16.5581 43.1919 16.4672L43.2179 16.4501L44.6072 15.52L44.6332 15.5029C44.7684 15.4121 44.9067 15.3758 45.0488 15.3946C45.1482 15.4078 45.2399 15.4462 45.3227 15.5093C45.3581 15.5362 45.3918 15.5678 45.4242 15.6036C45.5322 15.7231 45.5787 15.846 45.5646 15.9689Z" stroke="#231F20" stroke-width="0.213333" stroke-miterlimit="10"/>
<path d="M44.5211 14.6486L44.7271 14.8776L42.4675 16.3907L42.2615 16.1616L44.5211 14.6486Z" fill="#FDCD00" stroke="#231F20" stroke-width="0.213333" stroke-miterlimit="10"/>
<mask id="mask2_21_17121" style="mask-type:luminance" maskUnits="userSpaceOnUse" x="19" y="23" width="9" height="7">
<path d="M19.7147 25.6665C19.5944 26.6308 19.9967 27.6476 20.9055 28.39C22.4338 29.6397 24.8163 29.6418 26.2265 28.3951C26.7978 27.8903 27.1216 27.2576 27.2031 26.6001L27.4224 24.8337C27.3405 25.4916 27.0167 26.1244 26.4449 26.6295C25.0357 27.8762 22.6527 27.8737 21.1244 26.6244C20.216 25.8816 19.8141 24.8653 19.9332 23.9014L19.7147 25.6665Z" fill="white"/>
</mask>
<g mask="url(#mask2_21_17121)">
<path d="M27.4221 24.8332L27.2032 26.5992C27.1217 27.2562 26.7974 27.8894 26.2261 28.3946C24.8164 29.6409 22.4335 29.6383 20.9052 28.389C19.9968 27.6462 19.5945 26.6299 19.7139 25.6661L19.9332 23.9001C19.8138 24.8643 20.2157 25.8802 21.1245 26.6231C22.6528 27.8723 25.0353 27.8749 26.445 26.6286C27.0167 26.1234 27.3406 25.4907 27.4221 24.8332Z" fill="black" stroke="#231F20" stroke-width="0.0853331" stroke-miterlimit="10"/>
</g>
<path d="M27.4224 24.8341L27.2036 26.6001C27.1221 27.2572 26.7978 27.8903 26.2265 28.3955C24.8168 29.6418 22.4339 29.6392 20.9055 28.39C19.9972 27.6471 19.5948 26.6308 19.7143 25.667L19.9336 23.901C19.8141 24.8653 20.2161 25.8812 21.1248 26.624C22.6532 27.8733 25.0357 27.8758 26.4454 26.6295C27.0171 26.1244 27.3409 25.4916 27.4224 24.8341Z" stroke="#231F20" stroke-width="0.0853331" stroke-miterlimit="10"/>
<path d="M26.231 22.1102C27.7591 23.3596 27.8552 25.3835 26.4455 26.6297C25.0358 27.8759 22.6531 27.8734 21.1247 26.6244C19.5959 25.375 19.501 23.3518 20.911 22.1053C22.3208 20.859 24.7026 20.8606 26.231 22.1102Z" fill="#FDCD00"/>
<path d="M26.231 22.1102C27.7591 23.3596 27.8552 25.3835 26.4455 26.6297C25.0358 27.8759 22.6531 27.8734 21.1247 26.6244C19.5959 25.375 19.501 23.3518 20.911 22.1053C22.3208 20.859 24.7026 20.8606 26.231 22.1102Z" stroke="#231F20" stroke-width="0.0853333" stroke-miterlimit="10"/>
<path d="M24.0657 22.7515L24.3165 23.031L24.4194 23.1453L24.7735 23.5396L24.5307 23.7021L24.2798 23.4227L22.2634 24.7726L22.0573 24.5435L24.0738 23.1936L23.8229 22.9141L24.0657 22.7515Z" fill="#FDCD00" stroke="#231F20" stroke-width="0.213333" stroke-miterlimit="10"/>
<path d="M23.3488 21.9573L23.8962 22.5661L23.653 22.7287L23.3108 22.3481L22.5454 22.8605L22.8193 23.1656L22.5765 23.3282L22.3026 23.0231L21.538 23.5351L21.8802 23.9157L21.6374 24.0782L21.2952 23.6976L21.09 23.4694L22.0978 22.7948L22.3401 22.6318L23.106 22.1198L23.3488 21.9573Z" fill="#FDCD00" stroke="#231F20" stroke-width="0.213333" stroke-miterlimit="10"/>
<path d="M26.0399 25.1082C26.0259 25.2311 25.9508 25.3386 25.8155 25.4291L25.7903 25.447L25.4068 25.7038L25.2007 25.4751L25.5843 25.2183L25.6103 25.2012C25.6662 25.1633 25.7007 25.1172 25.7114 25.0638C25.7221 25.0109 25.7033 24.958 25.6564 24.9055C25.6436 24.891 25.6299 24.8782 25.6158 24.8676C25.5787 24.839 25.5369 24.8232 25.4925 24.8206C25.4298 24.8159 25.3701 24.8334 25.3133 24.8706L25.2877 24.8876L23.8994 25.8186L23.8742 25.8348C23.8166 25.8724 23.7842 25.9184 23.7722 25.9726C23.7615 26.026 23.7795 26.078 23.8272 26.1314C23.84 26.1459 23.8537 26.1582 23.8678 26.1693C23.9049 26.1971 23.9459 26.2128 23.9911 26.2163C24.0551 26.2201 24.1135 26.203 24.1711 26.1655L24.195 26.1484L24.6494 25.8442L24.8555 26.0729L24.4011 26.3775L24.3759 26.3938C24.2398 26.4851 24.1007 26.5209 23.9587 26.5021C23.8592 26.4885 23.7679 26.4501 23.6852 26.3874C23.6502 26.3605 23.6165 26.3293 23.5845 26.2939C23.4757 26.1727 23.4296 26.0516 23.4428 25.9278C23.4578 25.8037 23.532 25.6974 23.6672 25.6066L23.6933 25.5895L25.0825 24.6594L25.1085 24.6423C25.2442 24.5514 25.382 24.5151 25.5241 24.5339C25.6235 24.5471 25.7152 24.5855 25.7984 24.6487C25.8334 24.6756 25.8671 24.7071 25.8996 24.743C26.0075 24.8625 26.054 24.9853 26.0399 25.1082Z" fill="#FDCD00"/>
<path d="M26.0399 25.1082C26.0259 25.2311 25.9508 25.3386 25.8155 25.4291L25.7903 25.447L25.4068 25.7038L25.2007 25.4751L25.5843 25.2183L25.6103 25.2012C25.6662 25.1633 25.7007 25.1172 25.7114 25.0638C25.7221 25.0109 25.7033 24.958 25.6564 24.9055C25.6436 24.891 25.6299 24.8782 25.6158 24.8676C25.5787 24.839 25.5369 24.8232 25.4925 24.8206C25.4298 24.8159 25.3701 24.8334 25.3133 24.8706L25.2877 24.8876L23.8994 25.8186L23.8742 25.8348C23.8166 25.8724 23.7842 25.9184 23.7722 25.9726C23.7615 26.026 23.7795 26.078 23.8272 26.1314C23.84 26.1459 23.8537 26.1582 23.8678 26.1693C23.9049 26.1971 23.9459 26.2128 23.9911 26.2163C24.0551 26.2201 24.1135 26.203 24.1711 26.1655L24.195 26.1484L24.6494 25.8442L24.8555 26.0729L24.4011 26.3775L24.3759 26.3938C24.2398 26.4851 24.1007 26.5209 23.9587 26.5021C23.8592 26.4885 23.7679 26.4501 23.6852 26.3874C23.6502 26.3605 23.6165 26.3293 23.5845 26.2939C23.4757 26.1727 23.4296 26.0516 23.4428 25.9278C23.4578 25.8037 23.532 25.6974 23.6672 25.6066L23.6933 25.5895L25.0825 24.6594L25.1085 24.6423C25.2442 24.5514 25.382 24.5151 25.5241 24.5339C25.6235 24.5471 25.7152 24.5855 25.7984 24.6487C25.8334 24.6756 25.8671 24.7071 25.8996 24.743C26.0075 24.8625 26.054 24.9853 26.0399 25.1082Z" stroke="#231F20" stroke-width="0.213333" stroke-miterlimit="10"/>
<path d="M24.9965 23.7879L25.2025 24.017L22.9429 25.53L22.7369 25.301L24.9965 23.7879Z" fill="#FDCD00" stroke="#231F20" stroke-width="0.213333" stroke-miterlimit="10"/>
<mask id="mask3_21_17121" style="mask-type:luminance" maskUnits="userSpaceOnUse" x="9" y="28" width="9" height="6">
<path d="M9.98945 30.2749C9.86999 31.2388 10.2719 32.2551 11.1807 32.9979C12.709 34.2472 15.0915 34.2498 16.5017 33.003C17.073 32.4979 17.3968 31.8651 17.4787 31.2081L17.6976 29.4421C17.6161 30.0996 17.2918 30.7323 16.7205 31.2371C15.3108 32.4838 12.9283 32.4812 11.4 31.232C10.4908 30.4891 10.0889 29.4732 10.2088 28.5094L9.98945 30.2749Z" fill="white"/>
</mask>
<g mask="url(#mask3_21_17121)">
<path d="M17.6976 29.4412L17.4787 31.2071C17.3972 31.8642 17.073 32.4974 16.5017 33.0026C15.092 34.2488 12.709 34.2463 11.1807 32.997C10.2723 32.2542 9.87 31.2379 9.98947 30.274L10.2088 28.5081C10.0893 29.4723 10.4912 30.4882 11.4 31.231C12.9283 32.4803 15.3108 32.4829 16.7205 31.2366C17.2919 30.7314 17.6161 30.0987 17.6976 29.4412Z" fill="black" stroke="#231F20" stroke-width="0.0853331" stroke-miterlimit="10"/>
</g>
<path d="M17.6976 29.4421L17.4787 31.2081C17.3972 31.8651 17.0729 32.4983 16.5016 33.0035C15.0919 34.2498 12.709 34.2472 11.1807 32.9979C10.2723 32.2551 9.86997 31.2388 9.98944 30.2749L10.2087 28.509C10.0893 29.4732 10.4912 30.4891 11.4 31.232C12.9283 32.4812 15.3108 32.4838 16.7205 31.2375C17.2918 30.7323 17.6161 30.0996 17.6976 29.4421Z" stroke="#231F20" stroke-width="0.0853331" stroke-miterlimit="10"/>
<path d="M16.5061 26.7183C18.0343 27.9676 18.1304 29.9915 16.7206 31.2377C15.3109 32.4839 12.9283 32.4815 11.3998 31.2324C9.87105 29.983 9.77615 27.9598 11.1862 26.7133C12.5959 25.4671 14.9777 25.4686 16.5061 26.7183Z" fill="#FDCD00"/>
<path d="M16.5061 26.7183C18.0343 27.9676 18.1304 29.9915 16.7206 31.2377C15.3109 32.4839 12.9283 32.4815 11.3998 31.2324C9.87105 29.983 9.77615 27.9598 11.1862 26.7133C12.5959 25.4671 14.9777 25.4686 16.5061 26.7183Z" stroke="#231F20" stroke-width="0.0853333" stroke-miterlimit="10"/>
<path d="M14.3377 27.3627L14.5886 27.6422L14.6914 27.7565L15.0455 28.1508L14.8028 28.3133L14.5519 28.0339L12.5355 29.3838L12.3294 29.1547L14.3458 27.8048L14.0949 27.5253L14.3377 27.3627Z" fill="#FDCD00" stroke="#231F20" stroke-width="0.213333" stroke-miterlimit="10"/>
<path d="M13.6239 26.5685L14.1713 27.1773L13.9281 27.3399L13.5859 26.9593L12.8205 27.4717L13.0944 27.7768L12.8516 27.9394L12.5777 27.6343L11.8131 28.1463L12.1553 28.5269L11.9126 28.6894L11.5704 28.3089L11.3651 28.0806L12.3729 27.406L12.6153 27.243L13.3811 26.731L13.6239 26.5685Z" fill="#FDCD00" stroke="#231F20" stroke-width="0.213333" stroke-miterlimit="10"/>
<path d="M16.312 29.7162C16.2979 29.8391 16.2228 29.9466 16.0875 30.0371L16.0624 30.055L15.6788 30.3119L15.4727 30.0832L15.8563 29.8263L15.8823 29.8093C15.9382 29.7713 15.9728 29.7252 15.9834 29.6719C15.9941 29.619 15.9753 29.5661 15.9284 29.5136C15.9156 29.4991 15.9019 29.4863 15.8879 29.4756C15.8507 29.447 15.8089 29.4312 15.7646 29.4287C15.7014 29.424 15.6421 29.4415 15.5854 29.4786L15.5598 29.4957L14.1714 30.4266L14.1462 30.4429C14.0886 30.4808 14.0562 30.5265 14.0442 30.5807C14.0336 30.634 14.0515 30.6861 14.0993 30.7394C14.1121 30.7539 14.1257 30.7663 14.1398 30.7774C14.1769 30.8051 14.2179 30.8209 14.2631 30.8243C14.3271 30.8281 14.3856 30.8111 14.4432 30.7735L14.4671 30.7565L14.9215 30.4522L15.1275 30.6809L14.6731 30.9856L14.648 31.0018C14.5119 31.0931 14.3728 31.1289 14.2307 31.1102C14.1309 31.0965 14.04 31.0581 13.9572 30.9954C13.9222 30.9685 13.8885 30.9374 13.8565 30.9019C13.7477 30.7808 13.7016 30.6596 13.7149 30.5359C13.7298 30.4117 13.804 30.3055 13.9393 30.2146L13.9653 30.1975L15.3545 29.2674L15.3806 29.2503C15.5162 29.1594 15.654 29.1232 15.7961 29.142C15.8955 29.1552 15.9873 29.1936 16.0705 29.2567C16.1055 29.2836 16.1392 29.3152 16.1716 29.351C16.2795 29.4705 16.326 29.5934 16.312 29.7162Z" fill="#FDCD00"/>
<path d="M16.312 29.7162C16.2979 29.8391 16.2228 29.9466 16.0875 30.0371L16.0624 30.055L15.6788 30.3119L15.4727 30.0832L15.8563 29.8263L15.8823 29.8093C15.9382 29.7713 15.9728 29.7252 15.9834 29.6719C15.9941 29.619 15.9753 29.5661 15.9284 29.5136C15.9156 29.4991 15.9019 29.4863 15.8879 29.4756C15.8507 29.447 15.8089 29.4312 15.7646 29.4287C15.7014 29.424 15.6421 29.4415 15.5854 29.4786L15.5598 29.4957L14.1714 30.4266L14.1462 30.4429C14.0886 30.4808 14.0562 30.5265 14.0442 30.5807C14.0336 30.634 14.0515 30.6861 14.0993 30.7394C14.1121 30.7539 14.1257 30.7663 14.1398 30.7774C14.1769 30.8051 14.2179 30.8209 14.2631 30.8243C14.3271 30.8281 14.3856 30.8111 14.4432 30.7735L14.4671 30.7565L14.9215 30.4522L15.1275 30.6809L14.6731 30.9856L14.648 31.0018C14.5119 31.0931 14.3728 31.1289 14.2307 31.1102C14.1309 31.0965 14.04 31.0581 13.9572 30.9954C13.9222 30.9685 13.8885 30.9374 13.8565 30.9019C13.7477 30.7808 13.7016 30.6596 13.7149 30.5359C13.7298 30.4117 13.804 30.3055 13.9393 30.2146L13.9653 30.1975L15.3545 29.2674L15.3806 29.2503C15.5162 29.1594 15.654 29.1232 15.7961 29.142C15.8955 29.1552 15.9873 29.1936 16.0705 29.2567C16.1055 29.2836 16.1392 29.3152 16.1716 29.351C16.2795 29.4705 16.326 29.5934 16.312 29.7162Z" stroke="#231F20" stroke-width="0.213333" stroke-miterlimit="10"/>
<path d="M15.2718 28.3991L15.4778 28.6281L13.2182 30.1411L13.0122 29.9121L15.2718 28.3991Z" fill="#FDCD00" stroke="#231F20" stroke-width="0.213333" stroke-miterlimit="10"/>
</svg>
