<svg width="54" height="59" viewBox="0 0 54 59" fill="none" xmlns="http://www.w3.org/2000/svg">
<path d="M52.7843 18.7466L49.7873 32.3166L9.64422 50.9983L12.6412 37.4284L52.7843 18.7466Z" fill="#BA9400" stroke="#231F20" stroke-width="1.28" stroke-miterlimit="10" stroke-linecap="round" stroke-linejoin="round"/>
<path d="M12.6411 37.4279L9.64419 50.9974L1.48971 42.1227L4.48657 28.5532L12.6411 37.4279Z" fill="#7B6400" stroke="#231F20" stroke-width="1.28" stroke-miterlimit="10" stroke-linecap="round" stroke-linejoin="round"/>
<path d="M44.6285 9.87094L52.7833 18.7456L12.64 37.4275L4.48511 28.5528L44.6285 9.87094Z" fill="#FDCD00" stroke="#231F20" stroke-width="1.28" stroke-miterlimit="10" stroke-linecap="round" stroke-linejoin="round"/>
<mask id="mask0_3_2036" style="mask-type:luminance" maskUnits="userSpaceOnUse" x="29" y="19" width="9" height="6">
<path d="M29.6631 21.2606C29.5436 22.2244 29.946 23.2407 30.8544 23.9835C32.3827 25.2328 34.7656 25.235 36.1753 23.9887C36.7466 23.4839 37.0705 22.8503 37.1524 22.1937L37.3713 20.4277C37.2898 21.0848 36.9659 21.7175 36.3942 22.2231C34.9849 23.469 32.602 23.4669 31.0737 22.2176C30.1649 21.4748 29.7625 20.4584 29.8824 19.4946L29.6631 21.2606Z" fill="white"/>
</mask>
<g mask="url(#mask0_3_2036)">
<path d="M37.3713 20.4277L37.1524 22.1937C37.0709 22.8508 36.7466 23.4839 36.1753 23.9891C34.7656 25.2354 32.3827 25.2328 30.8544 23.9835C29.946 23.2407 29.5436 22.2244 29.6631 21.2606L29.8824 19.4946C29.763 20.4589 30.1649 21.4748 31.0737 22.2176C32.602 23.4669 34.9845 23.4694 36.3942 22.2231C36.9659 21.718 37.2898 21.0852 37.3713 20.4277Z" fill="black" stroke="#231F20" stroke-width="0.0853331" stroke-miterlimit="10"/>
</g>
<mask id="mask1_3_2036" style="mask-type:luminance" maskUnits="userSpaceOnUse" x="39" y="14" width="8" height="7">
<path d="M39.2574 16.5418C39.1379 17.5057 39.5402 18.522 40.4486 19.2648C41.9769 20.5141 44.3598 20.5162 45.7696 19.2699C46.3409 18.7652 46.6647 18.1316 46.7466 17.4749L46.9655 15.709C46.884 16.366 46.5602 16.9988 45.9884 17.5044C44.5792 18.7502 42.1962 18.7481 40.6679 17.4988C39.7591 16.756 39.3568 15.7397 39.4767 14.7758L39.2574 16.5418Z" fill="white"/>
</mask>
<g mask="url(#mask1_3_2036)">
<path d="M46.9655 15.709L46.7466 17.4749C46.6651 18.132 46.3409 18.7652 45.7696 19.2703C44.3598 20.5166 41.9769 20.5141 40.4486 19.2648C39.5402 18.522 39.1379 17.5057 39.2574 16.5418L39.4767 14.7758C39.3572 15.7401 39.7591 16.756 40.6679 17.4988C42.1962 18.7481 44.5787 18.7507 45.9884 17.5044C46.5602 16.9992 46.884 16.3665 46.9655 15.709Z" fill="black" stroke="#231F20" stroke-width="0.0853331" stroke-miterlimit="10"/>
</g>
<path d="M37.3713 20.4277L37.1524 22.1937C37.0709 22.8508 36.7466 23.4839 36.1753 23.9891C34.7656 25.2354 32.3827 25.2328 30.8544 23.9835C29.946 23.2407 29.5436 22.2244 29.6631 21.2606L29.8824 19.4946C29.763 20.4589 30.1649 21.4748 31.0737 22.2176C32.602 23.4669 34.9845 23.4694 36.3942 22.2231C36.9659 21.718 37.2898 21.0852 37.3713 20.4277Z" stroke="#231F20" stroke-width="0.0853331" stroke-miterlimit="10"/>
<path d="M36.1797 17.7036C37.7079 18.9529 37.8037 20.977 36.394 22.2233C34.9843 23.4696 32.602 23.4669 31.0738 22.2177C29.545 20.9683 29.45 18.9452 30.8597 17.6989C32.2694 16.4526 34.6515 16.4543 36.1797 17.7036Z" fill="#FDCD00"/>
<path d="M36.1797 17.7036C37.7079 18.9529 37.8037 20.977 36.394 22.2233C34.9843 23.4696 32.602 23.4669 31.0738 22.2177C29.545 20.9683 29.45 18.9452 30.8597 17.6989C32.2694 16.4526 34.6515 16.4543 36.1797 17.7036Z" stroke="#231F20" stroke-width="0.0853334" stroke-miterlimit="10"/>
<path d="M34.0144 18.3451L34.2653 18.6246L34.3681 18.739L34.7223 19.1332L34.4791 19.2957L34.2286 19.0163L32.2122 20.3663L32.0061 20.1371L34.0225 18.7872L33.7716 18.5077L34.0144 18.3451Z" fill="#FDCD00" stroke="#231F20" stroke-width="0.213333" stroke-miterlimit="10"/>
<path d="M33.3008 17.5509L33.8482 18.1597L33.605 18.3223L33.2628 17.9417L32.4973 18.4541L32.7713 18.7592L32.5285 18.9218L32.2546 18.6167L31.49 19.1287L31.8322 19.5093L31.5894 19.6718L31.2472 19.2913L31.042 19.063L32.0498 18.3884L32.2921 18.2254L33.058 17.7134L33.3008 17.5509Z" fill="#FDCD00" stroke="#231F20" stroke-width="0.213333" stroke-miterlimit="10"/>
<path d="M35.989 20.7018C35.9749 20.8247 35.8998 20.9322 35.7645 21.0227L35.7394 21.0406L35.3558 21.2974L35.1497 21.0687L35.5333 20.8119L35.5593 20.7948C35.6152 20.7568 35.6493 20.7108 35.6604 20.6574C35.6711 20.6045 35.6523 20.5516 35.6054 20.4991C35.5926 20.4846 35.5789 20.4718 35.5649 20.4612C35.5277 20.4326 35.4859 20.4168 35.4416 20.4142C35.3784 20.4095 35.3191 20.427 35.2624 20.4642L35.2363 20.4812L33.8484 21.4122L33.8232 21.4284C33.7656 21.466 33.7332 21.512 33.7212 21.5662C33.7106 21.6196 33.7285 21.6716 33.7763 21.725C33.7891 21.7395 33.8027 21.7518 33.8168 21.7629C33.8539 21.7907 33.8949 21.8064 33.9401 21.8099C34.0041 21.8137 34.0626 21.7966 34.1202 21.7591L34.1441 21.742L34.5985 21.4378L34.8045 21.6665L34.3501 21.9711L34.325 21.9874C34.1889 22.0787 34.0498 22.1145 33.9077 22.0957C33.8079 22.0821 33.717 22.0437 33.6342 21.981C33.5992 21.9541 33.5655 21.9229 33.5335 21.8875C33.4247 21.7663 33.3786 21.6452 33.3919 21.5214C33.4068 21.3973 33.481 21.291 33.6163 21.2002L33.6423 21.1831L35.0315 20.253L35.0576 20.2359C35.1928 20.145 35.3311 20.1087 35.4731 20.1275C35.5725 20.1407 35.6643 20.1791 35.7471 20.2423C35.7825 20.2692 35.8162 20.3007 35.8486 20.3366C35.9565 20.456 36.003 20.5789 35.989 20.7018Z" fill="#FDCD00"/>
<path d="M35.989 20.7018C35.9749 20.8247 35.8998 20.9322 35.7645 21.0227L35.7394 21.0406L35.3558 21.2974L35.1497 21.0687L35.5333 20.8119L35.5593 20.7948C35.6152 20.7568 35.6493 20.7108 35.6604 20.6574C35.6711 20.6045 35.6523 20.5516 35.6054 20.4991C35.5926 20.4846 35.5789 20.4718 35.5649 20.4612C35.5277 20.4326 35.4859 20.4168 35.4416 20.4142C35.3784 20.4095 35.3191 20.427 35.2624 20.4642L35.2363 20.4812L33.8484 21.4122L33.8232 21.4284C33.7656 21.466 33.7332 21.512 33.7212 21.5662C33.7106 21.6196 33.7285 21.6716 33.7763 21.725C33.7891 21.7395 33.8027 21.7518 33.8168 21.7629C33.8539 21.7907 33.8949 21.8064 33.9401 21.8099C34.0041 21.8137 34.0626 21.7966 34.1202 21.7591L34.1441 21.742L34.5985 21.4378L34.8045 21.6665L34.3501 21.9711L34.325 21.9874C34.1889 22.0787 34.0498 22.1145 33.9077 22.0957C33.8079 22.0821 33.717 22.0437 33.6342 21.981C33.5992 21.9541 33.5655 21.9229 33.5335 21.8875C33.4247 21.7663 33.3786 21.6452 33.3919 21.5214C33.4068 21.3973 33.481 21.291 33.6163 21.2002L33.6423 21.1831L35.0315 20.253L35.0576 20.2359C35.1928 20.145 35.3311 20.1087 35.4731 20.1275C35.5725 20.1407 35.6643 20.1791 35.7471 20.2423C35.7825 20.2692 35.8162 20.3007 35.8486 20.3366C35.9565 20.456 36.003 20.5789 35.989 20.7018Z" stroke="#231F20" stroke-width="0.213333" stroke-miterlimit="10"/>
<path d="M34.9454 19.3815L35.1514 19.6106L32.8918 21.1236L32.6858 20.8946L34.9454 19.3815Z" fill="#FDCD00" stroke="#231F20" stroke-width="0.213333" stroke-miterlimit="10"/>
<path d="M46.9472 15.6948L46.7283 17.4607C46.6468 18.1178 46.3225 18.751 45.7512 19.2562C44.3415 20.5024 41.9586 20.4999 40.4303 19.2506C39.5219 18.5078 39.1196 17.4915 39.239 16.5276L39.4583 14.7617C39.3389 15.7259 39.7408 16.7418 40.6496 17.4846C42.1779 18.7339 44.5604 18.7365 45.9701 17.4902C46.5419 16.985 46.8657 16.3523 46.9472 15.6948Z" stroke="#231F20" stroke-width="0.0853331" stroke-miterlimit="10"/>
<path d="M45.7553 12.9706C47.2835 14.2199 47.3794 16.2441 45.9697 17.4904C44.56 18.7367 42.1777 18.734 40.6495 17.4847C39.1207 16.2354 39.0257 14.2122 40.4354 12.9659C41.8451 11.7196 44.2271 11.7214 45.7553 12.9706Z" fill="#FDCD00"/>
<path d="M45.7553 12.9706C47.2835 14.2199 47.3794 16.2441 45.9697 17.4904C44.56 18.7367 42.1777 18.734 40.6495 17.4847C39.1207 16.2354 39.0257 14.2122 40.4354 12.9659C41.8451 11.7196 44.2271 11.7214 45.7553 12.9706Z" stroke="#231F20" stroke-width="0.0853334" stroke-miterlimit="10"/>
<path d="M43.5901 13.6122L43.841 13.8917L43.9438 14.006L44.2979 14.4002L44.0547 14.5628L43.8043 14.2833L41.7879 15.6333L41.5818 15.4042L43.5982 14.0542L43.3473 13.7748L43.5901 13.6122Z" fill="#FDCD00" stroke="#231F20" stroke-width="0.213333" stroke-miterlimit="10"/>
<path d="M42.8764 12.8179L43.4239 13.4268L43.1807 13.5893L42.8385 13.2088L42.073 13.7212L42.347 14.0262L42.1042 14.1888L41.8303 13.8837L41.0657 14.3957L41.4079 14.7763L41.1651 14.9389L40.8229 14.5583L40.6177 14.33L41.6255 13.6555L41.8678 13.4925L42.6337 12.9805L42.8764 12.8179Z" fill="#FDCD00" stroke="#231F20" stroke-width="0.213333" stroke-miterlimit="10"/>
<path d="M45.5647 15.9689C45.5506 16.0917 45.4755 16.1993 45.3402 16.2897L45.3151 16.3076L44.9315 16.5645L44.7254 16.3358L45.109 16.0789L45.135 16.0619C45.1909 16.0239 45.225 15.9778 45.2361 15.9245C45.2468 15.8716 45.228 15.8187 45.1811 15.7662C45.1683 15.7517 45.1546 15.7389 45.1405 15.7282C45.1034 15.6996 45.0616 15.6839 45.0172 15.6813C44.9541 15.6766 44.8948 15.6941 44.838 15.7312L44.812 15.7483L43.4241 16.6793L43.3989 16.6955C43.3413 16.733 43.3089 16.7791 43.2969 16.8333C43.2863 16.8866 43.3042 16.9387 43.352 16.992C43.3648 17.0065 43.3784 17.0189 43.3925 17.03C43.4296 17.0577 43.4706 17.0735 43.5158 17.0769C43.5798 17.0808 43.6383 17.0637 43.6959 17.0261L43.7198 17.0091L44.1742 16.7049L44.3802 16.9336L43.9258 17.2382L43.9007 17.2544C43.7646 17.3457 43.6255 17.3816 43.4834 17.3628C43.3835 17.3491 43.2927 17.3107 43.2099 17.248C43.1749 17.2211 43.1412 17.19 43.1092 17.1546C43.0004 17.0334 42.9543 16.9122 42.9675 16.7885C42.9825 16.6643 43.0567 16.5581 43.192 16.4672L43.218 16.4501L44.6072 15.52L44.6332 15.5029C44.7685 15.4121 44.9067 15.3758 45.0488 15.3946C45.1482 15.4078 45.24 15.4462 45.3227 15.5093C45.3581 15.5362 45.3919 15.5678 45.4243 15.6036C45.5322 15.7231 45.5787 15.846 45.5647 15.9689Z" fill="#FDCD00"/>
<path d="M45.5647 15.9689C45.5506 16.0917 45.4755 16.1993 45.3402 16.2897L45.3151 16.3076L44.9315 16.5645L44.7254 16.3358L45.109 16.0789L45.135 16.0619C45.1909 16.0239 45.225 15.9778 45.2361 15.9245C45.2468 15.8716 45.228 15.8187 45.1811 15.7662C45.1683 15.7517 45.1546 15.7389 45.1405 15.7282C45.1034 15.6996 45.0616 15.6839 45.0172 15.6813C44.9541 15.6766 44.8948 15.6941 44.838 15.7312L44.812 15.7483L43.4241 16.6793L43.3989 16.6955C43.3413 16.733 43.3089 16.7791 43.2969 16.8333C43.2863 16.8866 43.3042 16.9387 43.352 16.992C43.3648 17.0065 43.3784 17.0189 43.3925 17.03C43.4296 17.0577 43.4706 17.0735 43.5158 17.0769C43.5798 17.0808 43.6383 17.0637 43.6959 17.0261L43.7198 17.0091L44.1742 16.7049L44.3802 16.9336L43.9258 17.2382L43.9007 17.2544C43.7646 17.3457 43.6255 17.3816 43.4834 17.3628C43.3835 17.3491 43.2927 17.3107 43.2099 17.248C43.1749 17.2211 43.1412 17.19 43.1092 17.1546C43.0004 17.0334 42.9543 16.9122 42.9675 16.7885C42.9825 16.6643 43.0567 16.5581 43.192 16.4672L43.218 16.4501L44.6072 15.52L44.6332 15.5029C44.7685 15.4121 44.9067 15.3758 45.0488 15.3946C45.1482 15.4078 45.24 15.4462 45.3227 15.5093C45.3581 15.5362 45.3919 15.5678 45.4243 15.6036C45.5322 15.7231 45.5787 15.846 45.5647 15.9689Z" stroke="#231F20" stroke-width="0.213333" stroke-miterlimit="10"/>
<path d="M44.5211 14.6486L44.7271 14.8776L42.4675 16.3906L42.2615 16.1616L44.5211 14.6486Z" fill="#FDCD00" stroke="#231F20" stroke-width="0.213333" stroke-miterlimit="10"/>
<mask id="mask2_3_2036" style="mask-type:luminance" maskUnits="userSpaceOnUse" x="19" y="23" width="9" height="7">
<path d="M19.7146 25.6665C19.5943 26.6308 19.9967 27.6476 20.9055 28.39C22.4338 29.6397 24.8163 29.6418 26.2264 28.3951C26.7977 27.8903 27.1216 27.2576 27.2031 26.6001L27.4224 24.8337C27.3404 25.4916 27.0166 26.1244 26.4449 26.6295C25.0356 27.8762 22.6527 27.8737 21.1243 26.6244C20.216 25.8816 19.8141 24.8653 19.9331 23.9014L19.7146 25.6665Z" fill="white"/>
</mask>
<g mask="url(#mask2_3_2036)">
<path d="M27.422 24.8332L27.2032 26.5992C27.1217 27.2563 26.7974 27.8894 26.2261 28.3946C24.8164 29.6409 22.4335 29.6383 20.9051 28.3891C19.9968 27.6462 19.5944 26.6299 19.7139 25.6661L19.9332 23.9001C19.8137 24.8644 20.2157 25.8803 21.1245 26.6231C22.6528 27.8724 25.0353 27.8749 26.445 26.6286C27.0167 26.1235 27.3405 25.4907 27.422 24.8332Z" fill="black" stroke="#231F20" stroke-width="0.0853331" stroke-miterlimit="10"/>
</g>
<path d="M27.4225 24.8341L27.2036 26.6001C27.1222 27.2572 26.7979 27.8903 26.2266 28.3955C24.8169 29.6418 22.434 29.6392 20.9056 28.39C19.9973 27.6471 19.5949 26.6308 19.7144 25.667L19.9337 23.901C19.8142 24.8653 20.2161 25.8812 21.1249 26.624C22.6533 27.8733 25.0358 27.8758 26.4455 26.6295C27.0172 26.1244 27.341 25.4916 27.4225 24.8341Z" stroke="#231F20" stroke-width="0.0853331" stroke-miterlimit="10"/>
<path d="M26.231 22.1102C27.7592 23.3596 27.8552 25.3835 26.4455 26.6297C25.0358 27.8759 22.6532 27.8734 21.1247 26.6244C19.5959 25.375 19.501 23.3518 20.9111 22.1053C22.3208 20.859 24.7026 20.8606 26.231 22.1102Z" fill="#FDCD00"/>
<path d="M26.231 22.1102C27.7592 23.3596 27.8552 25.3835 26.4455 26.6297C25.0358 27.8759 22.6532 27.8734 21.1247 26.6244C19.5959 25.375 19.501 23.3518 20.9111 22.1053C22.3208 20.859 24.7026 20.8606 26.231 22.1102Z" stroke="#231F20" stroke-width="0.0853333" stroke-miterlimit="10"/>
<path d="M24.0657 22.7515L24.3166 23.031L24.4194 23.1454L24.7735 23.5396L24.5308 23.7022L24.2799 23.4227L22.2635 24.7727L22.0574 24.5435L24.0738 23.1936L23.8229 22.9141L24.0657 22.7515Z" fill="#FDCD00" stroke="#231F20" stroke-width="0.213333" stroke-miterlimit="10"/>
<path d="M23.3489 21.9573L23.8963 22.5661L23.6531 22.7287L23.3109 22.3481L22.5454 22.8605L22.8194 23.1656L22.5766 23.3282L22.3027 23.0231L21.5381 23.5351L21.8803 23.9157L21.6375 24.0782L21.2953 23.6977L21.0901 23.4694L22.0979 22.7948L22.3402 22.6318L23.1061 22.1199L23.3489 21.9573Z" fill="#FDCD00" stroke="#231F20" stroke-width="0.213333" stroke-miterlimit="10"/>
<path d="M26.04 25.1082C26.0259 25.2311 25.9508 25.3386 25.8156 25.4291L25.7904 25.447L25.4068 25.7039L25.2007 25.4752L25.5843 25.2183L25.6103 25.2012C25.6662 25.1633 25.7008 25.1172 25.7115 25.0639C25.7221 25.0109 25.7034 24.958 25.6564 24.9056C25.6436 24.8911 25.63 24.8783 25.6159 24.8676C25.5788 24.839 25.537 24.8232 25.4926 24.8207C25.4299 24.816 25.3701 24.8335 25.3134 24.8706L25.2878 24.8876L23.8994 25.8186L23.8742 25.8348C23.8166 25.8724 23.7842 25.9185 23.7723 25.9726C23.7616 26.026 23.7795 26.078 23.8273 26.1314C23.8401 26.1459 23.8538 26.1582 23.8678 26.1693C23.905 26.1971 23.9459 26.2129 23.9911 26.2163C24.0551 26.2201 24.1136 26.203 24.1712 26.1655L24.1951 26.1484L24.6495 25.8442L24.8556 26.0729L24.4012 26.3776L24.376 26.3938C24.2399 26.4851 24.1008 26.5209 23.9587 26.5021C23.8593 26.4885 23.768 26.4501 23.6852 26.3874C23.6502 26.3605 23.6165 26.3293 23.5845 26.2939C23.4757 26.1728 23.4297 26.0516 23.4429 25.9279C23.4578 25.8037 23.5321 25.6975 23.6673 25.6066L23.6933 25.5895L25.0826 24.6594L25.1086 24.6423C25.2443 24.5514 25.3821 24.5152 25.5242 24.5339C25.6236 24.5472 25.7153 24.5856 25.7985 24.6487C25.8335 24.6756 25.8672 24.7072 25.8996 24.743C26.0076 24.8625 26.0541 24.9853 26.04 25.1082Z" fill="#FDCD00"/>
<path d="M26.04 25.1082C26.0259 25.2311 25.9508 25.3386 25.8156 25.4291L25.7904 25.447L25.4068 25.7039L25.2007 25.4752L25.5843 25.2183L25.6103 25.2012C25.6662 25.1633 25.7008 25.1172 25.7115 25.0639C25.7221 25.0109 25.7034 24.958 25.6564 24.9056C25.6436 24.8911 25.63 24.8783 25.6159 24.8676C25.5788 24.839 25.537 24.8232 25.4926 24.8207C25.4299 24.816 25.3701 24.8335 25.3134 24.8706L25.2878 24.8876L23.8994 25.8186L23.8742 25.8348C23.8166 25.8724 23.7842 25.9185 23.7723 25.9726C23.7616 26.026 23.7795 26.078 23.8273 26.1314C23.8401 26.1459 23.8538 26.1582 23.8678 26.1693C23.905 26.1971 23.9459 26.2129 23.9911 26.2163C24.0551 26.2201 24.1136 26.203 24.1712 26.1655L24.1951 26.1484L24.6495 25.8442L24.8556 26.0729L24.4012 26.3776L24.376 26.3938C24.2399 26.4851 24.1008 26.5209 23.9587 26.5021C23.8593 26.4885 23.768 26.4501 23.6852 26.3874C23.6502 26.3605 23.6165 26.3293 23.5845 26.2939C23.4757 26.1728 23.4297 26.0516 23.4429 25.9279C23.4578 25.8037 23.5321 25.6975 23.6673 25.6066L23.6933 25.5895L25.0826 24.6594L25.1086 24.6423C25.2443 24.5514 25.3821 24.5152 25.5242 24.5339C25.6236 24.5472 25.7153 24.5856 25.7985 24.6487C25.8335 24.6756 25.8672 24.7072 25.8996 24.743C26.0076 24.8625 26.0541 24.9853 26.04 25.1082Z" stroke="#231F20" stroke-width="0.213333" stroke-miterlimit="10"/>
<path d="M24.9964 23.7879L25.2024 24.017L22.9428 25.53L22.7368 25.301L24.9964 23.7879Z" fill="#FDCD00" stroke="#231F20" stroke-width="0.213333" stroke-miterlimit="10"/>
<mask id="mask3_3_2036" style="mask-type:luminance" maskUnits="userSpaceOnUse" x="9" y="28" width="9" height="6">
<path d="M9.98955 30.2749C9.87008 31.2388 10.272 32.2551 11.1808 32.9979C12.7091 34.2472 15.0916 34.2498 16.5017 33.003C17.073 32.4979 17.3969 31.8651 17.4788 31.2081L17.6977 29.4421C17.6162 30.0996 17.2919 30.7323 16.7206 31.2371C15.3109 32.4838 12.9284 32.4812 11.4001 31.232C10.4909 30.4891 10.089 29.4732 10.2089 28.5094L9.98955 30.2749Z" fill="white"/>
</mask>
<g mask="url(#mask3_3_2036)">
<path d="M17.6977 29.4412L17.4788 31.2072C17.3973 31.8642 17.073 32.4974 16.5017 33.0026C15.092 34.2489 12.7091 34.2463 11.1808 32.997C10.2724 32.2542 9.87006 31.2379 9.98953 30.274L10.2088 28.5081C10.0894 29.4723 10.4913 30.4882 11.4001 31.2311C12.9284 32.4803 15.3109 32.4829 16.7206 31.2366C17.2919 30.7314 17.6162 30.0987 17.6977 29.4412Z" fill="black" stroke="#231F20" stroke-width="0.0853331" stroke-miterlimit="10"/>
</g>
<path d="M17.6977 29.4421L17.4788 31.2081C17.3973 31.8651 17.073 32.4983 16.5017 33.0035C15.092 34.2498 12.7091 34.2472 11.1808 32.9979C10.2724 32.2551 9.87006 31.2388 9.98953 30.2749L10.2088 28.509C10.0894 29.4732 10.4913 30.4891 11.4001 31.232C12.9284 32.4812 15.3109 32.4838 16.7206 31.2375C17.2919 30.7323 17.6162 30.0996 17.6977 29.4421Z" stroke="#231F20" stroke-width="0.0853331" stroke-miterlimit="10"/>
<path d="M16.5062 26.7182C18.0343 27.9676 18.1304 29.9915 16.7207 31.2377C15.3109 32.4839 12.9283 32.4814 11.3998 31.2324C9.87108 29.983 9.77618 27.9598 11.1862 26.7133C12.5959 25.467 14.9777 25.4686 16.5062 26.7182Z" fill="#FDCD00"/>
<path d="M16.5062 26.7182C18.0343 27.9676 18.1304 29.9915 16.7207 31.2377C15.3109 32.4839 12.9283 32.4814 11.3998 31.2324C9.87108 29.983 9.77618 27.9598 11.1862 26.7133C12.5959 25.467 14.9777 25.4686 16.5062 26.7182Z" stroke="#231F20" stroke-width="0.0853333" stroke-miterlimit="10"/>
<path d="M14.3377 27.3627L14.5885 27.6422L14.6914 27.7565L15.0455 28.1508L14.8027 28.3133L14.5518 28.0339L12.5354 29.3838L12.3293 29.1547L14.3458 27.8048L14.0949 27.5253L14.3377 27.3627Z" fill="#FDCD00" stroke="#231F20" stroke-width="0.213333" stroke-miterlimit="10"/>
<path d="M13.624 26.5685L14.1714 27.1773L13.9282 27.3399L13.586 26.9593L12.8206 27.4717L13.0945 27.7768L12.8517 27.9394L12.5778 27.6343L11.8132 28.1463L12.1554 28.5269L11.9126 28.6895L11.5705 28.3089L11.3652 28.0806L12.373 27.406L12.6154 27.2431L13.3812 26.7311L13.624 26.5685Z" fill="#FDCD00" stroke="#231F20" stroke-width="0.213333" stroke-miterlimit="10"/>
<path d="M16.312 29.7162C16.2979 29.8391 16.2228 29.9466 16.0875 30.0371L16.0624 30.055L15.6788 30.3119L15.4727 30.0832L15.8563 29.8263L15.8823 29.8092C15.9382 29.7713 15.9728 29.7252 15.9834 29.6719C15.9941 29.6189 15.9753 29.566 15.9284 29.5136C15.9156 29.4991 15.9019 29.4863 15.8879 29.4756C15.8507 29.447 15.8089 29.4312 15.7646 29.4287C15.7014 29.424 15.6421 29.4415 15.5854 29.4786L15.5598 29.4956L14.1714 30.4266L14.1462 30.4428C14.0886 30.4808 14.0562 30.5265 14.0442 30.5807C14.0336 30.634 14.0515 30.686 14.0993 30.7394C14.1121 30.7539 14.1257 30.7663 14.1398 30.7773C14.1769 30.8051 14.2179 30.8209 14.2631 30.8243C14.3271 30.8281 14.3856 30.8111 14.4432 30.7735L14.4671 30.7564L14.9215 30.4522L15.1275 30.6809L14.6731 30.9856L14.648 31.0018C14.5119 31.0931 14.3728 31.1289 14.2307 31.1101C14.1309 31.0965 14.04 31.0581 13.9572 30.9954C13.9222 30.9685 13.8885 30.9373 13.8565 30.9019C13.7477 30.7808 13.7016 30.6596 13.7149 30.5359C13.7298 30.4117 13.804 30.3055 13.9393 30.2146L13.9653 30.1975L15.3545 29.2674L15.3806 29.2503C15.5162 29.1594 15.654 29.1232 15.7961 29.1419C15.8955 29.1552 15.9873 29.1936 16.0705 29.2567C16.1055 29.2836 16.1392 29.3152 16.1716 29.351C16.2795 29.4705 16.326 29.5933 16.312 29.7162Z" fill="#FDCD00"/>
<path d="M16.312 29.7162C16.2979 29.8391 16.2228 29.9466 16.0875 30.0371L16.0624 30.055L15.6788 30.3119L15.4727 30.0832L15.8563 29.8263L15.8823 29.8092C15.9382 29.7713 15.9728 29.7252 15.9834 29.6719C15.9941 29.6189 15.9753 29.566 15.9284 29.5136C15.9156 29.4991 15.9019 29.4863 15.8879 29.4756C15.8507 29.447 15.8089 29.4312 15.7646 29.4287C15.7014 29.424 15.6421 29.4415 15.5854 29.4786L15.5598 29.4956L14.1714 30.4266L14.1462 30.4428C14.0886 30.4808 14.0562 30.5265 14.0442 30.5807C14.0336 30.634 14.0515 30.686 14.0993 30.7394C14.1121 30.7539 14.1257 30.7663 14.1398 30.7773C14.1769 30.8051 14.2179 30.8209 14.2631 30.8243C14.3271 30.8281 14.3856 30.8111 14.4432 30.7735L14.4671 30.7564L14.9215 30.4522L15.1275 30.6809L14.6731 30.9856L14.648 31.0018C14.5119 31.0931 14.3728 31.1289 14.2307 31.1101C14.1309 31.0965 14.04 31.0581 13.9572 30.9954C13.9222 30.9685 13.8885 30.9373 13.8565 30.9019C13.7477 30.7808 13.7016 30.6596 13.7149 30.5359C13.7298 30.4117 13.804 30.3055 13.9393 30.2146L13.9653 30.1975L15.3545 29.2674L15.3806 29.2503C15.5162 29.1594 15.654 29.1232 15.7961 29.1419C15.8955 29.1552 15.9873 29.1936 16.0705 29.2567C16.1055 29.2836 16.1392 29.3152 16.1716 29.351C16.2795 29.4705 16.326 29.5933 16.312 29.7162Z" stroke="#231F20" stroke-width="0.213333" stroke-miterlimit="10"/>
<path d="M15.2718 28.3991L15.4778 28.6281L13.2182 30.1412L13.0122 29.9121L15.2718 28.3991Z" fill="#FDCD00" stroke="#231F20" stroke-width="0.213333" stroke-miterlimit="10"/>
</svg>
